<?xml version="1.0" encoding="UTF-8"?>
<svg id="Capa_1" data-name="Capa 1" xmlns="http://www.w3.org/2000/svg" viewBox="0 0 1713 1713">
  <defs>
    <style>
      .cls-1 {
        fill: #fff;
      }

      .cls-1, .cls-2, .cls-3 {
        fill-rule: evenodd;
        stroke-width: 0px;
      }

      .cls-2 {
        fill: #cda22b;
      }

      .cls-3 {
        fill: #0a0a9e;
      }
    </style>
  </defs>
  <g>
    <g>
      <path class="cls-1" d="m400.54,1215.69l78.81-170.12,65.57,170.12h-144.38Zm379.63,199.54c-14.31-14.15-34.9-38.04-43.08-58.81-7.59-20.44-40-114.01-62.48-179.43-22.5-65.7-53.06-151.41-73.7-211.12-20.64-58.79-48.4-137.92-56.78-162.57-7.87-24.39-19.31-4.21-25.03,8.26-5.35,12.19-111.91,254.9-143.46,326.34-31.54,72.02-79.87,180.62-101.66,217.63-21.27,37.44-46.73,53.51-66.34,62.57-19.42,8.55-29.24,4.05-34.12,9.91,0,0-2.93,7.2,0,12.04,0,0,2.1,4.79,14.7,4.79h203.14s27.29,3.16,26.68-12.03c-.99-18.79-23.05-10.67-40.06-21.8-20.17-13.56-33.47-30.69-34.32-47.22-1.25-26.02,15.39-53.54,28.77-80.47h193.7c11.14,30.68,23.82,49.47,17.17,80.61-7.03,31.75-29.69,55.04-40.06,59.1-10.58,4.52-9.12,17.89,3.09,17.89s208.57.76,222.94,0c14.78-.14,24.99-11.28,10.93-25.71h0Z"/>
      <path class="cls-1" d="m1154.11,1215.8l78.88-170.23,64.64,170.23h-143.52Zm380.45,199.87c-12.36-9.78-33.4-34.75-43.58-57.76-10.21-23.75-41.93-117.9-62.2-177-20.39-60-127.42-366.03-132.2-379.89-4.83-13.23-12.86-14.26-23.68,10.25-10.52,24.35-60.92,141.2-97.44,223.01-36.32,82.55-76.17,175.64-103.21,232.04-27.32,56.42-46.25,119.89-109.13,151.17v-450.27c48.97,0,65.66,17.59,67.68,44.96,1.92,28.26,7.5,55.03,31.23,55.03s17.94-72.65,18.94-112.33c1.25-43.16.53-120.01.53-137.3s-4.24-42.57-19.46-43.47c-15.94-.91-26.93,20.45-28.46,35.64-.85,15.34,7.89,65.86-69.59,65.86v-164.09s78.16-8.72,125.64-8.72,104.41,18.65,131.31,30.99c27.05,11.9,68.06,40.31,78.08,34.43,7.59-4.19-18.08-65.86-31.83-106.46-13.78-39.86-29.55-81.82-35.73-95.94-6.2-14.74-15.3-19.69-37.74-3.03-23.04,15.81-58.77,31.44-107.19,31.44-48.55,1.21-157.01-2.39-197.1-2.39s-117,3.6-146.76,3.6-97.36-3.03-145.39-21.35c-47.87-18.05-115.54-71.89-130.45-88.59-14.93-16.68-30.39-.44-16.17,38.36,14.7,39.24,48.26,95.37,110.98,141.38,63.11,46.91,135.94,51.71,233.46,41.34v738.11c0,33.55-11.85,59.13-51.6,79.28-39.19,20.14-49.25,32.34-28.21,39.39,20.02,6.64,91.24,20.92,122.54,37.74,21.73,11.43,44.1,49.32,76.18,71.9,32.41,23.03,77.26,41.65,143.31,13.39,65.18-27.82,83.59-57.61,87.86-64.66,4.07-7.06,8.94-25.14-29.8-21.51-48.14,4.05-88.2-17.9-98.04-34.46-17.33-29.31-39.3-63.91-54.21-72.34v-48.73h194.63c18.94,0,21.3-25.54-5.43-27.96-27.19-2.7-55.88-28.25-55.88-57.91s30.85-75.8,30.85-75.8h191.07s21.18,40.16,20.73,65.59c-1.24,28.72-23.22,63.14-37.74,70.54-14.37,7.49-17.19,21.79,2.49,21.79h221.75c13.64,0,21.37-15.17,8.97-25.26h0Z"/>
    </g>
    <g>
      <polygon class="cls-1" points="455.88 137.2 489.28 210.86 571.06 219.25 509.93 273.16 527.07 352.01 455.88 311.66 384.69 352.01 401.82 273.16 340.69 219.25 422.47 210.86 455.88 137.2 455.88 137.2"/>
      <polygon class="cls-1" points="1257.12 137.2 1290.53 210.86 1372.31 219.25 1311.17 273.16 1328.31 352.01 1257.12 311.66 1185.93 352.01 1203.07 273.16 1141.93 219.25 1223.72 210.86 1257.12 137.2 1257.12 137.2"/>
      <polygon class="cls-1" points="856.5 12.34 909.16 128.48 1038.11 141.7 941.71 226.7 968.74 351.01 856.5 287.4 744.26 351.01 771.28 226.7 674.89 141.7 803.83 128.48 856.5 12.34 856.5 12.34"/>
    </g>
  </g>
  <g>
    <g>
      <path class="cls-3" d="m398.46,1217.32l79.17-170.89,65.87,170.89h-145.04Zm381.36,200.44c-14.37-14.22-35.06-38.21-43.28-59.08-7.62-20.53-40.19-114.53-62.76-180.25-22.61-66-53.3-152.1-74.04-212.08-20.74-59.06-48.63-138.55-57.03-163.31-7.91-24.5-19.39-4.23-25.15,8.3-5.37,12.25-112.42,256.06-144.12,327.83-31.68,72.35-80.23,181.44-102.12,218.62-21.36,37.61-46.94,53.76-66.65,62.85-19.51,8.59-29.38,4.07-34.27,9.96,0,0-2.94,7.23,0,12.1,0,0,2.11,4.82,14.76,4.82h204.06s27.42,3.18,26.8-12.08c-1-18.88-23.15-10.72-40.25-21.9-20.26-13.62-33.63-30.83-34.48-47.43-1.25-26.14,15.46-53.79,28.9-80.84h194.58c11.19,30.82,23.93,49.7,17.24,80.98-7.06,31.89-29.83,55.29-40.25,59.37-10.62,4.54-9.16,17.97,3.1,17.97s209.51.76,223.96,0c14.84-.14,25.1-11.33,10.98-25.83h0Z"/>
      <path class="cls-3" d="m1155.46,1217.43l79.24-171,64.93,171h-144.17Zm382.19,200.78c-12.41-9.82-33.55-34.91-43.78-58.02-10.26-23.86-42.12-118.44-62.49-177.81-20.48-60.27-128-367.7-132.8-381.62-4.85-13.3-12.92-14.32-23.79,10.29-10.57,24.47-61.2,141.85-97.89,224.02-36.48,82.92-76.52,176.44-103.68,233.1-27.45,56.67-46.46,120.43-109.62,151.86v-452.31c49.19,0,65.96,17.67,67.99,45.16,1.93,28.39,7.54,55.28,31.38,55.28s18.02-72.98,19.02-112.85c1.25-43.36.53-120.56.53-137.93s-4.26-42.76-19.55-43.66c-16.02-.92-27.06,20.54-28.59,35.8-.85,15.41,7.93,66.16-69.91,66.16v-164.84s78.52-8.76,126.21-8.76,104.89,18.73,131.9,31.13c27.17,11.96,68.37,40.5,78.44,34.59,7.62-4.21-18.16-66.15-31.97-106.95-13.84-40.05-29.69-82.19-35.89-96.38-6.22-14.81-15.37-19.78-37.91-3.04-23.14,15.88-59.04,31.58-107.67,31.58-48.77,1.21-157.73-2.4-198-2.4s-117.53,3.61-147.43,3.61-97.81-3.04-146.06-21.45c-48.09-18.13-116.06-72.22-131.04-88.99-15-16.76-30.53-.44-16.25,38.53,14.77,39.42,48.48,95.8,111.48,142.02,63.39,47.12,136.56,51.94,234.53,41.53v741.46c0,33.7-11.9,59.39-51.83,79.64-39.37,20.23-49.48,32.49-28.34,39.57,20.11,6.67,91.65,21.01,123.1,37.91,21.83,11.48,44.3,49.55,76.53,72.23,32.56,23.13,77.61,41.84,143.96,13.45,65.47-27.95,83.97-57.87,88.26-64.95,4.09-7.09,8.98-25.25-29.94-21.61-48.36,4.07-88.6-17.98-98.48-34.61-17.4-29.45-39.48-64.2-54.46-72.67v-48.95h195.52c19.02,0,21.4-25.65-5.45-28.09-27.31-2.71-56.13-28.38-56.13-58.17s30.99-76.14,30.99-76.14h191.94s21.28,40.34,20.83,65.89c-1.24,28.85-23.33,63.43-37.91,70.86-14.43,7.53-17.27,21.88,2.5,21.88h222.76c13.7,0,21.46-15.24,9.02-25.38h0Z"/>
    </g>
    <g>
      <polygon class="cls-2" points="454.05 133.92 487.61 207.92 569.76 216.35 508.35 270.5 525.57 349.71 454.05 309.18 382.54 349.71 399.75 270.5 338.34 216.35 420.49 207.92 454.05 133.92 454.05 133.92"/>
      <polygon class="cls-2" points="1258.94 133.92 1292.5 207.92 1374.66 216.35 1313.24 270.5 1330.46 349.71 1258.94 309.18 1187.43 349.71 1204.64 270.5 1143.23 216.35 1225.39 207.92 1258.94 133.92 1258.94 133.92"/>
      <polygon class="cls-2" points="856.5 8.5 909.4 125.17 1038.93 138.45 942.1 223.83 969.25 348.71 856.5 284.81 743.75 348.71 770.89 223.83 674.07 138.45 803.59 125.17 856.5 8.5 856.5 8.5"/>
    </g>
  </g>
</svg>