<?xml version="1.0" encoding="UTF-8"?>
<svg id="Capa_1" data-name="Capa 1" xmlns="http://www.w3.org/2000/svg" viewBox="0 0 1713 1713">
  <defs>
    <style>
      .cls-1 {
        fill: #170f1c;
        fill-rule: evenodd;
        stroke-width: 0px;
      }
    </style>
  </defs>
  <g>
    <path class="cls-1" d="m400.54,1215.69l78.81-170.12,65.57,170.12h-144.38Zm379.63,199.54c-14.31-14.15-34.9-38.04-43.08-58.81-7.59-20.44-40-114.01-62.48-179.43-22.5-65.7-53.06-151.41-73.7-211.12-20.64-58.79-48.4-137.92-56.78-162.57-7.87-24.39-19.31-4.21-25.03,8.26-5.35,12.19-111.91,254.9-143.46,326.34-31.54,72.02-79.87,180.62-101.66,217.63-21.27,37.44-46.73,53.51-66.34,62.57-19.42,8.55-29.24,4.05-34.12,9.91,0,0-2.93,7.2,0,12.04,0,0,2.1,4.79,14.7,4.79h203.14s27.29,3.16,26.68-12.03c-.99-18.79-23.05-10.67-40.06-21.8-20.17-13.56-33.47-30.69-34.32-47.22-1.25-26.02,15.39-53.54,28.77-80.47h193.7c11.14,30.68,23.82,49.47,17.17,80.61-7.03,31.75-29.69,55.04-40.06,59.1-10.58,4.52-9.12,17.89,3.09,17.89s208.57.76,222.94,0c14.78-.14,24.99-11.28,10.93-25.71h0Z"/>
    <path class="cls-1" d="m1154.11,1215.8l78.88-170.23,64.64,170.23h-143.52Zm380.45,199.87c-12.36-9.78-33.4-34.75-43.58-57.76-10.21-23.75-41.93-117.9-62.2-177-20.39-60-127.42-366.03-132.2-379.89-4.83-13.23-12.86-14.26-23.68,10.25-10.52,24.35-60.92,141.2-97.44,223.01-36.32,82.55-76.17,175.64-103.21,232.04-27.32,56.42-46.25,119.89-109.13,151.17v-450.27c48.97,0,65.66,17.59,67.68,44.96,1.92,28.26,7.5,55.03,31.23,55.03s17.94-72.65,18.94-112.33c1.25-43.16.53-120.01.53-137.3s-4.24-42.57-19.46-43.47c-15.94-.91-26.93,20.45-28.46,35.64-.85,15.34,7.89,65.86-69.59,65.86v-164.09s78.16-8.72,125.64-8.72,104.41,18.65,131.31,30.99c27.05,11.9,68.06,40.31,78.08,34.43,7.59-4.19-18.08-65.86-31.83-106.46-13.78-39.86-29.55-81.82-35.73-95.94-6.2-14.74-15.3-19.69-37.74-3.03-23.04,15.81-58.77,31.44-107.19,31.44-48.55,1.21-157.01-2.39-197.1-2.39s-117,3.6-146.76,3.6-97.36-3.03-145.39-21.35c-47.87-18.05-115.54-71.89-130.45-88.59-14.93-16.68-30.39-.44-16.17,38.36,14.7,39.24,48.26,95.37,110.98,141.38,63.11,46.91,135.94,51.71,233.46,41.34v738.11c0,33.55-11.85,59.13-51.6,79.28-39.19,20.14-49.25,32.34-28.21,39.39,20.02,6.64,91.24,20.92,122.54,37.74,21.73,11.43,44.1,49.32,76.18,71.9,32.41,23.03,77.26,41.65,143.31,13.39,65.18-27.82,83.59-57.61,87.86-64.66,4.07-7.06,8.94-25.14-29.8-21.51-48.14,4.05-88.2-17.9-98.04-34.46-17.33-29.31-39.3-63.91-54.21-72.34v-48.73h194.63c18.94,0,21.3-25.54-5.43-27.96-27.19-2.7-55.88-28.25-55.88-57.91s30.85-75.8,30.85-75.8h191.07s21.18,40.16,20.73,65.59c-1.24,28.72-23.22,63.14-37.74,70.54-14.37,7.49-17.19,21.79,2.49,21.79h221.75c13.64,0,21.37-15.17,8.97-25.26h0Z"/>
  </g>
  <g>
    <polygon class="cls-1" points="455.88 137.2 489.28 210.86 571.06 219.25 509.93 273.16 527.07 352.01 455.88 311.66 384.69 352.01 401.82 273.16 340.69 219.25 422.47 210.86 455.88 137.2 455.88 137.2"/>
    <polygon class="cls-1" points="1257.12 137.2 1290.53 210.86 1372.31 219.25 1311.17 273.16 1328.31 352.01 1257.12 311.66 1185.93 352.01 1203.07 273.16 1141.93 219.25 1223.72 210.86 1257.12 137.2 1257.12 137.2"/>
    <polygon class="cls-1" points="856.5 12.34 909.16 128.48 1038.11 141.7 941.71 226.7 968.74 351.01 856.5 287.4 744.26 351.01 771.28 226.7 674.89 141.7 803.83 128.48 856.5 12.34 856.5 12.34"/>
  </g>
</svg>