<?xml version="1.0" encoding="UTF-8"?>
<svg id="Capa_1" data-name="Capa 1" xmlns="http://www.w3.org/2000/svg" viewBox="0 0 1474 644">
  <defs>
    <style>
      .cls-1 {
        fill: #6ca7d9;
        stroke-width: 0px;
      }
    </style>
  </defs>
  <g>
    <path class="cls-1" d="m58.57,160.77h10.52c30.56,8.09,45.84,30.29,45.84,66.61,65.43,173.84,98.16,269.84,98.16,287.99l7.01,70.38-17.53,14.02h-7.01c-23.37-7.73-35.06-31.1-35.06-70.11,0-21.4-8.18-55.37-24.54-101.93h-42.07v42.07l-28.31,10.52c-18.69-6.29-28.04-20.31-28.04-42.07,0-12.4-8.18-22.92-24.54-31.55l-3.51-3.51v-3.51l3.51-3.5,7.01-14.02c11.69,0,17.53-2.43,17.53-7.28v-98.16l7.01-84.4v-14.02l14.02-17.53Zm35.33,168.54v45.57l7.01,7.28h14.02l-17.53-52.85h-3.51Z"/>
    <path class="cls-1" d="m239.48,185.31c28.22,6.11,42.34,16.72,42.34,31.82-25.89,69.4-38.83,136.36-38.83,200.9,1.62,18.88,3.95,28.31,7.01,28.31l49.35-24.81h10.79c23.37,9.35,35.06,21.13,35.06,35.33l-102.2,49.35c-37.58-8.99-56.36-43.05-56.36-102.2,11.69-133.21,29.3-206.11,52.85-218.69Z"/>
    <path class="cls-1" d="m295.53,8.41l7.01.27c7.37,8.27,17.53,14.38,30.47,18.34l1.62,28.31-3.51-.27,3.51,3.78-1.62,24.54c30.02,165.39,58.6,269.48,85.75,312.26l.54-7.28,3.51-221.66,3.24-52.85,18.88-20.76,33.71,22.11,1.62,31.55-1.89,28.31c-6.83,183.91-4.5,315.5,7.01,394.78l5.66,21.3-25.35,13.48c-25.17-10.61-37.12-26.16-35.86-46.65-45.67-97.43-83.05-192.35-112.18-284.76-27.51-123.5-40.81-191.9-39.91-205.21l2.43-42.34,15.37-17.26Z"/>
    <path class="cls-1" d="m614.24,107.92c0,7.55,7.46,11.33,22.38,11.33,7.55,4.85,12.58,13.48,15.1,25.89l-3.78,15.1,67.14,320.89c-10.79,0-18.25,4.95-22.38,14.83l-22.38-14.83c-11.51,16.54-25.17,28.94-40.99,37.21h-33.71c-30.02,0-66.07-22.38-108.13-67.14l-3.77-18.61v-22.38c18.88-102.11,49.98-153.17,93.3-153.17h14.83l18.88,3.78-11.33-52.04h-3.77l-115.68,74.43h-7.28c-19.95-11.68-29.93-20.4-29.93-26.16,0-14.92,42.25-48.45,126.74-100.58,21.03-32.36,35.95-48.54,44.76-48.54Zm-11.06,197.66v48.54l-7.55,7.55-3.78-3.78v-48.54h-3.51l-7.55,7.55v97.08l-7.55,7.28-3.77-3.78v-78.2h-3.51c-14.92,38.83-22.38,66.16-22.38,81.98v18.61c14.02,19.96,27.68,29.93,40.99,29.93h14.83c13.66-8.09,26.06-34.15,37.21-78.2-12.94-57.34-22.83-86.02-29.66-86.02h-3.78Z"/>
    <path class="cls-1" d="m743.37,177.76h7.01l14.29,10.52,3.5-3.5c0,4.85,3.5,7.28,10.52,7.28l3.51,3.51v14.02l-3.51,24.81c58.96,41.53,88.45,75.77,88.45,102.74v14.02c0,28.41-10.61,47.28-31.82,56.63-23.55,2.34-35.33,5.84-35.33,10.52,32,34.88,67.32,67.6,105.98,98.16l3.5,27.24-11.86-15.1v-3.5l14.02-21.3h7.01c31.64,14.02,42.69,20.22,33.17,18.61l53.66,82.25,3.5,14.02c-14.2,5.57-21.3,10.34-21.3,14.29-33.8-11.86-111.73-77.48-233.79-196.85v3.51c26.06,61.84,39.1,97.25,39.1,106.25-6.47,0-13.58,3.5-21.3,10.52h-3.5c-23.55-10.79-38.92-30.83-46.11-60.13-18.88-28.76-28.31-65.35-28.31-109.75,4.68-70.65,11.78-117.84,21.3-141.57,0-7.01-5.93-10.52-17.8-10.52l-7.01-17.8c4.68,0,7.01-4.67,7.01-14.02l3.51-3.51h10.79l10.52,7.01h3.51c5.75-18.88,11.68-28.31,17.8-28.31Zm21.3,106.24l-14.29,84.94,3.51,3.51h3.51c35.41-4.67,53.12-10.61,53.12-17.8v-31.82c-19.24-28.22-34.52-42.34-45.84-42.34v3.5Z"/>
    <path class="cls-1" d="m942.62,122.21c33.08,0,74.33,25.71,123.77,77.12,22.47,30.02,48.18,99.69,77.12,208.98v4.04c-15.28,5.93-22.92,11.06-22.92,15.37-58.97-25.53-119.55-59.05-181.75-100.58h-4.04c14.56,55.91,46.83,98.42,96.81,127.55h7.55l31.01-19.15h11.6c5.21,0,7.82,3.78,7.82,11.33l3.78-3.51h4.04c12.76,9.89,19.15,20.13,19.15,30.74l-46.38,31.01h-23.19c-71.19-23.91-122.79-66.42-154.78-127.55-17.97-37.21-26.97-75.95-26.97-116.22,15.46-92.76,36.04-139.14,61.75-139.14h15.64Zm7.55,50.16l-15.37,85.21v11.6l127.82,84.94h7.55l-50.16-131.32c-27.15-33.61-49.08-50.43-65.8-50.43h-4.04Z"/>
    <path class="cls-1" d="m1311.21,107.38c25.17,10.07,37.75,22.65,37.75,37.75v3.78c-33.26,104.81-76.04,209.44-128.36,313.88h3.78c28.04,0,68.31,15.1,120.81,45.3v-3.78l-64.18-113.26v-11.33c5.03,0,7.55-5.03,7.55-15.1l3.78-3.78h7.55l37.75,22.65,113.53,200.36,3.78,11.33-26.43,15.1-75.78-52.85c-61.48-32.9-101.75-49.35-120.81-49.35v38.02l-7.55,7.55-3.78-3.78v-41.8l-18.88-3.78h-11.6v102.2l-7.55,7.55-3.77-3.78v-105.98c-32.72-8.45-49.08-21.03-49.08-37.75,37.75-39.01,56.63-64.18,56.63-75.5,42.96-90.42,66.96-149.66,72-177.71-23.01,14.38-54.56,28.23-94.65,41.53v3.78c12.58,5.57,18.88,14.38,18.88,26.43l-18.88,15.1c-40.27-9.34-60.4-29.48-60.4-60.4v-3.78c11.15-19.05,28.77-31.64,52.85-37.75,23.91,0,70.56-30.29,139.95-90.88h15.1Z"/>
  </g>
  <path class="cls-1" d="m151.49,95.14v1.2c-44.69,19.23-72.79,32.6-84.31,40.12-5.13.57-9.74-5.31-13.83-17.62,1.48-.23,2.11-1.88,1.88-4.96,19.73-18.9,38.94-29.38,57.63-31.42l15.39-1.53c9.57,3.08,17.32,7.82,23.24,14.2Z"/>
</svg>