<?xml version="1.0" encoding="UTF-8"?>
<svg id="Capa_1" data-name="Capa 1" xmlns="http://www.w3.org/2000/svg" viewBox="0 0 1713 1713">
  <defs>
    <style>
      .cls-1 {
        fill: #00285e;
      }

      .cls-1, .cls-2, .cls-3, .cls-4, .cls-5, .cls-6, .cls-7, .cls-8 {
        stroke-width: 0px;
      }

      .cls-2 {
        fill: #96c0e6;
      }

      .cls-3 {
        fill: #fec658;
      }

      .cls-4 {
        fill: #cda22b;
      }

      .cls-5 {
        fill: #fff;
      }

      .cls-6 {
        fill: #ed3124;
      }

      .cls-7 {
        fill: #f9f9f9;
      }

      .cls-8 {
        fill: #6cacde;
      }
    </style>
  </defs>
  <g>
    <circle class="cls-1" cx="856.5" cy="856.5" r="851"/>
    <path class="cls-8" d="m856.14,1672.43c-450.24.43-816.04-367.49-815.7-816.32C40.77,406.71,407.47,40.68,856.53,40.76c450.22.08,816.21,367.54,815.71,816.38-.5,449.29-366.76,816.14-816.1,815.3Z"/>
    <path class="cls-1" d="m856.81,58.24c437.03-.1,797.64,355.05,797.6,798.54-.04,440.53-357.45,798.08-798.19,797.93-440.97-.15-798.02-357.98-797.91-798.22.11-443.33,360.49-798.69,798.51-798.25Z"/>
    <path class="cls-5" d="m93.51,856.75c-.09-420.55,341.32-761.84,762.17-761.9,421.6-.06,762.72,340.81,762.51,761.94-.22,421.1-342.66,763.4-762.65,762.35-421.28-1.06-761.95-341.89-762.03-762.39Z"/>
  </g>
  <path class="cls-1" d="m857,332.83c122.79,1.09,232.32,39.72,328.3,116.43,3.79,3.03,7.89,3.88,12.3,4.63,14.88,2.54,29.74,5.28,44.65,7.65,4.45.71,6.17,2.93,6.99,7.15,3.13,16.21,6.64,32.34,9.8,48.54.75,3.82,2.06,7.07,4.53,10.13,62.66,77.8,102.23,166.09,112.5,265.4,19.64,189.97-44.54,347.66-190.82,470.43-75.32,63.21-163.45,99.21-260.89,112.84-12.38,1.73-24.15,7.72-36.22,11.65-33.33,10.85-33.76,11.95-66.32-.58-29.8-11.47-61.27-14.78-91.8-22.51-103.38-26.16-190.8-78.95-262.25-157.88-63.63-70.29-105.97-152.04-124.04-245.11-29.89-153.98,1.91-294.8,95.62-420.93,8.2-11.03,11.87-22.51,14.14-35.31,2.14-12.07,5.13-23.99,7.25-36.06.93-5.31,3.63-7.31,8.65-8.11,16.54-2.64,33.01-5.73,49.55-8.35,3.44-.54,6.2-1.69,8.85-3.83,65.08-52.37,138.4-87.49,220.14-104.9,35.92-7.65,72.26-11.48,109.05-11.3Z"/>
  <g>
    <g>
      <path class="cls-1" d="m285.92,551.77c-9.93-17.03-18.97-33.23-28.75-48.98-3.55-5.71-4.53-10.39-.38-15.89,1.55-2.05,2.54-4.51,3.75-6.8q6.75-12.69,19.13-6.22c32.94,17.34,65.78,34.86,98.86,51.93,5.12,2.64,5.14,4.87,2.44,8.94-3.99,6.01-5.06,16.35-11.07,17.78-5.27,1.25-12.45-5.29-18.71-8.53-16.11-8.33-32.17-16.76-48.29-25.09-1.99-1.03-3.74-2.94-7.22-2.08,6.7,12.07,13.25,23.87,19.8,35.67,2.98,5.36,5.81,10.8,9,16.03,2.48,4.07,1.87,5.48-3.11,5.91-19.73,1.74-39.42,3.85-60.72,5.98,5.68,3.09,10.08,5.55,14.55,7.91,18.54,9.78,37.05,19.65,55.71,29.2,4.09,2.09,4.66,3.92,2.32,7.8-3.28,5.43-6.1,11.16-8.86,16.89-1.33,2.76-2.62,3.05-5.3,1.63-36.43-19.3-72.89-38.54-109.43-57.64-3.49-1.82-3.62-3.5-1.65-6.39,1.18-1.74,2.36-3.64,2.9-5.64,4.26-15.77,15.18-19.99,30.43-19.69,14.34.28,28.72-1.67,44.6-2.74Z"/>
      <path class="cls-1" d="m493.5,306.97c13.92,22.96,26.73,44.4,39.92,65.6,2.84,4.56,3.15,6.97-2.21,9.49-6.53,3.06-12.88,11.29-18.62,9.67-5.05-1.43-7.89-10.93-11.56-16.96-17.88-29.43-35.61-58.95-53.65-88.28-2.7-4.39-2.62-6.07,1.82-9.65,11.87-9.58,22.97-9.28,36.55-3.05,21.81,10,44.53,17.99,66.91,26.72,2.08.81,4.11,2.59,6.95,1.32.12-2.69-1.96-4.48-3.18-6.52-11.28-18.81-22.58-37.61-34.1-56.27-2.08-3.37-1.92-5.01,1.69-6.91,5-2.62,9.87-5.59,14.46-8.87,4.26-3.04,6.47-2.87,9.43,2.12,18.9,31.84,38.22,63.43,57.39,95.11,7.2,11.89,6.84,11.4-4.44,19.22-6.88,4.76-12.54,4.67-20.01,1.58-26.77-11.07-53.84-21.41-80.8-32.01-1.49-.59-3.02-1.07-6.56-2.31Z"/>
      <path class="cls-1" d="m1489.89,547.89c-7.88-16.07-16.21-31.94-23.85-48.12-2.48-5.28-4.73-5.12-9.37-2.78-30.49,15.4-61.2,30.41-91.72,45.78-6.84,3.45-17.9,4.95-19.26,11.17-1.29,5.93,6,13.61,9.17,20.7,1.52,3.36,2.95,3.96,6.23,2.14,6.39-3.55,13-6.66,19.52-9.97,14.24-7.21,14.05-7.13,21.63,7,2.38,4.46,2.41,7.82-.23,12.18-6.7,11.1-12.86,22.51-19.19,33.84-1.22,2.2-2.88,4.27-1.35,7.18,4.71,8.93,9.24,17.94,14.2,27.62,8.5-15.19,16.75-29.44,24.46-43.98,2.54-4.81,3.96-5.18,8.46-1.8,24.87,18.65,63.67,2.92,68.28-27.54,1.82-11.91-1.83-22.91-6.98-33.43Zm-20.94,22.91c.04,7.38-3.42,12.53-10.01,15.63-7.92,3.7-15.06,3.02-20.82-2.95-8.82-9.16-12.12-21.61-18.27-32.39-1.32-2.31.97-2.77,2.27-3.45,8.99-4.6,18-9.16,27.04-13.67,1.35-.67,3.18-2.17,4.22.13,5.35,11.92,13.58,22.63,15.56,36.01.04.23.01.47.01.7Z"/>
      <path class="cls-1" d="m894.13,215.73c0,20.07-.14,40.14.12,60.2.05,4.22-1.28,5.2-5.16,5.12-6.37-.13-12.77-.01-19.11.51-4.27.35-5.08-1.33-5.12-5.16-.16-14.17-.8-28.33-.89-42.5-.03-4.38-1.33-5.6-5.69-5.38-14.15.7-28.32,1.16-42.48,1.32-4.37.05-5.6,1.3-5.38,5.7.7,13.91.75,27.86,1.47,41.77.22,4.34-.85,5.96-5.26,5.89-6.37-.1-12.76.14-19.11.56-3.61.24-4.84-.75-4.92-4.59-.85-40.85-1.86-81.69-2.94-122.53-.09-3.39.35-5.16,4.41-5.1,6.36.1,12.76-.22,19.1-.78,4.13-.37,5.13,1.15,5.19,5.07.22,13.93,1,27.85,1.16,41.78.05,4.3,1.11,5.68,5.57,5.49,14.15-.62,28.32-1.03,42.49-1.02,5.07,0,5.66-2.05,5.48-6.33-.56-13.45-.58-26.92-1.16-40.36-.19-4.45.77-6.45,5.67-6.18,5.64.31,11.36.21,16.99-.31,4.81-.45,6.56.81,6.49,5.94-.26,20.3-.11,40.6-.11,60.91,1.07,0,2.14,0,3.21,0Z"/>
      <path class="cls-1" d="m1429.11,442.3c-1.89,1.72-3.38,3.2-5.01,4.52-4.75,3.84-9.62,10.71-14.32,10.61-5.44-.12-8.65-8.34-12.74-13.1-10.01-11.63-19.94-23.33-29.5-35.32-2.94-3.68-4.66-3.3-7.68-.47-4.98,4.67-13.67,8.4-14.55,13.59-.9,5.28,7.38,10.57,11.65,15.84,6.98,8.62,14.01,17.21,21.29,25.58,3.23,3.72,3.82,5.9-1.81,7.17-6.85,1.55-13.93,7.42-19.97,5.28-5.62-1.99-9.31-9.51-13.75-14.69-5.37-6.28-10.76-12.54-15.87-19.03-2.24-2.84-3.85-3.3-6.62-.68-4.12,3.88-8.39,7.66-12.97,10.96-3.9,2.8-4.39,4.71-.99,8.65,13.1,15.19,25.68,30.83,38.69,46.11,2.69,3.17,3.15,4.93-.52,7.6-5.32,3.87-10.21,11.61-15.29,11.62-5.27.01-8.91-8.72-13.16-13.71-16.07-18.87-31.93-37.92-48.06-56.73-2.99-3.48-3.66-5.35.47-8.76,30.95-25.54,61.69-51.33,92.39-77.18,3.3-2.78,5.11-3.37,8.29.48,18.78,22.76,37.87,45.26,56.86,67.84,1.01,1.2,2.01,2.42,3.19,3.84Z"/>
      <path class="cls-1" d="m1019.27,249.91c-13.47-2.92-26.39-5.61-39.25-8.58-4.65-1.07-7.34-.86-7.89,5-.63,6.74-5.94,14.62-2.96,19.64,3,5.05,12.32,3.95,18.88,5.46,14.7,3.37,29.46,6.52,44.21,9.67,3.83.82,6.39,1.58,4.6,6.76-2.14,6.19-1.09,15.31-5.11,18.51-4.15,3.29-12.3-1.51-18.67-2.86-24.45-5.16-48.82-10.69-73.26-15.89-4.59-.98-5.67-2.37-4.54-7.42,8.58-38.42,16.81-76.92,24.84-115.47,1.19-5.73,2.66-7.43,9-5.95,28,6.56,56.14,12.52,84.29,18.44,4.57.96,6.7,1.97,4.81,7.22-2.12,5.92-.79,14.63-5.37,17.65-4.65,3.06-12.03-1.54-18.2-2.79-15.02-3.04-30.01-6.21-44.93-9.71-3.97-.93-5.43-.49-5.97,3.79-.89,6.97-5.96,15.08-2.99,20.36,2.77,4.93,12.33,3.82,18.88,5.41,10.31,2.49,20.7,4.64,31.08,6.79,3.79.79,5.27,1.93,2.64,5.81-3.3,4.87-6.19,10.03-9.05,15.18-1.31,2.36-2.73,3.82-5.02,2.98Z"/>
      <path class="cls-1" d="m486.4,404.23c-36.51-13.24-72.94-26.74-109.42-40.1-6.37-2.34-13.29-6.98-19.16-5.98-6.35,1.09-9.71,9.64-15.02,14.24-3.28,2.82-3.19,5.32-1.5,9.13,12.35,27.75,24.42,55.63,36.58,83.47,6.2,14.2,12.39,28.39,19.04,43.59,6.35-6.81,11.67-12.82,17.36-18.45,2.48-2.46,2.6-4.4,1.12-7.37-3.25-6.53-5.92-13.36-9.24-19.85-1.87-3.66-1.63-6.05,1.39-9.1,9.78-9.91,19.49-19.94,28.6-30.46,4.36-5.03,8.05-6.3,14.21-3.31,6.93,3.35,15.17,8.73,21.48,7.27,6.37-1.46,10.79-10.5,16.55-15.69,4.95-4.44,2.95-5.59-1.99-7.4Zm-93.63,28.65c-6.32-13.81-12.42-27.14-19.18-41.92,14.88,5.71,28.53,10.94,43.21,16.58-8.16,8.6-15.76,16.61-24.03,25.34Z"/>
      <path class="cls-1" d="m1135.95,211.01c22.71,2.38,42.32,15.23,55.66,38,1.44,2.46,1.02,3.87-1.36,5.03-.42.21-.81.48-1.21.72-5.66,3.4-11.2,9.2-17.02,9.51-5.92.32-7.55-8.78-11.95-13.06-6.37-6.2-13.04-11.63-21.92-13.59-5.24-1.16-10.05-.21-13.12,4.56-3.05,4.73-2.25,9.34,1.3,13.68,4.38,5.35,9.78,9.57,15,13.99,6.14,5.19,12.18,10.48,17.38,16.64,10.58,12.54,12.17,26.04,4.54,40.68-7.54,14.46-19.57,21.43-35.61,21.13-30.82-.59-55.85-28-64.65-46.72-1.46-3.1.22-3.65,2.15-4.59,5.09-2.46,10.32-4.68,15.24-7.45,3.9-2.19,5.89-1.73,8.06,2.47,5.87,11.37,14.18,20.54,26.05,26.03,3.46,1.6,6.99,2.81,10.83,3.01,4.8.24,8.92-.94,11.44-5.43,2.65-4.72,1.77-9.05-1.52-13.09-3.75-4.6-8.28-8.39-12.72-12.29-6.2-5.45-12.52-10.82-18.29-16.71-11.74-11.98-13.96-25.81-6.58-40.92,7.01-14.35,18.78-21.26,38.31-21.59Z"/>
      <path class="cls-1" d="m689.44,306.77c-36.38.19-63.72-22.94-69.76-55.47-6.28-33.82,10.9-64.99,42.27-76.76,19.1-7.17,38.09-8.04,57.12.41,3.89,1.73,4.77,3.47,2.61,7.35-2.85,5.13-5.29,10.53-7.49,15.99-1.54,3.82-3.12,4.91-7.2,2.86-7.48-3.76-15.56-5.35-24.02-4.37-18.4,2.14-30.69,13.49-34.18,31.58-3.48,18.05,5.62,37.97,21.26,46.53,14.66,8.03,33.63,5.05,46.28-7.43,2.51-2.47,5.22-5.08,6.7-8.17,2.91-6.08,6.3-5.37,10.89-2.16,3.27,2.29,6.78,4.38,10.46,5.87,5.56,2.25,4.95,5.09,2.29,9.45-14.06,23.01-35.22,33.1-57.24,34.32Z"/>
      <path class="cls-1" d="m1253.57,307.66c.05-2.59-2.05-3.19-3.45-4.28-8.02-6.21-16.01-12.49-24.21-18.47-3.02-2.2-3.13-3.77-.76-6.55,3.82-4.48,7.5-9.14,10.73-14.06,2.27-3.46,3.95-2.57,6.54-.59,26.25,20.08,52.5,40.15,78.92,59.99,3.61,2.71,3.67,4.42.92,7.63-3.67,4.29-7.06,8.87-10.19,13.58-2.15,3.24-3.85,3.06-6.66.8-7.54-6.06-15.5-11.61-22.91-17.83-3.99-3.35-5.99-3.24-9.25,1.14-18.19,24.42-36.87,48.46-55.08,72.87-3.38,4.53-5.69,5.79-10.16,1.54-5.24-4.99-15.26-7.83-15.87-13.8-.53-5.19,7.3-11.31,11.58-16.92,15.61-20.45,31.28-40.86,46.93-61.29,1-1.31,2.01-2.61,2.92-3.79Z"/>
    </g>
    <g>
      <path class="cls-1" d="m632.4,1491.5c-.03-41.09,32.62-71.75,73.67-69.69,17.35.87,32.85,5.65,46.07,17.26,2.91,2.55,3.55,4.15.59,7.16-4.47,4.54-8.65,9.39-12.54,14.44-2.39,3.1-3.9,2.73-6.62.41-11.62-9.88-25.01-14.41-40.11-10.73-16.06,3.91-25.35,14.92-28.65,30.79-3.7,17.82.53,33.57,15.18,45.02,13.01,10.17,27.57,9.62,42.17,3.28,2.78-1.21,5.36-2.98,7.85-4.76,8.5-6.08,8.46-6.13,15.6,1.23.66.68,1.32,1.36,1.98,2.03,10.04,10.31,10.24,10.58-1.78,19.31-23.58,17.12-49,18.54-74.95,6.5-23.86-11.07-38.42-35.58-38.44-62.25Z"/>
      <path class="cls-1" d="m966.53,1423.87c10.67,0,19.88.23,29.08-.11,4.14-.15,6.29,1.34,8.31,4.83,9.4,16.28,19.1,32.39,29.04,49.15,10.08-16.8,19.86-32.92,29.39-49.18,2-3.42,4.15-4.97,8.29-4.81,8.95.35,17.93.11,26.92.11.73,2.7-1.29,4.08-2.33,5.72-14.91,23.5-29.85,46.98-44.94,70.37-1.89,2.92-2.78,5.76-2.75,9.22.13,14.41-.1,28.82.15,43.23.07,4.23-.95,5.97-5.46,5.71-7.74-.45-17.85,2.51-22.64-1.34-5.02-4.04-2.2-14.71-1.34-22.21,2.34-20.57-3.65-37.87-15.74-54.5-12.82-17.65-23.65-36.74-35.97-56.19Z"/>
      <path class="cls-1" d="m898.92,1423.84c16.3,0,32.6.17,48.9-.11,4.71-.08,6.83.81,6.38,6.06-.58,6.77,2.11,15.64-1.27,19.85-3.6,4.47-12.81,1.02-19.56,1.39-4.48.24-9.03.48-13.45-.06-5.95-.72-6.86,1.87-6.82,7.14.23,31.42,0,62.84.23,94.25.04,4.96-1.25,6.6-6.25,6.22-5.87-.45-11.83-.44-17.7,0-4.92.37-5.81-1.64-5.79-6.06.16-31.42-.07-62.84.23-94.25.06-5.91-1.53-7.65-7.43-7.33-9.66.52-19.37,0-29.05.21-3.63.07-5.06-.98-4.87-4.78.28-5.66.45-11.37-.04-16.99-.45-5.18,1.98-5.65,6.18-5.61,16.77.18,33.54.07,50.32.07Z"/>
      <path class="cls-1" d="m785.39,1490.76c0-20.3.19-40.61-.13-60.91-.08-5.07,1.36-6.46,6.27-6.12,6.34.44,12.75.27,19.11.04,3.46-.12,4.38,1.17,4.37,4.49-.09,41.79-.1,83.58,0,125.37,0,3.49-1.31,4.5-4.56,4.43-6.61-.15-13.24-.35-19.83.06-4.7.29-5.36-1.66-5.32-5.75.18-20.54.08-41.08.08-61.62Z"/>
    </g>
  </g>
  <g>
    <g>
      <g>
        <g>
          <path class="cls-8" d="m1483.75,847.14c-3.24-20.78-15.44-29.47-36.43-27.37-12.18,1.21-22.02,10.02-24.64,22.07-2.34,10.72,2.02,21.95,11.13,26.89,10.39,5.65,21.14,5.22,32.12-.1,0,1.33.2,2.29-.03,3.12-3.45,13.16-14.95,17.6-27.92,10.12-4.47-2.57-6.52-2.06-8.63,2.17-.95,1.87-2.26,3.62-3.63,5.22-1.62,1.9-1.14,3.07.58,4.67,12.44,11.65,38.21,9.84,48.69-3.66,9.99-12.89,11.13-27.95,8.76-43.14Zm-30.42,11.24c-8.35-.09-13.13-4.7-12.92-12.46.2-7.45,5.01-11.81,13-11.78,7.65.03,13.7,5.42,13.84,12.32.13,6.67-6.09,12-13.93,11.92Z"/>
          <path class="cls-8" d="m1564.45,868.84c-9.51.27-7.72-5.61-7.76-10.99-.04-4.5-.01-8.99-.01-13.47,0-5.44.23-10.89-.09-16.3-.17-2.73,2.02-7.27-2.23-7.78-4.61-.57-10.32-2.58-14.11,1.73-13.4,15.26-26.45,30.8-39.69,46.21-3.42,3.97-.16,7.61.44,11.3.64,3.95,4.23,2.95,6.91,2.98,7.32.07,14.65.01,21.97.01,9.89.01,9.79.01,10.04,9.91.06,2.34-1.36,5.38,1.87,6.86,7.81,3.56,15.08-.65,14.79-8.84-.18-5.18.26-8.9,6.94-8.02,3.45.47,3.86-2.34,3.39-4.73-.61-3.11,2.3-9-2.47-8.87Zm-28.02-.5c-5.1-.06-10.19-.01-16.92-.01,7.08-8.25,13.12-15.26,20.53-23.89,0,7.86-.03,13.53.01,19.18.01,2.56-.2,4.78-3.62,4.73Z"/>
        </g>
        <g>
          <path class="cls-8" d="m270.93,868.26c-6.16-6.93-7.21-10.59-1.96-19.09,7.28-11.81-2.54-25.47-18.65-28.85-13.19-2.77-27.28,2.34-32.52,11.78-4.91,8.86-3.17,16.91,6.32,27.26-9.38,5.31-13.23,13.03-11.21,22.85,2.16,10.58,10.36,15.39,19.92,17.9,10.36,2.73,20.63,1.93,30.12-3.41,10.48-5.89,15.32-20.19,7.99-28.45Zm-27.82-34.13c6.25.03,10.85,4.14,10.85,9.68s-4.9,9.72-10.92,9.7c-6-.04-10.82-4.4-10.82-9.82.01-5.54,4.63-9.6,10.89-9.55Zm-.48,52.35c-3.12.21-6.53-.47-9.47-2.7-5.83-4.4-5.22-11.5,1.31-14.79,2.74-1.38,5.71-2.19,8.8-2.12,7.47.14,13.1,4.5,13.16,10.05.04,5.58-5.39,9.48-13.8,9.55Z"/>
          <path class="cls-8" d="m192.59,861.35c0,10.87-.3,21.75.13,32.59.22,5.51-1.74,7.3-6.88,6.54-1.16-.17-2.38-.17-3.54,0-5.16.76-6.98-1.1-6.86-6.57.35-16.53-.05-33.07.23-49.6.09-5.32-1.23-6.46-6.39-4.89-6.81,2.07-12.22-3.76-10.61-10.69.33-1.43,1.25-1.97,2.35-2.28,8.58-2.43,16.84-6.01,26.11-5.71,4.46.15,5.6,1.71,5.52,5.88-.21,11.57-.07,23.15-.07,34.72Z"/>
        </g>
      </g>
      <g>
        <path class="cls-8" d="m1113.02,1256.72c13.27-14.7,27.55-28.45,40.2-43.75,58.27-70.48,97.74-149.99,115.26-239.96,5.01-25.73,6.76-51.95,8.76-78.06,3.76-49.01,5.5-98.12,4.21-147.28-.97-37.06-2.5-74.1-6.44-111-.2-1.86-.04-3.76-.05-5.64,5.3,1.94,6.64,7.12,8.74,11.38,14.42,29.31,26.43,59.58,34.55,91.28,8.45,33.01,13.68,66.43,15.36,100.59,3.85,78-11.11,152.07-43.54,222.88-26.22,57.24-62.84,106.95-108.67,149.88-18.8,17.6-38.94,33.67-60.69,47.6-2.28,1.46-4.48,3.79-7.68,2.09Z"/>
        <path class="cls-8" d="m435.04,635.5c-3.13,38.13-5.17,76.31-6.22,114.57-.91,33.11.08,66.16,1.36,99.2,1.07,27.59,3.76,55.1,6.18,82.62,4.89,55.67,20.19,108.38,43.46,158.94,26.94,58.53,63.28,110.55,108.59,156.33,1.13,1.14,1.97,2.57,2.95,3.86-3.83,1.93-6.31-.98-8.84-2.77-30.19-21.32-57.72-45.6-82.37-73.23-21.94-24.6-41.07-51.12-57.66-79.57-30.09-51.62-49.27-107.07-58.58-165.99-4.28-27.08-6.59-54.39-5.78-81.76,1.95-65.6,15.45-128.7,43.06-188.52,2.87-6.21,5.31-12.63,8.67-18.61,1.2-2.13,1.8-5.08,5.18-5.07Z"/>
        <path class="cls-8" d="m1084.84,439.7c-16.7-1.03-33.41-2.06-50.11-3.07-20.02-1.22-40.03-2.75-60.06-3.56-66.09-2.68-132.22-2.8-198.33-1.3-46.47,1.06-92.92,3.27-139.23,7.74-3.04.29-6.12.09-9.18.12.25-3.54,3.37-4.34,5.72-5.62,31.43-17.23,64.65-30.02,99.28-39.1,32.97-8.65,66.39-13.82,100.56-15.56,77.27-3.94,150.71,10.72,221.04,42.34,8.4,3.78,16.91,7.35,24.77,12.18,2.29,1.4,5.37,2.31,5.54,5.83Z"/>
      </g>
      <g>
        <path class="cls-7" d="m1113.02,1256.72c16.19-8.45,30.32-19.92,44.32-31.38,52.41-42.92,94.04-94.64,124.52-155.16,24.72-49.09,40.39-100.96,46.97-155.6,11.46-95.15-4.53-185.51-46.91-271.31-2.07-4.2-4.64-8.16-6.97-12.24-1.7-13.97-3.4-27.95-5.09-41.83,12.89,5.38,53.1,94.97,65.96,146.04,13.36,53.05,18.37,106.81,13.69,161.24-19.46,226.5-177.9,369.41-308.24,417.67,25.5-17.18,48.69-37.22,71.75-57.42Z"/>
        <path class="cls-7" d="m435.04,635.5c-18.3,33.53-31.36,69.09-40.71,106.04-10.01,39.54-14.92,79.79-14.13,120.52,2.13,108.85,36.61,206.3,104.47,291.71,28.71,36.13,62.18,67.18,99.96,93.61,2.06,1.44,3.84,3.62,6.72,3.63,22.92,20.28,45.64,40.79,70.19,59.02-116.64-51.04-203.95-133.38-255.48-249.94-70.94-160.44-56.85-316.57,30.74-466.82.94.07,1.88.14,2.82.21-1.52,14-3.05,28-4.57,42Z"/>
        <path class="cls-7" d="m1084.84,439.7c-23.59-14.62-49.19-24.86-75.3-33.78-42.63-14.57-86.47-22.62-131.57-24.7-83.41-3.84-162.09,13.56-236.62,50.69-4.61,2.3-8.95,5.14-13.42,7.73-13.91,1.56-27.82,3.13-41.74,4.69,85.63-57.32,179.97-84.59,282.41-82.16,93.68,2.23,179.92,29.45,258.01,82.43-13.92-1.63-27.85-3.26-41.77-4.89Z"/>
      </g>
    </g>
    <g>
      <g>
        <path class="cls-1" d="m728.72,1044.97c4.89.62,8-.42,9.85-6.02,3.07-9.3,10.29-15.3,19.7-17.72,18-4.62,31.94-14.48,42.15-29.99,2.41-3.67,6.02-6.56,9.07-9.8,5.72-2.88,11.68-4.98,18.17-5.13,1.35-.03,2.69.52,3.24-1.53,2.55-9.53,10.32-15.55,15.91-22.99,4.71-6.27,12.01-6.35,16.69,0,5.38,7.32,12.59,13.56,14.92,22.86.53,2.1,1.76,2.43,3.6,2.34,13.85-.67,22.93,6.69,30.05,17.65,8.95,13.78,22.09,21.46,37.79,25.21,10.75,4.44,19.95,10.47,23.42,22.52.4,1.39,1.34,1.94,3.07,2.17,7.97,1.03,15.29,4.37,22.76,7.09,9.73,3.54,11.27,9.38,5.24,17.88-1.62,2.29-3.11,4.66-4.66,7-3.92,3.38-5.53,8.78-10.18,11.57-2.38,1.43-.65,3.32-.12,4.99,3.46,10.91,2.21,21.25-5.32,29.92-12.94,14.89-16.85,32.23-15.49,51.29-1.25,10.2-4.76,19.2-13.49,25.42-1.41,1-2.45,2.08-2.08,4.08,1.45,7.74-.15,15.5-.08,23.26.09,8.58-5.03,12.9-13.15,10.87-7.97-2-15.78-4.73-23.45-7.7-2.21-.86-3.53-1.46-5.52.09-5.99,4.66-12.94,6.58-20.46,6.66-5.01-.28-9.65-2.06-14.31-3.67-13.39-4.61-26.77-4.82-40.11,0-13.23,4.79-26.12,6.18-38.16-3.14-.96-.74-1.9-1.33-3.14-.46-6.15,4.3-13.9,4.13-20.47,7.28-14.41,2.93-18.11-.18-18.15-15.21,0-2.57-.18-5.14-.27-7.71,1.33-7.78,1.01-14.33-6.21-20.24-6.02-4.93-8.58-12.95-7.93-21.18,1.42-18.06-3.6-33.91-15.18-47.92-7.57-9.15-9.66-19.72-6.15-31.24.5-1.65,1.7-3.04-.72-4.77-7.69-5.51-11.54-14.19-16.63-21.76-4.23-6.29-1.69-12.32,5.71-15.13,6.6-2.51,13.37-4.59,20.06-6.86Z"/>
        <path class="cls-3" d="m855.96,1095.11c6.76.05,12.88,5.99,12.9,12.52.02,6.59-6.07,12.51-12.87,12.49-6.86-.01-12.68-5.77-12.7-12.55-.02-6.88,5.7-12.52,12.67-12.47Z"/>
        <g>
          <path class="cls-6" d="m859.39,1026.22c-.2-6.48-.64-12.1.91-17.69,4.58-16.45,23.78-21.45,35.82-9.26.99,1,1.99,2.06,2.73,3.24,9.74,15.58,23.74,25.05,41.27,30.27,13.2,3.93,19.71,13.68,17.82,24.43-2.1,11.93-13.51,20.57-26.77,20.26,5.94-15.7,2.76-22.73-13.61-28.26-10.44-3.52-18.89-9.08-25.21-18.35-9.94-14.57-18.52-15.76-32.96-4.65Z"/>
          <path class="cls-6" d="m776.86,1086.61c-.33,2.67-2.38,2.7-3.67,3.57-8.15,5.55-10.48,15.06-5.63,23.62.93,1.64,1.97,3.25,3.2,4.66,8.42,9.59,11.45,20.64,10.61,33.37-.68,10.24,5.14,17.26,13.79,18.37,2.93.38,5.96.06,9.11.06-5.75,14.09-16.94,21.46-28.15,18.86-10.74-2.49-18.06-11.03-17.03-22,1.69-18.02-3.72-33.45-14.64-47.39-3.85-4.91-6.83-10.31-6.82-16.74.02-12.19,9.68-21.36,21.92-21.01,6.19.18,11.84,2.29,17.31,4.64Z"/>
          <path class="cls-6" d="m906.62,1170.18c2.95,0,5.29.08,7.62-.01,9.05-.36,15.98-6.78,15.9-16.53-.12-14.47,3.1-27.06,12.76-38.51,7.63-9.05,3.9-18.75-8.25-26.77,15.56-11.66,35.26-5.49,38.78,12.11,1.09,5.44.09,10.6-3.34,14.71-12.74,15.22-18.24,32.54-17.45,52.38.41,10.43-5.84,18.08-14.84,21-8.82,2.86-17.22.21-23.94-7.77-2.67-3.17-5.5-6.31-7.23-10.6Z"/>
          <path class="cls-6" d="m899.71,1174.77c6.49,7.82,13.37,15.16,10.87,26.4-2.71,12.19-14.58,20.07-26.27,15.87-19.15-6.87-37.64-6.66-56.69.21-8.91,3.21-17.37.12-23.55-7.25-6.25-7.44-5.72-15.61-1.37-23.81,2.22-4.17,5.02-7.91,8.94-12.08.73,2.38,1.25,4,1.73,5.63,2.94,9.98,11.22,14.81,21.31,12.25,3.88-.98,7.72-2.19,11.51-3.5,7-2.41,13.83-2,20.8.29,20.82,6.86,23.95,5.48,32.71-14.03Z"/>
          <path class="cls-6" d="m851.46,1027.66c-2.44-1.81-3.88-2.95-5.38-3.98-8.74-6.01-18.78-4.94-24.77,4.26-7.76,11.91-17.79,19.27-31.56,23.02-11.75,3.2-14.46,12.61-9.01,27.28-10.49-1.88-19.74-4.95-24.77-14.57-4.04-7.74-2.91-15.5,2.37-22.59,2.66-3.57,6.15-6.09,10.37-6.93,19.04-3.82,32.52-15.3,43.19-30.76,4.18-6.06,10.03-9.19,17.15-9.98,9.49-1.06,18.75,5.38,21.46,14.9,1.68,5.91,1.94,11.97.95,19.37Z"/>
          <path class="cls-6" d="m936.17,1105.81c.22,3.84-1.93,7.29-4.41,10.43-6.91,8.71-9.84,18.49-9.3,29.59.43,8.82-2.81,13.68-9.73,16.05-7.4,2.53-13.01-.6-17.29-6.19-7.44-9.72-14.46-19.76-21.77-29.59-1.89-2.54-2.82-4.77-.42-7.51.89-1.02,1.85-2.52,1.78-3.75-.53-10.21,6.99-11.73,14.31-13.85,9.71-2.82,19.22-6.33,28.97-8.95,9.74-2.62,17.95,3.78,17.86,13.78Z"/>
          <path class="cls-6" d="m859.54,1063.74c0-6.14-.23-12.29.07-18.42.34-7.18,3.43-12.83,10.77-14.98,7.15-2.08,12.45.96,16.22,6.93,6.39,10.11,15.64,16.04,26.97,19.3,7.62,2.19,11.46,7.27,11.3,14.26-.17,7.5-4.42,11.23-11.4,13.26-11.08,3.22-22.03,6.94-32.94,10.73-4.14,1.44-6.71-.38-10.49-1.81-13.23-5-10.29-15.39-10.5-25.04-.03-1.42,0-2.83,0-4.25Z"/>
          <path class="cls-6" d="m789.39,1091.69c2.83.1,5.57.53,8.29,1.47,7.11,2.47,14.18,6.19,21.46,6.74,13.39,1.01,16.05,10.98,20.02,20.37.89,2.1-.4,3.63-1.49,5.14-7.43,10.32-14.81,20.67-22.36,30.9-4.13,5.59-9.93,7.24-16.32,4.97-6.1-2.17-9.64-6.98-9.32-13.56.63-12.93-3.38-24.09-11.8-33.75-3.9-4.48-4.03-9.36-1.68-14.43,2.3-4.98,7.24-7.79,13.2-7.85Z"/>
          <path class="cls-6" d="m892.27,1168.84c-.08,11.13-8.81,16.95-20.09,13.57-8.23-2.47-16.35-4.49-24.93-2.44-3.42.82-6.76,1.96-10.17,2.84-6.26,1.61-11.85.45-15.71-5-3.96-5.6-3.78-11.49.26-17.07,7.32-10.1,14.82-20.08,22.06-30.24,1.92-2.7,3.76-3.83,7.05-2.5,1.67.68,4.01,1.27,5.47.62,7.29-3.31,10.56,1.19,14.12,6.27,5.94,8.48,12.25,16.71,18.46,25,2.19,2.92,3.68,6.01,3.48,8.95Z"/>
          <path class="cls-6" d="m851.24,1063.22c0,3.07-.7,6.34.12,9.16,3.69,12.64-7.23,16.38-13.53,22.92-1.4,1.45-3.12.31-4.65-.17-12.57-3.94-25.17-7.81-37.69-11.91-6.01-1.97-9.34-6.53-9.33-12.79.01-6.1,2.7-11.37,8.79-13.23,13.08-4,23.69-10.83,31.57-22.36,3.55-5.19,9.7-6.43,15.94-3.85,6.16,2.55,8.97,7.24,8.87,13.85-.09,6.13-.02,12.26-.02,18.39-.02,0-.05,0-.07,0Z"/>
          <path class="cls-6" d="m752.68,1073.91c-4.83,1.1-9.16.93-11.94,2.93-8.18,5.86-11.43.87-15.28-5.3-5.06-8.11-5.34-7.94,3.44-10.86,1.11-.37,2.28-.65,3.3-1.19,5.24-2.77,8.85-2.19,11.18,4.02,1.55,4.12,5.44,6.86,9.29,10.4Z"/>
          <path class="cls-6" d="m855.56,999.4c-2.85-6.35-7.28-10.96-10.75-16.07-3.9-5.74,4.78-8.44,6.92-13.08.69-1.49,2.25-5.75,4.68-3.34,4.13,4.08,7.19,9.26,10.54,14.08,1.16,1.68-.71,2.46-1.67,3.28-4.6,3.89-7.32,9.01-9.72,15.13Z"/>
          <path class="cls-6" d="m989.96,1064.07c-3.59,4.98-6.95,9.46-10.07,14.09-1.53,2.27-2.95,2.4-5.15.97-4.86-3.17-10.34-4.34-17.27-4.29,4.86-5.33,9.63-9.76,11.84-15.96.84-2.37,2.77-1.16,4.18-.68,5.31,1.81,10.57,3.76,16.46,5.88Z"/>
          <path class="cls-6" d="m792.55,1193.19c-1.48,6.48-2.02,12.23-.72,18.1.66,2.97-9.21,7.88-16.36,8.31-5.24.31-2.55-3.76-3.28-5.94-.07-.21,0-.47-.01-.7-.08-11.7-.05-11.63,10.67-15.38,3.07-1.07,5.96-2.68,9.7-4.38Z"/>
          <path class="cls-6" d="m918.49,1193.58c6.28,2.93,11.59,5.46,17.51,5.97,2.07.18,2.94,1.15,2.82,3.14-.01.23.01.47,0,.71-.24,5.38,1.33,14.08-1.12,15.42-4.68,2.55-10.84-2.3-16.53-3.51-1.99-.42-2.76-1.79-2.15-3.68,1.86-5.75,1.09-11.52-.53-18.05Z"/>
        </g>
      </g>
      <g>
        <g>
          <path class="cls-2" d="m1156.6,1107.62c-26.34-31.86-52.61-63.78-79.03-95.58-28.68-34.53-57.49-68.94-86.21-103.43-1.65-1.98-3.01-4.21-4.5-6.32,39.73,0,79.46,0,119.19,0,6.26,2.63,9.24,8.61,13.21,13.41,24.44,29.54,48.83,59.12,73.44,88.51,1.82,2.17,3.64,4.33,4.29,7.2-5.46,23.16-14.26,45.1-24.44,66.51-4.82,10.15-9.85,20.21-15.95,29.69Z"/>
          <path class="cls-2" d="m999.7,1076.52c14.48,17.24,29.02,34.44,43.44,51.73,15.33,18.39,30.57,36.87,45.8,55.35,1.63,1.98,2.91,4.24,4.35,6.38-19.51,21.48-41.29,40.36-65.17,56.84-12.79-12.62-23.5-27.01-34.84-40.86-8.8-10.75-18.62-20.7-26.12-32.52-2.09-16.78,1.05-32.43,11.44-45.93,8.17-10.61,13.33-21.38,8.82-35.14-1.44-4.41,6.06-13.32,12.27-15.87Z"/>
          <path class="cls-2" d="m854.87,1334.68c-.88-.16-1.77-.33-2.65-.49-23.16-28.76-46.9-57.03-70.54-85.39-2.26-2.71-4.44-5.49-6.56-8.3-1.14-1.5-2.28-3.17-.36-4.98,6.1-3.78,13.44-4.22,19.77-7.4,2.15-1.08,4.13.33,5.88,1.51,8.65,5.78,18.46,7.33,27.72,3.72,20.93-8.18,41.05-5.84,61.22,1.95,4.66,1.93,6.79,6.43,9.82,9.97,13.35,15.6,26.25,31.56,39.23,47.46,1.43,1.75,3.56,3.28,3,6.07-21.9,11.02-44.55,20.25-67.54,28.7-6.35,2.33-12.65,4.79-18.98,7.19Z"/>
          <path class="cls-2" d="m856.33,902.29c4.39,8.1,11.16,14.35,16.88,21.4,17.57,21.67,35.48,43.06,53.3,64.52,7.79,9.38,15.68,18.68,23.47,28.07.87,1.05,4.06,2.53-.11,3.58-1.15,1.13-2.59,1.26-3.96.8-11.77-3.98-22.84-9.15-30.92-19.08-3.13-3.85-5.92-7.96-8.99-11.87-5.08-6.47-11.63-10.49-19.95-10.59-5.5-.06-8.51-2.37-10.73-7.35-3.09-6.93-8.27-12.64-12.94-18.55-4.22-5.33-9.99-5.22-14.46.15-5.56,6.69-11.95,12.84-15.32,21.12-.91,2.24-2.31,3.38-4.73,3.53-6.19.38-11.91,2.81-17.85,4.31-7.33-3.57-11.02-10.77-15.96-16.59-15.73-18.52-30.93-37.49-46.59-56.08-1.79-2.13-4.08-4.09-3.18-7.4,32.66-.09,65.31-.17,97.97-.27,4.23-.01,8.45-.13,12.68-.2.47.16.93.33,1.4.5Z"/>
          <path class="cls-2" d="m755.76,1214.06c-14.16-16.93-28.36-33.83-42.47-50.8-14.88-17.9-29.67-35.88-44.5-53.82-15.13-18.31-30.24-36.63-45.39-54.91-16.8-20.28-33.67-40.52-50.46-60.81-17.24-20.83-34.43-41.7-51.63-62.57-7.93-9.62-15.83-19.26-23.74-28.89,38.35.01,76.7.02,115.05.03,6.31,2.58,9.36,8.55,13.36,13.36,33.76,40.61,67.48,81.25,101.08,121.98,2.16,2.62,5.64,5.16,1.4,8.86-5.17,2.95-11.05,4.02-16.52,6.17-9.27,3.64-10.94,8.73-5.14,16.86,4.22,5.93,7.62,12.52,13.22,17.4,2.44,2.12,2.88,4.7,1.99,7.68-3.32,11.15-.07,20.88,6.49,29.9,3.74,5.14,7.64,10.17,10.05,16.16,3.47,8.64,5.55,17.47,4.83,26.87-.91,11.78,2.88,21.71,11.74,29.74,5.77,5.23,2.59,11.12.64,16.81Z"/>
        </g>
        <g>
          <path class="cls-8" d="m1156.6,1107.62c-16.77,29.63-37.46,56.3-60.98,80.84-.63.65-1.55,1.02-2.33,1.52-9.2-7.47-15.73-17.34-23.18-26.33-22.05-26.62-44.3-53.07-66.21-79.81-1.94-2.36-4.06-4.59-4.87-7.67.24-3.26,2.49-5.52,4.1-8.08,4.55-7.24,3.33-11.57-4.73-14.79-6.78-2.71-13.72-5.05-20.81-6.82-2.67-.67-5.01-1.48-5.99-4.27-3.35-9.59-10.28-15.54-19.4-19.32-1.1-.46-2.05-1.15-2.56-2.29-2.48-7.64-8.72-12.62-13.58-18.47-25.98-31.22-51.69-62.66-77.81-93.76-1.43-1.7-3.7-3.3-1.92-6.09,43.51,0,87.02,0,130.53,0,7.55,4.82,12.08,12.5,17.59,19.16,35.82,43.28,71.68,86.51,107.52,129.77,13.85,16.72,27.63,33.51,41.63,50.11,1.55,1.84,2.79,3.81,3,6.28Z"/>
          <path class="cls-8" d="m941.39,1298.79c-17.01-20.61-34.02-41.22-51.02-61.83,6.91-3.43,14.72-4.64,21.36-8.82,1.93-1.22,4.09.15,6.09.88,6.66,2.44,13.4,4.7,20.26,6.43,8.62,2.17,12.86-1.05,12.73-9.78-.1-7.1,1.18-14.12.79-21.22-.14-2.53.8-4.78,2.63-6.35,6.74-5.77,10.57-13.17,12.66-21.63.23-.93.88-1.65,1.69-2.19,9.68,11.41,19.39,22.8,29.02,34.25,9.64,11.47,19.23,22.98,28.77,34.54.85,1.03,1.18,2.49,1.75,3.75-21.47,16.92-45.15,30.31-69.07,43.31-5.75,3.13-11.77,5.78-17.66,8.66Z"/>
          <path class="cls-8" d="m1196.99,1011.42c-12.37-14.69-24.8-29.32-37.1-44.07-14.87-17.84-29.63-35.77-44.44-53.66-3.14-3.79-6.27-7.59-9.41-11.39,33.93-.08,67.86-.13,101.79-.27,3.1-.01,4.89.56,4.54,4.26-3.35,35.31-4.91,70.88-15.38,105.14Z"/>
          <path class="cls-8" d="m774.18,1236.98c25.49,30.83,50.97,61.66,76.46,92.49,1.15,1.39,3.09,2.47,1.57,4.72-20.68-5.86-40.48-14.2-60.09-22.75-34.95-15.23-68.54-33.16-99.9-55.02-18.17-12.66-35.39-26.43-52.16-40.98-38.15-33.11-69.54-71.75-93.54-115.78-23.58-43.25-40.07-89.4-44.93-139.02-1.7-17.38-3.64-34.73-5.26-52.11-.19-2.03-1.67-4.72,1.24-6.3,5.71,2.55,8.57,8.01,12.27,12.48,33.25,40.21,66.65,80.32,99.85,120.57,27.79,33.7,55.72,67.29,83.49,101.01,19.37,23.51,38.83,46.94,58.26,70.4,2.11,2.55,4.25,5.08,5.49,8.21.8,2.76.54,5.6.67,8.41.45,9.89,3.03,12.42,12.73,12.5,1.41.01,2.85-.17,3.84,1.16Z"/>
          <path class="cls-8" d="m728.72,1044.97c.35-6.25-5.25-8.87-8.35-12.72-21.8-27-43.99-53.68-66.16-80.39-13.78-16.6-27.72-33.07-41.59-49.6,43.89,0,87.78,0,131.67,0,7.44,11.14,16.79,20.75,25.17,31.13,13.09,16.22,26.67,32.05,40.04,48.05-10.05,15.3-20.37,30.32-38.56,37.18-2.64,1-5.31,1.95-8.02,2.72-11.01,3.13-19.39,9.18-23.83,20.18-1.92,4.75-5.26,7.26-10.36,3.45Z"/>
        </g>
      </g>
      <g>
        <path class="cls-7" d="m1046.64,870.72c-3.67-5.23-7.12-10.51-7.37-17.26-.23-6.39,2.46-11.33,6.93-15.6,8.78-8.38,16.28-17.69,20.25-29.38,2.41-7.1,1.67-7.75-5.7-6.49-26.88,4.62-53.77,9.17-81.06,10.7-3.09-7.52-1.99-11.02,5.22-13.95,14.01-5.7,28.52-10.07,42.79-15.04,14.5-5.05,28.93-10.35,43.54-15.08,4.96-1.6,6.49-3.74,3.55-8.69-19.31-32.49-22.51-67.57-16.3-104.09.32-1.86.24-3.77.66-5.62.22-1.15.53-2.29.78-3.44,1.14-5.25-.63-6.09-5.47-4.34-22.39,8.09-44.94,15.73-67.46,23.43-3.07,1.05-6.52,3.58-9.72-.08-1.36-3.14-1.03-6.47-1.03-9.73-.03-19.96,0-39.92-.02-59.88-.01-10.6-.35-10.84-10.09-7.63-3.12,1.03-6.24,2.07-9.36,3.08-3.44.67-5.12,4.03-8.14,5.34-6.31,2.9-12.94,4.89-19.68,6.55-.86.42.57,1.39,0,.63-.21-.29-.08-.46.34-.62,4.03-1.57,8.25-1,12.41-1.21,7,1.67,11.88-1.98,16.43-6.51,14.21-2.83,15.25-2.02,15.25,12.04.02,39.41.71,78.83-.28,118.22-.53,21.21-.9,42.42-1.19,63.64-.02,1.65-.14,3.3-.66,4.89-.87,2.67-2.39,3.31-4.71,1.56-.95-.72-1.78-1.58-2.41-2.57-11.9-19.04-23.6-38.18-28.73-60.42-2.9-12.58-1.87-25.34-1.31-38.05.98-5.45,2.74-10.84,1.25-16.49-15.37-20.06-24.18-42.18-21.34-67.95-.12-2.12.12-4.33-1.45-6.12-12.34-15.89-17.38-33.46-12.3-53.35.87-2.67,2.05-5.52-2.91-3.87-8.3,2.76-16.34,6.24-24.75,8.66-2.85.82-5.83,2.53-8.56-.38-2.18-7.32-.87-14.82-1.05-22.23-.25-10.3-.08-10.3-9.54-7.19-3.1,1.02-6.19,2.07-9.29,3.09-3.2.72-4.99,3.53-7.58,5.14-.98.63-2.03,1.11-3.12,1.51-4.79,1.77-9.66,3.29-14.51,5,5.26-1.13,10.6-.87,15.92-.96,4.6,1.05,6.19-3.62,9.5-5.02,4.42-.91,8.76-3.04,13.37-.81,3.66,7.91,1.99,16.14,1.15,24.23-.37,3.49-4.15,4.23-7.03,5.16-10.8,3.46-21.31,7.71-32.1,11.16-5.03,1.61-8.51,4.64-11.2,9.12-8.09,13.51-10.72,27.68-5.13,42.68,1.31,3.52,1.9,8.8,8,7.86,10.53-11.54,24.46-16.67,38.98-20.47,18.99-4.97,38.18-8.88,57.97-8.48,4.6,1.36,4.26,3.35.36,5.04-5.2,2.25-10.53,4.23-15.91,5.98-22.47,7.3-44.34,16.48-67.11,22.68-23.24,6.33-30.71,21.61-27.03,43.78,1.64,9.92,5.28,19.09,10.42,27.67,1,1.67,1.77,4.16,4.7,3.22,19.44-19.02,43.97-26.41,69.86-30.59,12.52-2.02,25.03-4.18,37.77-4.33,3.34.56,8.95-1.26,9.44,2.3.58,4.14-5.26,4.21-8.54,5.39-35.09,12.65-70.54,24.24-105.72,36.63-5.51,1.94-9.52,5.1-11.99,10.23-5.43,11.25-9.22,22.77-5.72,35.49.62,2.25,1.14,4.61.35,6.98-.56,1.14-1.36,1.88-2.75,1.59-6.91-8.46-9.73-18.71-12.41-28.95-2.71-10.32-4.49-20.79-2.9-31.53.67-5.25,2.81-10.38,1.42-15.82-16.12-16.11-20.97-35.8-18.42-57.85.77-2.75,1.57-5.37-3.13-3.79-6.85,2.29-13.44,5.3-20.39,7.28-2.82.81-5.77,2.41-8.47-.39-2.37-7.82-.69-15.84-1.13-23.75-.2-3.51-.13-7.04-.02-10.55.14-4.8-1.65-6.57-6.38-4.63-4.56,1.87-9.22,3.46-13.82,5.21-2.98,1.28-4.71,4.28-7.66,5.6-5.79,2.54-11.72,4.7-17.18,5.71,5.8-.64,12.54.07,19.05-1.78,3.46-.26,4.59-4.04,7.57-5.04,4.47-.6,8.92-1.97,13.47-.55,3.29,10.37,1.79,20.94.95,31.42-.27,3.38-3.75,4.59-6.69,5.64-8,2.87-16,5.86-24.12,8.25-9.26,2.73-14.9,8.41-18.37,17.06-4.87,12.13-7.08,24.47-3.72,37.35,1.13,4.34,2.65,8.59,6.54,11.38,5.36-1.57,8.87-6.04,13.68-8.55,14.7-7.67,30.66-10.87,46.67-14.05,12.07-2.4,24.32-3.33,36.53-4.59,1.67-.17,3.31-.09,4.74.96.67,5.28-3.98,5.03-6.79,5.96-23.09,7.58-45.82,16.23-68.99,23.57-6.98,2.21-13.77,4.94-20.7,7.26-4.96,1.66-7.76,4.85-9.68,9.49-7.95,19.19-1.56,43.09,15.73,58.22,7.78-2.26,14.59-7.08,22.63-8.56,3.27-.6,6.56-3,9.95-.29.08,5.9-.2,11.83.33,17.69.52,5.7-1.79,6.85-6.91,6.19-22.44-2.89-44.8-6.26-67.05-10.38-26.91-4.98-53.66-10.49-79.55-19.57-1.76-.62-3.64-1.96-4.72.73-1.3,3.23,1.54,3.31,3.36,4.07,19.13,8.05,38.47,15.63,57.15,24.73,2.31,1.12,4.89,2.21,6.57,4.03,12.65,13.73,22.34,29.6,32.8,44.95-2.33,2.17-4.54,1.4-6.51,1.4-52.91.05-105.83-.04-158.74.16-5.74.02-7.62-1.41-7.78-7.39-1.01-38.01-1.34-76.03.25-114,3.3-78.55,11.67-156.54,27.71-233.61.97-4.68,2.76-6.45,7.59-7.33,45.72-8.32,91.75-14.19,138.02-18.37,38.55-3.48,77.15-5.77,115.82-7.33,24.08-.98,48.17-.36,72.23-1.35,5.22-.49,10.44-.1,15.67-.22,6.57.25,13.16-.54,19.71.46,8.85.14,17.71.27,26.56.41,5.73,1.48,11.65-.31,17.39.99,6.5.14,13,.28,19.5.43,3.81,1.39,7.88-.22,11.7.99,4.62.14,9.24.28,13.86.42,3.31,1.38,6.91-.17,10.24.99,4.16.14,8.31.28,12.47.42,2.34,1.23,5.02-.03,7.39.99,3.68.14,7.36.29,11.04.43,2.34,1.24,5.03-.05,7.4,1.01,43.78,4.15,87.46,9.18,130.91,16.05,7.59,1.2,15.15,2.68,22.69,4.18,2.77.55,4.69,1.55,5.46,5.2,5.62,26.46,10.37,53.07,13.96,79.88,2.91,21.78,5.63,43.59,8.3,65.4.86,6.98,1.31,14.02,1.94,21.03.98,2.39-.22,5.06.96,7.43.15,3.2.29,6.39.44,9.59,1.06,2.89-.27,6.04.95,8.91.15,4.59.3,9.18.45,13.78,1.08,2.89-.26,6.04.96,8.92.15,6.95.3,13.91.45,20.86,1.26,4.79-.45,9.78.98,14.56,0,26.18,0,52.36,0,78.54-1.44,5.26.29,10.72-.98,15.99-.12,3.69-.24,7.39-.35,11.08-1.53,1.67-3.54.97-5.34.97-52.54.04-105.09.04-157.63,0-1.83,0-3.79.56-5.45-.8Z"/>
        <g>
          <path class="cls-7" d="m735.77,795.72c22.78-3.04,45.44-.47,68.11,1.51,4.7-.06,8.05,1.94,10.79,5.88,2.9,4.16,6.3,7.98,9.19,12.17,4.95-1.71,7.18-6.87,11.8-9.17,6.07-3.02,12.12-5.87,19.23-7.1,0,9.09,0,17.76,0,26.43-26.43.49-52.85.65-79.26-.87-11.54-.66-23.08-1.42-34.63-1.75-4.35-.12-5.77-1.65-5.57-5.88.34-7.07.24-14.15.33-21.23Z"/>
          <path class="cls-7" d="m864.95,825.44c.02-8.04.21-16.08-.03-24.1-.12-4.01,1.5-5.25,5.28-5.65,32.39-3.45,64.02,1.5,95.53,8.26,6.98,1.5,3.07,6.63,4.07,10.14-20.35,1.94-40.67,2.53-60.52,9.54-13.94,4.93-29.49,1.87-44.33,1.81Z"/>
        </g>
      </g>
      <g>
        <g>
          <path class="cls-4" d="m935.92,693.63c-5.06,39.4,11.26,71.85,34.03,104.38,0-3.96-.02-5.97,0-7.99.56-61.86,1.03-123.72,1.8-185.57.08-6.43-.52-10.06-8.1-7.51-1.95.66-4.21.41-6.33.58-4.44-.96-3.51-4.12-2.92-7.14,6.02-2.07,12.15-3.85,18.01-6.31,4.94-2.07,5.91-.6,5.9,4.29-.03,25.97.21,51.95.36,77.92,1.02,1.65,1.45,3.44,1.54,5.37,1.53,34.64,1.72,69.31,1.46,103.97-.02,2.35-.9,4.56-1.06,7.51-.04.32,1.64-.17.7-.28-.14-.02-.17-.1-.2-.23-.56-3.2,1.09-5.8,2.31-8.52,5.87-13.09,14.75-24.1,24.13-34.74,22.16-25.14,37.9-53.94,48.87-85.48.74-2.13.58-5.3,4.15-5.39.07,0,.18.34.21.53.03.23,0,.47-.02.71-.93,12.46-2.86,24.81-3.1,37.35-.53,26.96,6.45,51.79,20.49,74.64,2.85,4.63,2.02,5.87-2.86,7.52-28.53,9.65-56.87,19.87-85.44,29.4-7.37,2.46-12.09,5.51-10.16,14.06-3.07,2.03-6.54,1.23-9.88,1.39-1.97-7.25-7.49-9.02-14.16-10.27-21.3-3.98-42.7-6.73-64.36-7.46-5.44-.18-10.78.57-16.15,1.26-7.66.98-7.98,1.26-8.13,9.22-.07,3.76.02,7.53-.05,11.29-.05,2.6-.12,5.2-1.98,7.31h-.21c-3.22,1.13-6.43,1.13-9.65,0h-.2c-3.41-5.69-1.56-11.96-1.67-17.95-.09-5.14-1.8-6.24-6.37-4.5-6.22,2.37-12.04,5.34-16.92,9.96-1.65,1.56-2.97,3.85-5.87,3.12-3.58-7.12-2.35-13.19,4.29-19.38,4.14-3.86,8.83-7.06,13.71-9.96,8.3-4.94,16.69-9.74,25.23-14.25,29.81-15.73,48.8-40.79,61.53-71.26,1.27-3.05,2.33-6.18,3.68-9.19.54-1.22,1.21-3.13,2.78-2.57,2.07.73,1.23,2.63.64,4.17Z"/>
          <path class="cls-4" d="m724.42,797.2c-10.86,1.86-21.55,4.18-30.32,11.56-.74.62-1.61.94-2.36-.09-3.08-5.77-.82-10.44,3.05-14.76,7.89-8.84,18.22-14.35,28.58-19.26,25.6-12.11,43.12-31.44,54.05-57.2.46-1.09.92-2.18,1.62-3.14.81-1.1,1.64-2.85,3.15-2.19,1.95.84,1.08,2.76.68,4.32-1.68,21.71,4.61,41.55,14.15,60.64,2.98,1.72,3.82,4.99,5.55,7.63,1.18,2.23,2.55,4.36,3.71,6.6,2.23,4.3,1.26,7.04-3.86,7.7-17.19-.59-34.25-3.29-51.52-2.66-5,.18-10.25,2.88-15.14-.63-3,5.2-.86,10.86-1.44,16.28-.2,1.85-.11,3.74-.04,5.6.15,4.14-3.32,4.28-5.77,4.58-3.33.41-2.31-2.67-2.55-4.55-.88-6.79,1.77-13.84-1.55-20.44Z"/>
          <path class="cls-4" d="m813.87,716.42c-3.32-3.3-.67-6.13.94-8.78,5.95-9.73,15.47-15.54,24.53-21.83,15.79-10.96,33.33-19.42,47.29-33.02,11.77-11.47,20.81-24.77,27.22-39.88.44-1.04,1.28-1.92,1.93-2.88-3.06,25.9,6.23,47.92,21.42,68.07-4.82,3.08-10.72-.59-15.54,2.46-25.05,2.17-50.01,4.87-73.77,13.89-12.91,4.9-24.44,11.93-34.02,21.97Z"/>
          <path class="cls-4" d="m680.4,730.66c-1.17-11.27,6.15-17.79,13.74-23.9,11.9-9.57,24.93-17.6,36.87-27.17,12.69-10.17,22.17-22.89,31.35-35.99.62-.89.96-5.5,3.41-.97-2.3,22.03,3.12,41.66,18.18,58.28-.49.45-.97.91-1.46,1.36-24.48,1.55-48.65,4.85-72.12,12.34-10.21,3.26-19.79,7.5-27.2,15.62-.72.79-1.6,1.95-2.78.43Z"/>
          <path class="cls-4" d="m812.13,636.77c-3-4.95.75-7.87,3.46-10.92,8.59-9.67,19.86-15.84,30.9-21.92,21.81-12.01,38.73-28.69,51.51-49.89.77-1.28.79-4.58,4-3.49-4.97,20.05.17,37.77,12.44,53.84-1.24,2.23-4.16.56-5.56,2.41-25.49,1.3-50.52,5.08-74.42,14.49-8.6,3.39-16.59,7.87-22.35,15.47Z"/>
          <path class="cls-4" d="m629.53,787c-13.42-8.26-16.1-15.37-9.58-33.79,9.68-27.36,26.18-50.97,43.45-74.01.15-.2,1.13.22,1.72.35-7.89,17.42-14.28,35.27-17.54,54.24-2.95,17.2-2.35,34.32-.28,51.45.56,4.64-.64,5.48-4.64,4.59-4.37-.98-8.75-1.89-13.13-2.83Z"/>
          <path class="cls-4" d="m733.02,646.78c-4.14,3.21-5.97,2.51-5.75-3.03.27-6.76.21-13.54.07-20.3-.04-2.1,1.25-4.8-1.77-6.12-4.59.52-9.18,1.04-13.77,1.56-3.11-1.65-3.74-4.25-2.83-7.44,7.44-3.48,15.26-5.8,24.05-8.43v43.76Z"/>
          <path class="cls-4" d="m864.82,556.15c-4.21,3.72-5.58,2.68-5.82-2.82-.27-6.14,2.13-12.51-1.3-18.42-4.68.5-9.36,1-14.05,1.5-3-2.39-3.62-5.18-1.42-8.44,7.26-2.46,14.53-4.92,22.59-7.65v35.84Z"/>
          <path class="cls-4" d="m835.14,541.61c-7.18.47-14.36.95-21.53,1.42-.17-.64-.34-1.27-.5-1.91,7.8-2.58,15.61-5.17,23.41-7.75,2.42,3.23,4.58,6.41-1.37,8.24Z"/>
          <path class="cls-4" d="m706.08,624.13c-8.12,1.67-16.34,1.34-25.03.08,7.35-2.45,14.71-4.9,22.06-7.35,4.21,1.11,4.26,3.91,2.97,7.27Z"/>
          <path class="cls-4" d="m941.51,604.02c-4.81.24-9.62.48-14.42.71-.13-.57-.27-1.14-.4-1.71,7.29-2.44,14.57-4.88,21.86-7.32,3.63.29,3.8,3.11,3.52,5.58-.34,3.03-3.1,2.06-5.04,2.24-1.84.17-3.73-.31-5.51.5Z"/>
          <path class="cls-4" d="m854.92,462.54c33.56-.84,67.09.47,100.61,1.88,32.09,1.35,64.13,3.62,96.12,6.51,50.33,4.54,100.39,11.01,150.12,20,4.34.78,5.49,3.33,6.44,7.08,9.63,37.77,16.64,76.04,22.25,114.57,11.14,76.59,16.19,153.6,14.06,230.97-1.36,49.34-3.71,98.73-13.34,147.27-12.91,65.06-41.81,123.07-81.42,175.83-61.68,82.17-142.3,139.81-235.76,180.58-17.52,7.64-35.36,14.49-53.44,20.68-2.7.93-5.48,3.19-8.64,1.04,1.87-10.5,0-21.2,1.62-31.71,1.3-3.59,4.62-4.43,7.7-5.54,26.8-9.67,53.24-20.22,78.93-32.56,30.58-14.68,59.61-31.97,87.09-51.86,23.58-16.82,45.23-35.85,65.11-56.9,24.93-24.66,45.5-52.67,63.3-82.78,15.66-27.12,28.27-55.56,37.22-85.6,1.08-3.63,1.91-7.31,2.88-10.97,8.48-31.68,10.85-64.24,14.06-96.67.74-7.42-.35-8.67-8.13-8.69-32.14-.05-64.27-.12-96.42.04-39.47.02-78.92.21-118.38-.07-41.3.25-82.6.09-123.9.09-2.13,0-4.25-.15-6.3-.79-.91-.32-1.69-.84-2.37-1.53-3.09-8.73-1.71-17.67-1.06-26.54.24-3.28,2.8-4.7,5.93-5,2.82-.27,5.65-.19,8.48-.19,41.25-.11,82.51.22,123.73-.19,4.32.46,8.72.07,13.06.71.93.14,1.63.18.69.08-.06,0-.11-.08-.28-.13-11.86-3.54-23.32-7.93-35.13-11.3-11.15-3.18-22.58-4.96-33.95-7.07-5.13-1.04-10.25-1.93-15.21.73-17.36,12.46-37.09,11.04-56.59,8.88-21.08-2.34-41.49-8.88-62.67-11.02-8.76-.88-16.47-1.72-23.85,5.96-6.37,6.63-16.27,6.64-25.43,5.5-3.02-.98-6.13-1.11-9.26-.9-25.94-2.76-49.73-10.62-68.85-29.34-2.64-2.58-5.62-4.17-9.15-5.02-8.49-2.05-16.8-4.71-25.21-7.04-2.05-.57-4.12-1.12-5.87-2.38-2.01-1.44-3.82-3.4-2.82-5.89.97-2.42,3.57-1.75,5.64-1.38,16.69,3.01,33.31,6.43,50.08,9.04,21.9,3.42,43.9,5.85,66.01,7.39,3.08,1.06,6.25.94,9.43.74,6.25.13,12.52-.46,18.74.55,4.88,1.61,9.91.82,14.89.97,3.91-.05,7.82.17,11.72-.24,28.66-.08,57.32,0,85.97-.02,2.88.3,5.77.32,8.66.17,8.24-1.3,15.76-4.88,23.55-7.6,2.9-1.01,5.81-2,8.93-2.13,3.43-.11,6.9.18,10.23-1.01,3.92-.74,7.87-.58,11.82-.54,3.1.08,6.2.24,9.2-.81,28.71-2.19,57.21-5.91,85.5-11.33,2.81-.54,5.96-1.03,7.97,1.44,2.33,2.86.38,5.84-.86,8.61-3.25,7.27-8.61,12.92-14.21,18.39-6.27,6.13-9.54,13.47-8.36,22.35.74,5.56,2.57,10.6,8.21,13.19,3.01.97,6.1.61,9.15.61,49.76.03,99.52.03,149.27,0,3.01,0,6.17.67,8.9-1.26,2.75-2.81,1.48-6.63,2.47-9.87,1.39-5.34.75-10.74.56-16.13-.07-25.85-.12-51.69-.02-77.53.28-5.13.8-10.27-.71-15.32-1.04-6.74-.47-13.53-.6-20.29.26-3.24.33-6.47-.75-9.62-.83-4.4-.54-8.85-.6-13.29.19-3.13.29-6.25-.76-9.28-.64-3.12-.59-6.28-.62-9.44.26-2.78-.1-5.5-.92-8.16-4.86-43.4-9.44-86.82-17.39-129.81-1.85-9.99-4.14-19.89-5.72-29.92-.96-6.09-4.12-8.76-10.07-9.87-29.96-5.59-60.15-9.57-90.38-13.33-18.96-2.36-38.07-3.4-56.99-6.19-2.67-.79-5.38-1.22-8.17-.95-3.55-.05-7.11.11-10.62-.58-2.63-.86-5.33-1.04-8.07-.83-3.99-.05-7.99.19-11.94-.57-3.47-1.18-7.05-.98-10.63-.81-4.5-.06-9.02.25-13.49-.57-3.98-1.33-8.08-.98-12.17-.8-6.36-.13-12.74.45-19.07-.56-5.82-1.71-11.76-.89-17.67-.82-8.71-.18-17.44.58-26.13-.55-6.72-1.95-13.6-.71-20.4-1.03-5.18-.48-10.56,1.11-15.55-1.45-1.99-2.17-2.01-4.87-2.06-7.57.63-4.25-1.07-8.88,2.05-12.73Z"/>
        </g>
        <g>
          <path class="cls-3" d="m823.86,815.28c-4.74-2.74-7.83-7.2-10.91-11.43-2.44-3.35-5.29-5.45-9.07-6.62,3.49-.53,2.45-2.46,1.36-4.4-1.56-2.77-4.03-5.09-4.19-8.54-1.21-2.73-2.34-5.49-2.67-8.49-4.8-15.79-2.92-30.75,5.46-44.95,2.59-4.38,5.83-7.42,11-9.16,37.33-12.59,74.54-25.53,111.78-38.37,1.28-.44,2.53-1.01,3.68-2.75h-8.64c4.44-5.49,10.19-2.7,15.54-2.46,1.82,5.36,0,10.43-1.29,15.53-.1-.7.05-1.65-.35-2.05-2.03-2.04-1.32.79-1.42,1.07-5.11,14.24-11.91,27.61-20.21,40.24-12.45,18.96-29.51,32.57-49.35,43.15-10.76,5.74-21.48,11.57-31.38,18.86-7.17,5.28-10.84,11.46-9.35,20.38Z"/>
          <path class="cls-3" d="m1060.76,649.73c-5.17,8.4-7.24,18.1-11.22,27.02-9.98,22.34-22.46,43.04-38.54,61.48-12.23,14.03-23.65,28.55-31.33,45.97,0-21.87-.16-43.74.05-65.61.17-17.46-2.53-34.84-1.04-52.32,21.07-5.9,41.37-14.08,62.13-20.92,6.9-2.27,13.74-4.73,21.27-7.34.14,4.35.75,8.12-1.31,11.7Z"/>
          <path class="cls-3" d="m782.88,716.45c-.24-1.12-.48-2.23-.98-4.57-5.04,12.06-10.4,22.66-17.68,32.25-9.55,12.59-21.12,22.55-35.32,29.55-9.06,4.47-17.95,9.34-26.14,15.26-6.62,4.78-12.42,10.34-11.02,19.74-18.69-14.96-26.05-42.63-16.91-62.96,2.05-4.56,4.91-7.43,9.9-9.1,30.57-10.26,61.01-20.88,91.51-31.35,2.21-.76,4.54-1.23,6.26-2.99.05-.92.85-1.04,1.46-1.36,2.17,5.35-.06,10.4-1.07,15.54Z"/>
          <path class="cls-3" d="m914.45,604.39c2.13,1.48,1.93,3.51,1.34,5.64-7.39,24.35-23.2,42.31-43.59,56.57-14.7,10.28-30.6,18.79-44.71,29.95-6.55,5.18-12.55,10.88-13.62,19.88-2.09,2.78-3.14.42-4.04-.98-10.05-15.67-16.52-32.39-12.95-51.38,2.11-11.26,7.8-19.62,19.65-23.54,29.5-9.76,58.78-20.18,88.15-30.33,1.78-.62,3.85-.83,5.28-1.9,1.34-1-.65-.99-1.07-1.5.67-3.53,3.36-2.41,5.56-2.41Z"/>
          <path class="cls-3" d="m812.13,636.77c-4,.97-5.59.43-8.16-4.32-6.14-11.32-6.97-23.25-3.37-35.55,1.67-5.7,4.47-10.86,7.43-15.98,2.25-3.89,5.3-6.24,9.61-7.64,11.86-3.87,23.57-8.21,35.42-12.12,3.39-1.12,4.96-2.67,4.78-6.46-.31-6.59-.12-13.2-.14-19.8,3.83.24,3.01,3.39,3.27,5.6.37,3.24.14,6.53.14,9.81,0,2.77.45,5.18,3.72,5.84,13.27-2.67,25.39-8.94,38.95-12.58.17,2.66-.16,4.94-1.76,6.98-15.36,29.47-40.8,48-68.95,63.63-6.02,3.34-11.37,7.63-16.01,12.73-2.56,2.81-4.88,5.77-4.92,9.86Z"/>
          <path class="cls-3" d="m680.4,730.66c-10.1-8.76-10.41-20.54-9.54-32.43.37-5.1,1.54-10.28,3.21-15.12,3.86-11.21,9.2-20.82,22.63-23.5,8.45-1.68,16.46-5.54,24.73-8.23,2.71-.88,4.72-1.8,4.59-5.16-.37-9.63.91-19.28-.44-28.89,4.7-.25,3.38,3.6,3.57,5.83.48,5.64.14,11.32.18,16.99.02,2.88-.13,5.86,3.7,6.62,9.84-1.67,18.73-6.27,28.22-9.02,1.73-.5,3.82-2.27,5.13-.97,1.58,1.58.61,3.96-.61,5.83-3.33,2.39-4.94,6.17-7.13,9.39-11.85,17.48-27.51,30.88-44.78,42.6-5.46,3.7-10.67,7.76-16.09,11.51-8.84,6.1-15.03,13.91-17.37,24.54Z"/>
          <path class="cls-3" d="m629.53,787c-18.26-1.89-36.4-5.09-54.9-4.01-5.55.32-2.32-3.41-1.53-5.14,7.83-17.01,17.77-32.77,29.51-47.33,17.27-21.42,36.66-40.64,59.63-56.02,2.3-1.54,4.72-2.9,8.14-3.49-1.75,2.85-3.51,5.7-5.26,8.54-15.68,21.04-30.28,42.75-40.75,66.96-2.16,5-3.5,10.25-4.72,15.57-2.08,8.99-.46,16.38,7.75,21.57,1.17.74,2.37,1.64,2.14,3.35Z"/>
          <path class="cls-3" d="m941.51,604.02c1.06-1.1,2.46-1.22,3.84-1.14,7.52.45,6.03-3.05,3.19-7.18,2.33-1.36,2.8-4.77,5.86-5.32,1.59,2.13.53,5.34,2.92,7.14-2.81,8.17-9.62,6.58-15.81,6.5Z"/>
          <path class="cls-3" d="m835.14,541.61c4.28-2.11.83-5.51,1.37-8.24,1.42-2.33,2.64-4.86,5.72-5.41-.64,3,1.04,5.61,1.41,8.44-1.46,3.99-3.84,6.48-8.51,5.21Z"/>
          <path class="cls-3" d="m706.08,624.13c-.61-2.58-.92-5.28-2.97-7.27,2.5-1.21,2.71-4.91,5.86-5.41.94,2.48,1.89,4.96,2.83,7.44-1.65,2.03-1.68,5.83-5.72,5.24Z"/>
          <path class="cls-3" d="m752.81,828.39c-27.47-.59-54.52-4.74-81.49-9.53-13.05-2.32-26.08-4.8-39.26-7.24-.14,3.84,2.11,4.97,5.09,5.71,4.77,1.19,9.5,2.54,14.21,3.95,10.82,3.25,20.8,6.65,30.05,14.8,17.06,15.04,38.69,21.63,61.48,23.48,2.67,1.7,5.89-.29,8.58,1.29,5.65.2,11.24-.01,16.8-1.31,3.53-.82,7.95-1.76,9.26-4.53,4.74-10.05,13.43-7.3,20.72-6.57,16.75,1.69,33.24,5.23,49.7,8.87,17.73,3.92,35.72,5.5,53.79,2.18,6.82-1.25,12.8-4.57,18.43-8.52,5.22-1.07,10.44-1,15.66-.04,20.14,1.77,39.27,7.66,58.21,14.3,4.61,1.62,9.04,3.81,14.01,4.24.02,3.28-2.51,1.81-3.99,2.03-3.35.49-6.84-.73-10.14.75-43.67.03-87.34.22-131-.06-6.74-.04-8.54,2.05-8.09,8.37.5,7.05.11,14.15.1,21.24-2.5,2.92-5.98,2.52-9.21,2.52-33.77,0-67.53.26-101.3-.1-43.91.24-87.81.27-131.72,0-37.2.21-74.41.19-111.59.03-3.91.57-3.2,3.69-2.95,6.07,3.36,32.38,5.14,64.97,13.68,96.63,15.73,58.32,42.11,111.05,81.01,157.53,45.45,54.3,100.8,95.74,163.43,128.02,30.95,15.95,63.19,28.77,95.97,40.31,1.06.36,1.99.91,2.61,1.88.02,8.57.01,17.14.09,25.7.03,2.88-.05,5.61-3.04,7.16-17.1-4.68-33.46-11.46-49.75-18.31-40.54-17.03-79.18-37.61-115.51-62.54-34.09-23.39-65.6-49.81-93.6-80.16-49.24-53.37-85.97-114.28-107.57-183.86-6.92-22.28-11.52-45.1-13.62-68.44-1.51-16.83-4.23-33.56-4.24-50.52-1.2-2.79.14-5.84-.92-8.64-.17-4.67-.34-9.33-.52-14-1.24-3.77.2-7.74-.88-11.52-.18-7.95-.37-15.91-.55-23.86-.79-22.94-.79-45.88,0-68.81.18-7.96.35-15.91.53-23.87,1.14-4.28-.34-8.74.88-13.02.18-4.64.36-9.28.53-13.92,1.02-2.87-.18-5.96.86-8.82.2-4.15.41-8.31.61-12.46.89-2.33-.23-4.9.86-7.21.31-19.26,3.45-38.24,5.52-57.34,3.13-28.8,7.99-57.34,13.23-85.79,3.67-19.92,8.69-39.58,13.05-59.37.91-4.15,3.87-5.16,7.5-5.73,24-3.72,47.92-8.12,72.01-11.1,18.65-2.31,37.33-4.6,56.09-6.24,15.05-1.32,30.1-2.86,45.17-4.11,2.82-1.13,5.9.17,8.73-.9,3.7-.18,7.39-.35,11.09-.53,2.36-.99,4.95.03,7.33-.81,5.11-.2,10.22-.4,15.33-.61,3.33-1.13,6.87.2,10.21-.87,5.13-.17,10.26-.35,15.39-.52,4.74-1.28,9.64.27,14.39-.89,7.49-.18,14.98-.35,22.47-.53,7.6-1.31,15.31.29,22.91-.88,14.69-.08,29.38-.16,44.07-.24,1.86,4.08-.41,8.61,1.36,12.7.08,2.31.16,4.62.25,6.93.36.89.16,1.63-.59,2.23-2.8,1.68-5.93,1.48-8.97,1.4-28.59-.81-57.17.24-85.68,1.66-75.26,3.76-150.26,10.56-224.52,23.92-11.03,1.98-11.05,2.1-13.28,13.17-9.94,49.38-16.67,99.21-21.18,149.36-3.36,37.39-4.54,74.87-5.99,112.38-.98,25.33,1.78,50.47.6,75.7-.34,7.31.75,8.14,8.14,8.15,50.56.08,101.12.04,151.68.02,1.83,0,4.15.63,5.3-1.13,1.46-2.25-.72-3.97-1.85-5.58-7.05-10.06-13.89-20.26-21.4-30-3.71-4.81-8.41-8.22-13.86-10.74-14.8-6.83-29.75-13.34-44.92-19.3-3.3-1.3-6.58-2.65-9.68-4.37-2.31-1.28-4.82-2.84-3.45-6.02,1.3-3.02,4.13-2.62,6.76-2.08,1.62.33,3.18.89,4.76,1.39,45.05,14.13,91.46,21.47,138.11,27.58,5.35.7,7.28-1.24,7.32-6.47.04-4.88-1.12-9.95,1.5-14.58,5.07-.25,3.46,3.84,3.87,6.31.81,4.89-.99,10.12,1.54,15.02,3.55-1.52,2.8-4.41,2.94-6.81.24-3.97-.28-8,.38-11.93.32-1.92,0-5.12,3.83-3.82,2.53,4.9,1.57,10.19,1.4,15.28-.2,6.01,1.52,8.95,8.11,9.41,15.02,1.06,30.05,1.8,45.08,2.27,20.23.64,40.49-.25,60.72.38.78.07,1.57.22,2.33.43,3.56,1.34,7.16,1.52,10.81.25.76-.24,1.53-.39,2.32-.51,4.7-.51,9.43-.54,14.12-.27,15,.84,29.58-.6,43.53-6.65,5.73-2.49,12.04-2.2,18.08-2.77,8.64-.82,17.34-1.26,26.01-1.88,3.56.05,7.09-.23,10.57-1.02,26.56-2.25,52.88-6.3,79.16-10.69,9.91-1.65,12.45,1.42,8.75,10.67-3.81,9.53-9.59,17.78-16.89,25.04-10.95,10.9-11.6,15.24-5.02,29.41.8,1.72,1.71,3.39,1.07,5.38-1.52.81-3.04.84-4.55-.02-7.68-4.13-11.21-17.22-7.24-26.65,2.04-4.84,4.8-9.1,8.8-12.59,5.9-5.16,10.72-11.19,13.81-18.47.7-1.66,2.42-3.42.96-5.21-1.31-1.6-3.56-1.14-5.34-.82-11.73,2.07-23.4,4.37-35.23,5.95-17.38,2.31-34.68,5.09-52.26,5.35-2.69,1.56-5.91-.42-8.58,1.28-4.23.04-8.46.08-12.7.12-3.17,1.65-6.83-.47-10,1.29-10.9,1.72-20.4,7.84-31.19,9.9-2.82-1.04-5.64-1.01-8.47-.02-29.32,0-58.65,0-87.97,0-3.92-1.31-7.96-.34-11.93-.64-4.53-.33-9.12.72-13.61-.61-6.6-.03-13.2-.07-19.8-.1-2.65-1.76-5.89.29-8.56-1.32Z"/>
        </g>
      </g>
    </g>
  </g>
</svg>