<?xml version="1.0" encoding="UTF-8"?>
<svg id="Capa_1" data-name="Capa 1" xmlns="http://www.w3.org/2000/svg" viewBox="0 0 1713 1713">
  <defs>
    <style>
      .cls-1 {
        fill: #fff;
        stroke-width: 0px;
      }
    </style>
  </defs>
  <path class="cls-1" d="m856.5,1.5C384.3,1.5,1.5,384.3,1.5,856.5s382.8,855,855,855,855-382.8,855-855S1328.7,1.5,856.5,1.5Zm-.36,1674.77c-452.36.43-819.88-369.22-819.54-820.16C36.94,404.6,405.36,36.84,856.53,36.93c452.34.08,820.05,369.27,819.54,820.21-.51,451.4-368.48,819.98-819.93,819.13Z"/>
  <path class="cls-1" d="m856.81,54.49C416.73,54.05,54.66,411.08,54.55,856.49c-.11,442.3,358.62,801.82,801.66,801.97,442.81.15,801.91-359.08,801.94-801.68.04-445.57-362.26-802.39-801.35-802.29Zm-1.27,1568.24c-423.26-1.06-765.53-343.49-765.62-765.98-.09-422.53,342.93-765.42,765.76-765.48,423.58-.06,766.31,342.41,766.09,765.53-.22,423.08-344.27,766.99-766.23,765.93Z"/>
  <path class="cls-1" d="m782.15,701.54h0c-.05,0-.11,0-.16.01,0,.04,0,.08,0,.12.05-.05.1-.09.15-.13,0,0,0,0,0,0Z"/>
  <path class="cls-1" d="m723.8,797.15s.07,0,.1,0c-.04-.07-.06-.15-.1-.23,0,.08,0,.15,0,.23Z"/>
  <path class="cls-1" d="m958.56,819.1c1.53.04,3.06.03,4.57-.15-1.53-.02-3.11-.31-4.57.15Z"/>
  <path class="cls-1" d="m981.19,782.8c-.04.32,1.64-.17.7-.28-.14-.02-.18-.1-.2-.23-.08-.46-.11-.91-.1-1.35-.1.2-.19.41-.28.61-.05.41-.09.82-.12,1.26Z"/>
  <path class="cls-1" d="m854.86,1337.27c.18-.2.38-.39.59-.57-.2.07-.39.15-.59.22,0,.11,0,.23,0,.34Z"/>
  <path class="cls-1" d="m735.07,795.69s.08.01.13.02c0-.09,0-.18,0-.27-.05.08-.08.17-.13.25Z"/>
  <path class="cls-1" d="m896.73,830.43c1.57.06,3.15.05,4.73,0-1.58-.32-3.15-.31-4.73,0Z"/>
  <path class="cls-1" d="m798.67,778.3c-.16-.58-.3-1.17-.4-1.77-.27.27-.59.47-.96.56.51.36.97.76,1.36,1.2Z"/>
  <path class="cls-1" d="m631.01,811.68c.14-.08.29-.15.44-.2-.15-.03-.3-.06-.44-.08,0,.1,0,.19,0,.28Z"/>
  <path class="cls-1" d="m996.15,871.81c3.01.08,6.04.04,9.04.48.94.14,1.63.18.69.08-.06,0-.11-.08-.28-.13-.62-.18-1.23-.38-1.84-.57-2.52.15-5.11-.41-7.61.14Z"/>
  <path class="cls-1" d="m781.48,711.35s.07.02.11.03c-.01-.07-.03-.12-.04-.19-.02.06-.05.11-.07.16Z"/>
  <path class="cls-1" d="m794.49,830.3c-3.52-.26-7.07.3-10.58-.04,3.8.52,7.67.08,11.49.21,2.93-.04,5.87.08,8.8-.03-3.21-.46-6.49.11-9.71-.14Z"/>
  <path class="cls-1" d="m935.64,820.6c1.99-.04,3.98,0,5.95-.21-1.99.02-4.04-.42-5.95.21Z"/>
  <path class="cls-1" d="m970.48,796.48c-.2.15-.43.25-.66.31.22.32.44.63.66.95,0-.45,0-.86,0-1.26Z"/>
  <path class="cls-1" d="m944.61,819.77c.06-.02.13-.04.19-.06-.02,0-.04,0-.06,0-.04.02-.09.04-.13.06Z"/>
  <path class="cls-1" d="m755.43,828.92c1.42.17,2.85.17,4.29.12-1.38-.4-2.85-.15-4.29-.12Z"/>
  <path class="cls-1" d="m1265.49,525.82c-2.48-3.08-3.8-6.34-4.55-10.18-3.17-16.28-6.71-32.48-9.85-48.77-.82-4.24-2.55-6.47-7.02-7.18-14.98-2.38-29.9-5.14-44.86-7.69-4.43-.76-8.55-1.61-12.36-4.65-96.44-77.08-206.48-115.88-329.85-116.98-36.97-.19-73.47,3.66-109.56,11.35-82.12,17.49-155.79,52.77-221.17,105.39-2.67,2.15-5.44,3.3-8.9,3.85-16.62,2.63-33.17,5.74-49.79,8.39-5.04.8-7.75,2.82-8.69,8.15-2.13,12.13-5.13,24.1-7.28,36.23-2.28,12.87-5.97,24.39-14.21,35.48-94.15,126.72-126.1,268.2-96.07,422.9,18.15,93.5,60.69,175.63,124.62,246.26,71.78,79.3,159.62,132.34,263.48,158.62,30.67,7.76,62.29,11.08,92.23,22.61,32.71,12.59,33.15,11.48,66.63.58,12.14-3.95,23.96-9.96,36.4-11.7,97.9-13.69,186.45-49.86,262.12-113.37,146.97-123.35,211.45-281.79,191.71-472.65-10.32-99.78-50.08-188.48-113.03-266.65Zm-396.83-165.98c94.12,2.24,180.77,29.59,259.22,82.82-13.99-1.64-27.98-3.28-41.97-4.92-16.78-1.03-33.56-2.07-50.35-3.09-20.11-1.22-40.21-2.76-60.34-3.58-66.4-2.69-132.84-2.81-199.26-1.3-46.69,1.06-93.36,3.29-139.88,7.78-3.05.29-6.15.09-9.22.12h0c-13.98,1.57-27.95,3.14-41.93,4.71,86.03-57.59,180.82-84.99,283.74-82.54Zm-464.72,701.22c-71.28-161.2-57.12-318.06,30.88-469.02.94.07,1.89.14,2.83.22-1.53,14.07-3.06,28.13-4.59,42.2-3.15,38.31-5.19,76.67-6.25,115.11-.92,33.27.08,66.47,1.36,99.67,1.07,27.72,3.78,55.36,6.2,83.01,4.91,55.94,20.29,108.89,43.67,159.69,27.06,58.8,63.57,111.07,109.11,157.06,1.13,1.15,1.98,2.58,2.96,3.88h0c23.03,20.37,45.85,40.98,70.51,59.3-117.19-51.28-204.91-134.01-256.69-251.11Zm510.33,288.49c-17.6,7.68-35.53,14.55-53.69,20.78-2.71.93-5.5,3.2-8.68,1.05.09-.52.17-1.05.25-1.57-.08.05-.16.1-.25.14-17.18-4.7-33.62-11.52-49.98-18.39-40.73-17.11-79.56-37.79-116.05-62.83-34.25-23.5-65.91-50.05-94.04-80.53-49.47-53.62-86.38-114.82-108.08-184.73-6.95-22.39-11.57-45.31-13.68-68.76-1.52-16.91-4.25-33.71-4.26-50.75-1.21-2.8.14-5.87-.92-8.68-.17-4.69-.35-9.38-.52-14.06-1.25-3.79.2-7.78-.89-11.58-.19-7.99-.37-15.98-.55-23.97-.8-23.05-.79-46.09,0-69.14l.53-23.98c1.14-4.3-.34-8.78.88-13.08.18-4.66.36-9.33.54-13.99,1.03-2.88-.18-5.98.86-8.86.21-4.17.41-8.34.62-12.52.9-2.34-.23-4.92.87-7.24.32-19.35,3.46-38.42,5.55-57.61,3.15-28.94,8.02-57.61,13.29-86.19,3.69-20.01,8.74-39.77,13.11-59.65.92-4.17,3.89-5.19,7.54-5.75,24.11-3.74,48.14-8.16,72.34-11.15,18.74-2.32,37.51-4.62,56.36-6.27,15.12-1.32,30.24-2.87,45.38-4.13,2.84-1.14,5.92.17,8.77-.91,3.71-.18,7.43-.36,11.14-.53,2.38-.99,4.97.03,7.37-.82,5.13-.2,10.27-.41,15.4-.61,3.35-1.14,6.91.2,10.26-.87,5.15-.18,10.31-.35,15.46-.53,4.76-1.29,9.69.27,14.46-.89,7.52-.18,15.05-.36,22.57-.53,7.63-1.31,15.38.29,23.02-.89,14.76-.08,29.52-.16,44.28-.24.37.82.58,1.66.68,2.5.21-.36.44-.72.73-1.07,33.72-.84,67.41.47,101.08,1.89,32.24,1.36,64.43,3.64,96.57,6.54,50.56,4.56,100.86,11.07,150.83,20.09,4.36.79,5.52,3.35,6.48,7.11,9.67,37.94,16.72,76.4,22.35,115.11,11.19,76.95,16.27,154.32,14.13,232.06-1.36,49.57-3.73,99.19-13.41,147.96-12.97,65.36-42,123.64-81.8,176.66-61.97,82.56-142.96,140.47-236.87,181.43Zm437.56-452.89c-19.55,227.56-178.73,371.15-309.69,419.64,25.62-17.26,48.92-37.39,72.08-57.69,13.33-14.77,27.68-28.59,40.38-43.96,58.54-70.81,98.2-150.7,115.8-241.09,5.03-25.85,6.79-52.2,8.8-78.42,3.77-49.24,5.53-98.59,4.23-147.97-.98-37.23-2.51-74.45-6.47-111.52-.2-1.87-.04-3.78-.05-5.67h0c-1.71-14.04-3.41-28.08-5.11-42.03,12.95,5.41,53.35,95.41,66.27,146.72,13.42,53.29,18.45,107.31,13.76,162Z"/>
  <path class="cls-1" d="m1053,871.59c-1.81,0-3.76.54-5.41-.76-.02.06-.02.12-.04.19-.4.21-.8.37-1.2.47,2.56.5,5.16.25,7.74.26,49.99.03,99.98.03,149.98,0,2.14,0,4.35.33,6.43-.15-52.49.04-104.99.04-157.48,0Z"/>
  <path class="cls-1" d="m328.45,616.42c-18.75-9.6-37.34-19.51-55.97-29.34-4.48-2.36-8.91-4.84-14.61-7.94,21.41-2.14,41.19-4.26,61.01-6.01,5-.44,5.62-1.85,3.12-5.94-3.2-5.25-6.05-10.72-9.04-16.1-6.59-11.86-13.17-23.72-19.9-35.84,3.49-.87,5.26,1.05,7.25,2.09,16.19,8.37,32.33,16.84,48.51,25.21,6.29,3.25,13.51,9.83,18.8,8.57,6.04-1.44,7.12-11.82,11.12-17.86,2.71-4.09,2.69-6.33-2.45-8.98-33.24-17.14-66.23-34.75-99.32-52.17q-12.43-6.54-19.22,6.25c-1.22,2.3-2.22,4.78-3.77,6.83-4.17,5.53-3.19,10.23.38,15.97,9.83,15.82,18.92,32.09,28.89,49.21-15.95,1.08-30.4,3.03-44.81,2.75-15.32-.3-26.29,3.94-30.57,19.78-.54,2.01-1.73,3.92-2.92,5.66-1.97,2.9-1.85,4.59,1.66,6.42,36.71,19.18,73.34,38.52,109.95,57.91,2.69,1.43,3.99,1.13,5.32-1.64,2.77-5.75,5.6-11.51,8.9-16.97,2.36-3.9,1.78-5.73-2.33-7.84Z"/>
  <path class="cls-1" d="m499.37,372.5c3.68,6.06,6.54,15.61,11.61,17.04,5.76,1.63,12.15-6.64,18.71-9.71,5.39-2.53,5.07-4.95,2.22-9.53-13.25-21.3-26.12-42.84-40.11-65.91,3.56,1.25,5.1,1.73,6.59,2.32,27.09,10.65,54.28,21.05,81.18,32.17,7.5,3.1,13.19,3.2,20.1-1.59,11.33-7.85,11.69-7.36,4.46-19.31-19.26-31.83-38.67-63.57-57.66-95.56-2.98-5.01-5.19-5.18-9.48-2.13-4.62,3.29-9.51,6.28-14.53,8.91-3.63,1.9-3.79,3.55-1.7,6.94,11.57,18.75,22.93,37.64,34.26,56.54,1.23,2.05,3.32,3.84,3.2,6.55-2.85,1.28-4.89-.51-6.98-1.32-22.49-8.77-45.32-16.8-67.23-26.85-13.64-6.25-24.79-6.56-36.72,3.07-4.46,3.59-4.54,5.28-1.82,9.69,18.12,29.47,35.94,59.13,53.9,88.69Z"/>
  <path class="cls-1" d="m1468.9,498.09c-2.5-5.31-4.75-5.15-9.41-2.8-30.64,15.47-61.48,30.55-92.15,46-6.87,3.47-17.98,4.98-19.35,11.22-1.3,5.96,6.03,13.68,9.21,20.79,1.53,3.38,2.97,3.98,6.26,2.15,6.42-3.57,13.06-6.69,19.61-10.01,14.3-7.25,14.12-7.16,21.74,7.03,2.4,4.48,2.42,7.86-.23,12.24-6.73,11.15-12.92,22.62-19.28,34-1.23,2.21-2.9,4.29-1.35,7.22,4.74,8.97,9.28,18.03,14.26,27.75,8.54-15.26,16.83-29.58,24.57-44.18,2.55-4.83,3.98-5.21,8.5-1.81,24.99,18.74,63.97,2.94,68.6-27.67,1.83-11.97-1.84-23.02-7.02-33.59-7.92-16.14-16.29-32.09-23.96-48.35Zm2.92,71.37c.04,7.42-3.44,12.59-10.05,15.7-7.96,3.72-15.13,3.04-20.92-2.97-8.86-9.2-12.18-21.71-18.36-32.55-1.33-2.32.97-2.78,2.28-3.47,9.03-4.62,18.08-9.2,27.17-13.73,1.35-.67,3.19-2.18,4.24.13,5.38,11.98,13.65,22.73,15.63,36.18.04.23.01.47.01.7Z"/>
  <path class="cls-1" d="m782.24,276.45c.08,3.86,1.32,4.85,4.94,4.61,6.39-.42,12.81-.66,19.2-.57,4.44.07,5.51-1.56,5.29-5.92-.72-13.98-.77-27.99-1.48-41.97-.22-4.42,1.01-5.67,5.41-5.72,14.23-.17,28.47-.62,42.68-1.33,4.38-.22,5.69,1.01,5.72,5.41.09,14.23.74,28.46.89,42.7.04,3.85.86,5.54,5.15,5.19,6.37-.53,12.8-.65,19.2-.51,3.9.08,5.24-.9,5.19-5.14-.26-20.16-.12-40.32-.12-60.48-1.08,0-2.15,0-3.23,0,0-20.4-.16-40.8.11-61.19.07-5.16-1.7-6.42-6.53-5.97-5.65.53-11.4.63-17.07.31-4.92-.27-5.89,1.73-5.69,6.21.58,13.51.6,27.04,1.17,40.55.18,4.31-.41,6.36-5.5,6.36-14.23,0-28.47.4-42.69,1.03-4.48.2-5.55-1.19-5.6-5.51-.16-13.99-.94-27.98-1.17-41.98-.06-3.94-1.07-5.46-5.21-5.09-6.37.56-12.8.89-19.19.78-4.07-.07-4.52,1.72-4.43,5.12,1.08,41.03,2.1,82.07,2.95,123.11Z"/>
  <path class="cls-1" d="m1269.84,454.19c16.21,18.9,32.14,38.04,48.29,57,4.27,5.01,7.93,13.79,13.22,13.78,5.11-.01,10.02-7.78,15.37-11.67,3.69-2.68,3.23-4.46.52-7.64-13.07-15.35-25.71-31.06-38.87-46.32-3.41-3.95-2.92-5.87,1-8.69,4.61-3.31,8.9-7.11,13.03-11.01,2.79-2.62,4.41-2.17,6.65.69,5.13,6.52,10.55,12.81,15.95,19.12,4.45,5.2,8.17,12.75,13.81,14.76,6.06,2.15,13.17-3.75,20.06-5.3,5.67-1.28,5.07-3.47,1.82-7.2-7.31-8.41-14.37-17.04-21.39-25.7-4.29-5.3-12.61-10.6-11.71-15.91.88-5.21,9.61-8.96,14.61-13.66,3.04-2.85,4.76-3.23,7.72.47,9.61,12.05,19.59,23.81,29.64,35.49,4.11,4.78,7.34,13.04,12.8,13.16,4.72.11,9.61-6.8,14.38-10.66,1.63-1.32,3.13-2.81,5.03-4.54-1.19-1.43-2.19-2.65-3.21-3.86-19.08-22.69-38.26-45.29-57.13-68.16-3.2-3.87-5.01-3.28-8.33-.49-30.84,25.97-61.73,51.88-92.82,77.54-4.15,3.42-3.47,5.3-.47,8.8Z"/>
  <path class="cls-1" d="m940.2,284.95c24.55,5.22,49.04,10.78,73.6,15.97,6.4,1.35,14.59,6.18,18.76,2.87,4.04-3.21,2.99-12.38,5.14-18.59,1.8-5.2-.78-5.97-4.62-6.79-14.82-3.17-29.64-6.33-44.42-9.72-6.59-1.51-15.96-.41-18.97-5.48-2.99-5.04,2.34-12.96,2.97-19.73.55-5.89,3.26-6.11,7.93-5.03,12.92,2.99,25.9,5.68,39.44,8.62,2.29.84,3.72-.63,5.04-3,2.88-5.17,5.78-10.36,9.1-15.25,2.64-3.89,1.16-5.04-2.65-5.83-10.43-2.16-20.87-4.32-31.23-6.82-6.58-1.59-16.19-.48-18.97-5.43-2.98-5.31,2.12-13.45,3.01-20.45.55-4.29,2.01-4.74,6-3.81,14.98,3.52,30.05,6.7,45.14,9.76,6.2,1.26,13.62,5.87,18.29,2.8,4.6-3.03,3.27-11.79,5.4-17.73,1.89-5.28-.25-6.29-4.84-7.25-28.28-5.95-56.55-11.94-84.68-18.53-6.37-1.49-7.85.22-9.05,5.98-8.07,38.72-16.33,77.41-24.95,116.01-1.13,5.08-.05,6.48,4.56,7.46Z"/>
  <path class="cls-1" d="m375.63,463.14c6.23,14.26,12.45,28.52,19.13,43.8,6.38-6.85,11.72-12.88,17.44-18.54,2.5-2.47,2.61-4.42,1.13-7.4-3.27-6.56-5.95-13.42-9.28-19.94-1.88-3.68-1.64-6.08,1.4-9.14,9.83-9.96,19.58-20.04,28.74-30.61,4.38-5.05,8.09-6.33,14.28-3.32,6.96,3.37,15.25,8.77,21.58,7.3,6.4-1.47,10.84-10.55,16.63-15.76,4.98-4.46,2.97-5.62-2-7.43-36.68-13.31-73.28-26.87-109.93-40.29-6.4-2.35-13.35-7.02-19.25-6-6.38,1.1-9.76,9.68-15.09,14.31-3.29,2.84-3.21,5.35-1.51,9.17,12.41,27.88,24.53,55.89,36.75,83.86Zm39.11-57.72c-8.2,8.64-15.83,16.69-24.15,25.46-6.35-13.88-12.48-27.27-19.27-42.12,14.95,5.73,28.67,11,43.41,16.66Z"/>
  <path class="cls-1" d="m1128.9,345.9c16.12.31,28.21-6.7,35.78-21.22,7.67-14.71,6.07-28.27-4.56-40.87-5.22-6.19-11.29-11.5-17.46-16.72-5.25-4.44-10.67-8.68-15.07-14.06-3.57-4.36-4.37-8.99-1.3-13.74,3.09-4.79,7.91-5.75,13.18-4.58,8.92,1.97,15.62,7.43,22.02,13.66,4.42,4.3,6.06,13.44,12.01,13.12,5.86-.31,11.42-6.15,17.1-9.56.41-.24.8-.52,1.22-.73,2.4-1.17,2.81-2.59,1.37-5.05-13.4-22.88-33.1-35.79-55.92-38.18-19.62.32-31.45,7.27-38.49,21.69-7.41,15.18-5.19,29.08,6.61,41.11,5.8,5.92,12.15,11.31,18.38,16.79,4.46,3.92,9.01,7.72,12.78,12.35,3.31,4.06,4.19,8.42,1.53,13.16-2.54,4.51-6.67,5.7-11.5,5.46-3.86-.19-7.41-1.41-10.88-3.02-11.93-5.52-20.28-14.73-26.18-26.15-2.18-4.22-4.18-4.69-8.09-2.48-4.94,2.78-10.19,5.01-15.31,7.48-1.95.94-3.63,1.5-2.16,4.61,8.84,18.81,33.99,46.35,64.95,46.94Z"/>
  <path class="cls-1" d="m688.66,304.19c22.13-1.23,43.38-11.36,57.51-34.48,2.68-4.38,3.29-7.23-2.3-9.5-3.7-1.5-7.23-3.6-10.51-5.9-4.61-3.23-8.02-3.93-10.94,2.17-1.49,3.1-4.22,5.72-6.73,8.2-12.71,12.53-31.76,15.53-46.5,7.46-15.71-8.6-24.86-28.62-21.36-46.75,3.51-18.17,15.86-29.57,34.34-31.73,8.5-.99,16.61.61,24.13,4.39,4.1,2.06,5.68.96,7.23-2.87,2.21-5.48,4.66-10.9,7.52-16.06,2.17-3.9,1.29-5.65-2.62-7.38-19.11-8.49-38.2-7.61-57.39-.41-31.52,11.83-48.78,43.14-42.47,77.12,6.07,32.69,33.55,55.93,70.09,55.73Z"/>
  <path class="cls-1" d="m1205.36,370.46c-4.3,5.63-12.17,11.78-11.64,17,.61,6,10.69,8.86,15.95,13.87,4.48,4.27,6.81,3,10.2-1.55,18.29-24.52,37.06-48.68,55.34-73.21,3.28-4.41,5.29-4.51,9.3-1.15,7.44,6.25,15.44,11.83,23.02,17.91,2.82,2.27,4.53,2.44,6.69-.81,3.15-4.73,6.55-9.33,10.24-13.64,2.76-3.23,2.7-4.95-.93-7.67-26.55-19.93-52.92-40.1-79.29-60.27-2.6-1.99-4.29-2.88-6.57.59-3.25,4.94-6.94,9.62-10.78,14.13-2.38,2.79-2.27,4.37.76,6.58,8.24,6,16.26,12.31,24.32,18.55,1.4,1.09,3.51,1.69,3.46,4.3-.91,1.18-1.92,2.49-2.93,3.81-15.72,20.52-31.46,41.02-47.15,61.57Z"/>
  <path class="cls-1" d="m745.08,1529.05c-7.16-7.39-7.13-7.34-15.67-1.23-2.5,1.79-5.09,3.57-7.88,4.78-14.67,6.37-29.3,6.92-42.36-3.3-14.72-11.51-18.97-27.33-15.25-45.23,3.31-15.94,12.65-27.01,28.78-30.93,15.17-3.69,28.62.86,40.3,10.78,2.74,2.33,4.25,2.7,6.65-.42,3.9-5.07,8.11-9.95,12.6-14.51,2.98-3.03,2.33-4.62-.59-7.19-13.28-11.66-28.86-16.47-46.29-17.34-41.25-2.06-74.05,28.74-74.02,70.02.02,26.8,14.65,51.42,38.62,62.54,26.07,12.1,51.61,10.67,75.3-6.53,12.08-8.77,11.88-9.04,1.79-19.4-.66-.68-1.32-1.36-1.98-2.04Z"/>
  <path class="cls-1" d="m1071.65,1426.42c-4.16-.16-6.31,1.4-8.33,4.83-9.58,16.34-19.41,32.53-29.53,49.41-9.99-16.84-19.73-33.02-29.18-49.38-2.03-3.51-4.19-5.01-8.34-4.86-9.24.34-18.5.11-29.22.11,12.38,19.54,23.26,38.73,36.14,56.46,12.14,16.71,18.16,34.09,15.81,54.76-.86,7.54-3.69,18.25,1.35,22.31,4.81,3.87,14.96.9,22.74,1.35,4.54.26,5.56-1.48,5.49-5.73-.24-14.47-.02-28.95-.15-43.43-.03-3.47.87-6.32,2.76-9.26,15.15-23.5,30.17-47.09,45.15-70.7,1.05-1.65,3.08-3.04,2.34-5.75-9.03,0-18.05.25-27.04-.11Z"/>
  <path class="cls-1" d="m954.66,1432.49c.45-5.28-1.67-6.17-6.41-6.09-16.37.28-32.75.11-49.13.11s-33.7.11-50.55-.07c-4.21-.05-6.66.42-6.21,5.63.49,5.65.32,11.39.04,17.07-.19,3.82,1.24,4.88,4.89,4.8,9.73-.2,19.48.31,29.18-.21,5.92-.32,7.52,1.43,7.46,7.37-.3,31.56-.06,63.13-.23,94.69-.02,4.45.87,6.46,5.82,6.09,5.9-.44,11.89-.45,17.78,0,5.03.38,6.32-1.27,6.28-6.25-.23-31.56,0-63.13-.23-94.69-.04-5.29.88-7.9,6.85-7.17,4.44.54,9.02.3,13.51.06,6.78-.37,16.04,3.1,19.65-1.4,3.4-4.23.69-13.14,1.28-19.95Z"/>
  <path class="cls-1" d="m814.81,1430.96c0-3.34-.91-4.64-4.39-4.52-6.4.23-12.83.4-19.2-.04-4.93-.34-6.38,1.05-6.3,6.15.32,20.4.13,40.8.13,61.2s.1,41.28-.08,61.91c-.04,4.1.63,6.07,5.35,5.77,6.62-.41,13.28-.21,19.92-.06,3.26.07,4.59-.94,4.58-4.45-.1-41.99-.09-83.97,0-125.96Z"/>
  <path class="cls-1" d="m1450.1,819.6c-12.24,1.21-22.12,10.07-24.76,22.18-2.35,10.77,2.03,22.05,11.18,27.01,10.44,5.68,21.24,5.25,32.28-.1,0,1.34.2,2.3-.03,3.14-3.47,13.22-15.02,17.69-28.05,10.17-4.49-2.58-6.55-2.07-8.67,2.18-.96,1.88-2.27,3.64-3.65,5.25-1.63,1.91-1.14,3.08.58,4.69,12.49,11.71,38.39,9.88,48.92-3.68,10.04-12.95,11.18-28.08,8.8-43.34-3.25-20.88-15.52-29.61-36.6-27.5Zm6.03,38.79c-8.39-.09-13.19-4.72-12.98-12.52.2-7.49,5.03-11.87,13.06-11.84,7.69.03,13.76,5.45,13.91,12.38.13,6.7-6.12,12.05-13.99,11.98Z"/>
  <path class="cls-1" d="m1567.78,868.9c-9.56.27-7.76-5.63-7.8-11.04-.04-4.52-.01-9.03-.01-13.53,0-5.46.23-10.94-.09-16.37-.17-2.74,2.03-7.3-2.24-7.82-4.64-.57-10.37-2.6-14.18,1.74-13.46,15.33-26.57,30.95-39.88,46.42-3.44,3.99-.16,7.64.44,11.35.64,3.96,4.25,2.97,6.95,3,7.36.07,14.72.01,22.08.01,9.94.01,9.84.01,10.08,9.96.06,2.35-1.37,5.41,1.88,6.89,7.84,3.58,15.15-.66,14.86-8.89-.19-5.21.26-8.94,6.97-8.06,3.47.47,3.88-2.35,3.41-4.75-.61-3.12,2.31-9.04-2.48-8.91Zm-28.15-.5c-5.12-.06-10.24-.01-17-.01,7.12-8.29,13.18-15.33,20.62-24,0,7.9-.03,13.59.01,19.27.01,2.57-.2,4.81-3.64,4.75Z"/>
  <path class="cls-1" d="m266.21,849.13c7.32-11.87-2.55-25.59-18.74-28.98-13.25-2.78-27.41,2.35-32.67,11.84-4.93,8.9-3.18,16.99,6.35,27.38-9.43,5.33-13.29,13.09-11.27,22.96,2.17,10.62,10.41,15.46,20.01,17.98,10.41,2.74,20.72,1.94,30.26-3.42,10.53-5.92,15.39-20.28,8.03-28.58-6.19-6.96-7.24-10.64-1.97-19.18Zm-25.99-15.1c6.28.03,10.9,4.16,10.9,9.73s-4.92,9.77-10.97,9.74c-6.03-.04-10.87-4.42-10.87-9.87.01-5.56,4.65-9.64,10.94-9.6Zm-.48,52.6c-3.14.21-6.56-.47-9.51-2.71-5.86-4.42-5.25-11.55,1.31-14.86,2.75-1.38,5.73-2.2,8.84-2.12,7.5.14,13.16,4.52,13.22,10.1.04,5.61-5.42,9.53-13.86,9.6Z"/>
  <path class="cls-1" d="m189.47,861.38c0-11.63-.14-23.26.07-34.89.08-4.18-1.07-5.76-5.55-5.9-9.31-.31-17.62,3.3-26.24,5.73-1.11.31-2.03.86-2.36,2.29-1.63,6.96,3.82,12.82,10.66,10.74,5.19-1.58,6.51-.43,6.42,4.91-.29,16.61.12,33.23-.23,49.84-.12,5.49,1.71,7.36,6.9,6.6,1.16-.17,2.39-.17,3.55,0,5.17.76,7.13-1.04,6.91-6.57-.43-10.9-.13-21.83-.13-32.75Z"/>
  <path class="cls-1" d="m918.11,1230.79c6.69,2.45,13.46,4.72,20.35,6.46,8.66,2.18,12.92-1.05,12.79-9.83-.1-7.14,1.19-14.19.79-21.32-.14-2.54.8-4.8,2.65-6.38,6.77-5.8,10.62-13.23,12.72-21.73.17-.71.59-1.29,1.13-1.77-.28-.43-.58-.85-.86-1.28-2.1-16.86,1.05-32.58,11.5-46.14,8.21-10.66,13.39-21.49,8.86-35.3-1.41-4.31,5.7-12.9,11.85-15.71-.06-.19-.13-.37-.18-.57.24-3.27,2.5-5.54,4.12-8.12,4.57-7.28,3.34-11.62-4.76-14.86-6.81-2.73-13.78-5.07-20.9-6.86-2.69-.67-5.04-1.49-6.01-4.29-3.37-9.63-10.33-15.61-19.49-19.41-1.11-.46-2.06-1.16-2.57-2.31-.05-.14-.1-.28-.15-.42-1.08.82-2.37.89-3.59.47-11.82-4-22.95-9.2-31.07-19.17-3.15-3.86-5.95-8-9.03-11.92-5.11-6.5-11.69-10.54-20.05-10.64-5.53-.06-8.55-2.38-10.78-7.38-3.1-6.96-8.31-12.7-13-18.63-4.24-5.35-10.04-5.25-14.52.15-5.59,6.72-12.01,12.9-15.39,21.22-.92,2.25-2.33,3.4-4.76,3.55-6.22.38-11.97,2.83-17.93,4.33-.28-.14-.55-.29-.82-.44-10.01,15.21-20.35,30.08-38.44,36.9-2.65,1-5.33,1.96-8.06,2.73-11.06,3.14-19.48,9.22-23.94,20.27-1.83,4.54-4.97,7.04-9.69,3.96-.27.33-.58.67-.98,1.01-5.2,2.97-11.1,4.03-16.6,6.2-9.31,3.66-10.99,8.77-5.17,16.94,4.24,5.96,7.66,12.57,13.29,17.48,2.45,2.13,2.89,4.73,2,7.72-3.34,11.21-.07,20.98,6.52,30.04,3.76,5.17,7.67,10.21,10.09,16.24,3.48,8.68,5.58,17.55,4.85,26.99-.91,11.84,2.89,21.81,11.79,29.88,5.48,4.97,2.93,10.52.98,15.94.31.58.6,1.17.85,1.8.8,2.77.54,5.62.67,8.45.45,9.93,3.04,12.48,12.79,12.56,1.29.01,2.61-.13,3.59.87.16-.38.43-.77.85-1.17,6.12-3.8,13.5-4.24,19.87-7.43,2.16-1.08,4.14.33,5.91,1.51,8.69,5.8,18.55,7.37,27.85,3.74,21.02-8.21,41.24-5.87,61.51,1.96.77.32,1.47.72,2.12,1.16,6.66-3.06,14.04-4.36,20.36-8.34,1.94-1.22,4.11.15,6.12.89Zm19.98-10.27c-4.7,2.56-10.89-2.31-16.61-3.53-2-.43-2.77-1.8-2.16-3.69,1.87-5.77,1.09-11.57-.53-18.13,6.31,2.95,11.65,5.48,17.59,6,2.08.18,2.95,1.15,2.84,3.16-.01.24.01.47,0,.71-.24,5.4,1.33,14.15-1.13,15.49Zm32.54-104.14c-12.8,15.29-18.32,32.69-17.54,52.63.41,10.48-5.87,18.17-14.91,21.1-8.86,2.88-17.3.21-24.05-7.8-2.69-3.19-5.52-6.34-7.26-10.65,2.97,0,5.31.08,7.65-.01,9.09-.36,16.05-6.81,15.97-16.61-.12-14.53,3.11-27.18,12.82-38.69,7.66-9.09,3.92-18.84-8.29-26.9,15.63-11.71,35.43-5.52,38.96,12.17,1.09,5.47.09,10.65-3.36,14.77Zm-193.12-1.19c-3.92-4.5-4.04-9.4-1.69-14.5,2.31-5.01,7.27-7.82,13.26-7.89,2.85.1,5.59.53,8.33,1.48,7.14,2.48,14.24,6.22,21.57,6.77,13.45,1.02,16.13,11.03,20.11,20.47.89,2.11-.4,3.64-1.5,5.16-7.46,10.37-14.88,20.77-22.47,31.05-4.15,5.62-9.98,7.28-16.39,5-6.13-2.18-9.69-7.01-9.37-13.63.63-12.99-3.4-24.2-11.86-33.91Zm73.78-51h-.07c0,3.08-.71,6.37.12,9.2,3.71,12.7-7.26,16.46-13.59,23.03-1.41,1.46-3.14.31-4.67-.17-12.63-3.96-25.29-7.84-37.87-11.97-6.04-1.98-9.39-6.56-9.38-12.85.01-6.13,2.72-11.42,8.83-13.29,13.15-4.02,23.81-10.88,31.72-22.47,3.56-5.21,9.74-6.46,16.01-3.87,6.19,2.56,9.01,7.27,8.92,13.92-.09,6.16-.02,12.32-.02,18.48Zm8.26,4.79c-.03-1.42,0-2.85,0-4.27,0-6.17-.23-12.35.07-18.51.35-7.22,3.44-12.9,10.82-15.05,7.18-2.09,12.51.96,16.3,6.96,6.42,10.16,15.72,16.12,27.1,19.4,7.66,2.2,11.51,7.31,11.35,14.33-.18,7.54-4.44,11.29-11.45,13.32-11.14,3.24-22.14,6.97-33.09,10.78-4.16,1.45-6.74-.38-10.54-1.82-13.3-5.03-10.34-15.47-10.55-25.16Zm9.37,39.83c.02,6.62-6.1,12.57-12.93,12.55-6.89-.01-12.74-5.8-12.76-12.61-.02-6.91,5.73-12.58,12.73-12.52,6.79.05,12.94,6.02,12.96,12.58Zm-47.45,53.35c7.36-10.15,14.89-20.18,22.17-30.39,1.93-2.71,3.78-3.84,7.08-2.51,1.68.68,4.03,1.28,5.49.62,7.32-3.32,10.61,1.2,14.19,6.3,5.97,8.52,12.3,16.79,18.55,25.12,2.2,2.93,3.7,6.04,3.5,8.99-.08,11.18-8.85,17.03-20.18,13.63-8.27-2.48-16.43-4.51-25.05-2.45-3.44.82-6.79,1.97-10.22,2.85-6.29,1.62-11.9.46-15.78-5.02-3.98-5.62-3.8-11.55.26-17.15Zm52.28-34.8c-1.9-2.55-2.84-4.79-.42-7.55.9-1.02,1.86-2.53,1.79-3.77-.53-10.26,7.02-11.78,14.38-13.92,9.75-2.83,19.31-6.36,29.11-8.99,9.79-2.64,18.03,3.79,17.94,13.85.22,3.86-1.94,7.33-4.43,10.47-6.95,8.75-9.89,18.58-9.35,29.73.43,8.86-2.83,13.75-9.77,16.12-7.43,2.54-13.07-.6-17.37-6.22-7.48-9.77-14.53-19.86-21.87-29.73Zm96.09-67.54c.85-2.38,2.79-1.17,4.2-.68,5.34,1.82,10.62,3.78,16.54,5.91-3.6,5.01-6.98,9.5-10.12,14.15-1.54,2.28-2.96,2.42-5.17.97-4.88-3.19-10.38-4.36-17.35-4.31,4.89-5.35,9.68-9.81,11.9-16.04Zm-73.53-59.88c1,1.01,2,2.07,2.75,3.26,9.79,15.65,23.86,25.17,41.46,30.41,13.27,3.95,19.81,13.74,17.9,24.55-2.11,11.99-13.58,20.66-26.9,20.35,5.97-15.77,2.77-22.83-13.67-28.39-10.49-3.54-18.98-9.13-25.32-18.43-9.99-14.64-18.6-15.83-33.11-4.67-.2-6.51-.64-12.16.92-17.77,4.61-16.53,23.89-21.55,35.98-9.3Zm-44.59-29.16c.69-1.5,2.26-5.78,4.7-3.36,4.14,4.1,7.22,9.3,10.59,14.15,1.17,1.69-.71,2.47-1.68,3.29-4.62,3.91-7.35,9.05-9.77,15.2-2.86-6.38-7.31-11.01-10.8-16.15-3.92-5.76,4.8-8.48,6.96-13.14Zm-93.84,71.16c2.67-3.59,6.18-6.11,10.42-6.97,19.13-3.84,32.68-15.38,43.4-30.91,4.2-6.09,10.08-9.23,17.23-10.03,9.53-1.06,18.84,5.4,21.56,14.97,1.69,5.94,1.95,12.02.95,19.46-2.45-1.82-3.89-2.96-5.41-4-8.78-6.04-18.87-4.96-24.88,4.28-7.79,11.97-17.87,19.36-31.71,23.12-11.81,3.21-14.53,12.66-9.05,27.41-10.54-1.89-19.83-4.97-24.88-14.64-4.06-7.77-2.92-15.57,2.38-22.7Zm-33.02,30.6c-5.08-8.15-5.36-7.97,3.46-10.91,1.12-.37,2.29-.66,3.32-1.2,5.26-2.79,8.89-2.2,11.23,4.04,1.55,4.14,5.47,6.89,9.33,10.45-4.85,1.1-9.2.94-11.99,2.94-8.22,5.89-11.48.88-15.35-5.33Zm66.66,140.41c.66,2.98-9.25,7.92-16.43,8.35-5.27.31-2.57-3.78-3.29-5.97-.07-.21,0-.47-.01-.7-.08-11.75-.05-11.68,10.72-15.45,3.09-1.08,5.99-2.69,9.74-4.4-1.49,6.51-2.03,12.29-.73,18.18Zm-15.76-22.28c-10.79-2.51-18.15-11.08-17.11-22.1,1.7-18.11-3.74-33.6-14.71-47.61-3.86-4.93-6.86-10.36-6.85-16.81.02-12.24,9.72-21.46,22.02-21.11,6.22.18,11.9,2.3,17.39,4.66-.34,2.68-2.4,2.71-3.68,3.59-8.19,5.57-10.53,15.13-5.66,23.73.93,1.64,1.98,3.27,3.22,4.68,8.46,9.63,11.51,20.73,10.66,33.52-.68,10.29,5.16,17.34,13.86,18.46,2.95.38,5.98.06,9.15.06-5.78,14.16-17.02,21.56-28.28,18.95Zm135.09,12.12c-2.72,12.25-14.64,20.16-26.4,15.94-19.24-6.91-37.82-6.69-56.95.21-8.95,3.23-17.45.12-23.66-7.28-6.27-7.48-5.75-15.69-1.37-23.92,2.23-4.19,5.04-7.95,8.98-12.14.74,2.39,1.26,4.02,1.74,5.66,2.95,10.03,11.27,14.88,21.41,12.31,3.9-.99,7.75-2.2,11.56-3.51,7.03-2.42,13.89-2.01,20.9.3,20.92,6.89,24.07,5.51,32.87-14.1,6.52,7.86,13.44,15.23,10.92,26.53Z"/>
  <path class="cls-1" d="m843.23,1108.76c.02,6.81,5.87,12.6,12.76,12.61,6.83.01,12.95-5.93,12.93-12.55-.02-6.56-6.17-12.53-12.96-12.58-7-.05-12.75,5.61-12.73,12.52Z"/>
  <path class="cls-1" d="m926.84,988.83c7.82,9.43,15.76,18.77,23.58,28.2.87,1.05,4.08,2.54-.11,3.6h0c10.8,4.46,20.05,10.52,23.53,22.62.4,1.39,1.35,1.95,3.09,2.18,8,1.04,15.37,4.4,22.86,7.13,9.78,3.56,11.32,9.43,5.27,17.97-1.63,2.3-3.13,4.69-4.69,7.03,14.55,17.32,29.16,34.6,43.64,51.98,15.41,18.48,30.71,37.04,46.01,55.61,1.56,1.89,2.8,4.05,4.17,6.1,24.72-24.61,45.17-52.48,62.89-82.45.13-.22.25-.44.37-.65-26.28-31.79-52.49-63.63-78.85-95.36-28.81-34.69-57.76-69.27-86.62-103.92-.79-.95-1.51-1.95-2.21-2.97-.75,0-1.51,0-2.26,0-41.49.25-82.99.09-124.48.09-1.65,0-3.3-.09-4.91-.43,4.33,6.72,10.15,12.29,15.15,18.46,17.65,21.77,35.65,43.26,53.55,64.83Z"/>
  <path class="cls-1" d="m950.08,1021.37c.51,1.15,1.46,1.85,2.57,2.31,9.16,3.8,16.13,9.77,19.49,19.41.98,2.79,3.33,3.61,6.01,4.29,7.12,1.78,14.1,4.13,20.9,6.86,8.1,3.24,9.33,7.59,4.76,14.86-1.62,2.58-3.87,4.84-4.12,8.12.05.2.12.38.18.57.16-.07.33-.16.49-.23,1.56-2.35,3.06-4.73,4.69-7.03,6.06-8.54,4.51-14.41-5.27-17.97-7.5-2.73-14.86-6.09-22.86-7.13-1.74-.23-2.69-.78-3.09-2.18-3.48-12.1-12.73-18.16-23.53-22.62-.12.12-.25.23-.39.33.05.14.11.28.15.42Z"/>
  <path class="cls-1" d="m1078.61,1012.78c26.35,31.73,52.57,63.57,78.85,95.36.11-.2.22-.4.34-.59-.45-1.91-1.52-3.53-2.8-5.05-14.06-16.69-27.9-33.55-41.82-50.35-36.01-43.46-72.04-86.9-108.03-130.38-4.38-5.29-8.14-11.21-13.28-15.86-.7,0-1.39,0-2.09,0,.7,1.02,1.42,2.02,2.21,2.97,28.86,34.65,57.8,69.23,86.62,103.92Z"/>
  <path class="cls-1" d="m1044.01,1129.53c-14.49-17.38-29.09-34.66-43.64-51.98-.15.13-.29.26-.43.4.93,2.71,2.87,4.79,4.65,6.97,22.02,26.86,44.37,53.44,66.52,80.18,7.4,8.94,13.91,18.74,23.01,26.22.02-.02.05-.05.07-.07-1.37-2.05-2.61-4.2-4.17-6.1-15.3-18.57-30.61-37.13-46.01-55.61Z"/>
  <path class="cls-1" d="m999.94,1077.95c.14-.13.28-.27.43-.4-.16.07-.32.15-.49.23.02.06.04.12.06.17Z"/>
  <path class="cls-1" d="m936.44,1002.82c4.69,5.64,10.65,10.48,13.32,17.66.19.05.37.1.55.14h0c4.19-1.05.98-2.55.11-3.6-7.82-9.43-15.75-18.77-23.58-28.2-17.9-21.57-35.9-43.06-53.55-64.83-5.01-6.18-10.82-11.74-15.15-18.46-.48-.1-.95-.22-1.42-.36-.36-.13-.7-.3-1.02-.49.13,1.57,1.56,2.73,2.57,3.93,26.24,31.25,52.08,62.83,78.17,94.2Z"/>
  <path class="cls-1" d="m950.31,1020.63h0c-.19-.04-.37-.1-.55-.14.06.16.12.31.17.47.13-.1.26-.21.39-.33Z"/>
  <path class="cls-1" d="m968.96,1176.86c-1.37,9.8-4.94,18.44-13.41,24.47-1.41,1.01-2.46,2.09-2.09,4.1,1.46,7.78-.15,15.57-.08,23.37.09,8.62-5.05,12.96-13.21,10.92-8-2.01-15.86-4.75-23.56-7.74-2.22-.86-3.55-1.46-5.55.09-5.56,4.32-11.94,6.29-18.83,6.64,2.91,2.27,4.74,5.62,7.11,8.39,13.41,15.67,26.37,31.71,39.41,47.69,1.39,1.71,3.44,3.21,3.05,5.85,30.26-14.62,59.01-31.79,86.24-51.49.26-.18.51-.38.77-.56-12.81-12.65-23.55-27.08-34.91-40.96-8.36-10.21-17.61-19.72-24.96-30.75Z"/>
  <path class="cls-1" d="m967.41,1177.99c-2.1,8.5-5.95,15.93-12.72,21.73-1.84,1.58-2.79,3.84-2.65,6.38.4,7.13-.9,14.18-.79,21.32.13,8.77-4.13,12.01-12.79,9.83-6.89-1.74-13.66-4.01-20.35-6.46-2.01-.74-4.18-2.11-6.12-.89-6.32,3.98-13.7,5.28-20.36,8.34.22.15.43.3.63.46,6.89-.34,13.27-2.31,18.83-6.64,2-1.56,3.33-.95,5.55-.09,7.7,2.99,15.55,5.73,23.56,7.74,8.15,2.05,13.29-2.3,13.21-10.92-.08-7.79,1.53-15.59.08-23.37-.38-2.01.67-3.09,2.09-4.1,8.47-6.03,12.04-14.66,13.41-24.47-.14-.21-.29-.42-.43-.63-.54.48-.95,1.06-1.13,1.77Z"/>
  <path class="cls-1" d="m998.26,1210.19c-9.68-11.5-19.43-22.94-29.15-34.41h0c-.04.36-.1.71-.15,1.07,7.35,11.03,16.61,20.54,24.96,30.75,11.36,13.88,22.1,28.31,34.91,40.96.01,0,.03-.02.04-.03-.54-1.24-.88-2.64-1.71-3.64-9.58-11.61-19.22-23.18-28.9-34.7Z"/>
  <path class="cls-1" d="m968.96,1176.86c.05-.36.1-.71.15-1.07h0c-.2.13-.39.28-.57.44.14.21.28.42.43.63Z"/>
  <path class="cls-1" d="m938.78,1294.77c-13.04-15.97-26-32.02-39.41-47.69-2.37-2.77-4.2-6.12-7.11-8.39-.57.03-1.15.05-1.73.06h0c17.04,20.65,34.08,41.3,51.13,61.95.06-.03.12-.06.17-.08.39-2.64-1.66-4.14-3.05-5.85Z"/>
  <path class="cls-1" d="m891.62,1238.24c-.37.17-.73.34-1.09.52.58,0,1.15-.03,1.73-.06-.21-.16-.42-.31-.63-.46Z"/>
  <path class="cls-1" d="m1120.49,915.98c24.55,29.68,49.06,59.39,73.79,88.93,1.34,1.6,2.67,3.19,3.55,5.06,8.14-31.26,10.5-63.36,13.67-95.33.74-7.46-.35-8.71-8.16-8.73-30.32-.05-60.63-.11-90.96.02,3.14,2.94,5.4,6.77,8.11,10.05Z"/>
  <path class="cls-1" d="m1161.32,967.87c12.02,14.42,24.16,28.73,36.26,43.08.09-.33.17-.66.25-.98-.88-1.87-2.21-3.46-3.55-5.06-24.73-29.53-49.24-59.25-73.79-88.93-2.71-3.28-4.97-7.11-8.11-10.05-.78,0-1.55,0-2.33,0,2.21,2.67,4.41,5.35,6.62,8.02,14.88,17.98,29.71,35.99,44.65,53.91Z"/>
  <path class="cls-1" d="m774.73,1242.31c-.81-1.07-1.62-2.23-1.33-3.47-14.15,2.81-17.8-.4-17.84-15.36,0-2.58-.18-5.16-.27-7.74-14.23-17.01-28.49-33.99-42.67-51.04-14.95-17.99-29.81-36.05-44.71-54.08-15.2-18.39-30.38-36.8-45.6-55.17-16.88-20.38-33.82-40.71-50.7-61.1-17.32-20.93-34.59-41.9-51.88-62.86-7.29-8.84-14.55-17.7-21.82-26.56-2.17,1.1-1.64,3.63-1.43,5.64,3.37,32.53,5.17,65.27,13.74,97.08,15.8,58.6,42.31,111.57,81.4,158.27,45.67,54.55,101.27,96.19,164.2,128.63,30.57,15.76,62.39,28.46,94.76,39.91-22.76-28.2-46.05-55.96-69.25-83.8-2.27-2.73-4.46-5.52-6.6-8.34Z"/>
  <path class="cls-1" d="m769.93,1237.6c-9.75-.08-12.34-2.63-12.79-12.56-.13-2.82.13-5.68-.67-8.45-.25-.62-.54-1.22-.85-1.8-.11.32-.23.63-.33.95h0c.09,2.58.26,5.16.27,7.74.04,14.97,3.69,18.17,17.84,15.36.03-.12.07-.25.12-.38-.98-1-2.3-.86-3.59-.87Z"/>
  <path class="cls-1" d="m773.39,1238.84c-.29,1.24.52,2.4,1.33,3.47,2.14,2.82,4.32,5.61,6.6,8.34,23.2,27.83,46.5,55.59,69.25,83.8.56.2,1.11.4,1.67.59.16.06.32.13.47.19.26-1.49-1.18-2.42-2.1-3.54-25.61-30.97-51.22-61.95-76.82-92.92h0c-.13.03-.26.05-.39.08Z"/>
  <path class="cls-1" d="m773.39,1238.84c.13-.03.26-.05.39-.08h0c-.09-.12-.18-.21-.27-.3-.05.13-.09.25-.12.38Z"/>
  <path class="cls-1" d="m571.61,994.35c16.87,20.39,33.81,40.72,50.7,61.1,15.22,18.37,30.4,36.78,45.6,55.17,14.9,18.03,29.76,36.09,44.71,54.08,14.17,17.05,28.44,34.03,42.67,51.04h0c.07-.41.13-.81.19-1.21-1.25-2.24-2.89-4.21-4.53-6.18-19.53-23.57-39.08-47.11-58.54-70.73-27.9-33.88-55.96-67.62-83.89-101.48-33.36-40.45-66.91-80.74-100.32-121.14-2.91-3.52-5.31-7.63-8.96-10.49-.53.09-.97.24-1.34.42,7.27,8.86,14.53,17.72,21.82,26.56,17.28,20.96,34.56,41.93,51.88,62.86Z"/>
  <path class="cls-1" d="m755.62,1214.79c-.05-.09-.09-.18-.14-.27-.06.4-.12.8-.19,1.21h0c.11-.31.22-.63.33-.95Z"/>
  <path class="cls-1" d="m624.89,915.91c33.92,40.8,67.8,81.63,101.56,122.56,1.88,2.28,4.77,4.52,2.69,7.5,4.32.34,7.15-.93,8.87-6.15,3.09-9.34,10.34-15.38,19.79-17.8,18.08-4.64,32.09-14.54,42.35-30.13,2.32-3.53,5.74-6.35,8.72-9.45-6.76-3.72-10.37-10.58-15.12-16.18-15.8-18.61-31.08-37.67-46.81-56.34-1.42-1.68-3.13-3.26-3.37-5.48-42.88.23-85.76.27-128.64.01,4.14,3.02,6.74,7.61,9.94,11.46Z"/>
  <path class="cls-1" d="m738.53,1042.39c4.46-11.06,12.89-17.13,23.94-20.27,2.73-.77,5.41-1.73,8.06-2.73,18.09-6.82,28.43-21.69,38.44-36.9-.03-.02-.06-.03-.09-.05-2.98,3.1-6.4,5.91-8.72,9.45-10.26,15.59-24.27,25.49-42.35,30.13-9.46,2.43-16.71,8.46-19.79,17.8-1.73,5.22-4.55,6.49-8.87,6.15-.09.13-.2.26-.31.39,4.72,3.08,7.86.58,9.69-3.96Z"/>
  <path class="cls-1" d="m793.76,966.26c4.75,5.6,8.36,12.46,15.12,16.18.13-.13.26-.27.39-.4t0,0c-13.44-16.07-27.08-31.97-40.23-48.27-7.92-9.81-16.67-18.95-23.91-29.31-.41,0-.83,0-1.24-.01-.1,0-.2,0-.3,0,.23,2.21,1.95,3.8,3.37,5.48,15.73,18.68,31,37.74,46.81,56.34Z"/>
  <path class="cls-1" d="m808.98,982.48c.1-.15.2-.3.3-.45-.13.14-.26.27-.39.4.03.02.06.03.09.05Z"/>
  <path class="cls-1" d="m719.73,1033.08c3.12,3.86,8.75,6.5,8.39,12.78.35.04.69.08,1.02.1,2.07-2.98-.81-5.22-2.69-7.5-33.76-40.93-67.64-81.76-101.56-122.56-3.2-3.85-5.81-8.44-9.94-11.46-.61,0-1.22,0-1.84,0,13.39,15.95,26.85,31.85,40.15,47.88,22.27,26.83,44.57,53.64,66.47,80.77Z"/>
  <path class="cls-1" d="m729.15,1045.96c-.33-.03-.67-.06-1.02-.1.24.18.48.34.72.49.11-.13.22-.26.31-.39Z"/>
  <path class="cls-1" d="m1215.48,860.56c1.4-5.36.75-10.79.56-16.21-.07-25.97-.12-51.94-.02-77.9.28-5.15.81-10.32-.72-15.39-1.04-6.77-.47-13.59-.6-20.39.26-3.26.33-6.5-.75-9.66-.83-4.42-.54-8.9-.61-13.35.19-3.14.29-6.28-.76-9.33-.64-3.13-.59-6.31-.62-9.48.26-2.8-.11-5.52-.93-8.2-4.88-43.6-9.49-87.23-17.47-130.42-1.86-10.03-4.16-19.98-5.75-30.06-.96-6.12-4.14-8.8-10.12-9.92-30.1-5.61-60.43-9.62-90.8-13.4-19.05-2.37-38.25-3.42-57.26-6.22-2.68-.79-5.4-1.23-8.21-.95-3.57-.05-7.14.11-10.67-.59-2.64-.86-5.35-1.05-8.11-.83-4.01-.05-8.03.19-12-.57-3.49-1.19-7.09-.99-10.68-.81-4.52-.06-9.06.25-13.55-.58-4-1.34-8.12-.99-12.22-.8-6.39-.13-12.8.45-19.16-.57-5.85-1.72-11.82-.89-17.75-.82-8.75-.18-17.52.58-26.25-.55-6.75-1.96-13.66-.72-20.5-1.04-5.21-.49-10.61,1.11-15.62-1.46-.04-.05-.07-.1-.12-.15-.09.09-.16.19-.27.28-2.81,1.69-5.96,1.49-9.01,1.4-28.72-.81-57.44.24-86.08,1.67-75.62,3.77-150.96,10.61-225.57,24.03-11.08,1.99-11.1,2.11-13.34,13.23-9.98,49.61-16.75,99.67-21.28,150.06-3.38,37.57-4.56,75.22-6.02,112.9-.98,25.45,1.79,50.7.6,76.06-.34,7.35.75,8.18,8.18,8.19,50.8.08,101.6.04,152.4.02,1.84,0,4.17.64,5.32-1.13,1.47-2.26-.72-3.99-1.86-5.61-7.08-10.11-13.95-20.36-21.5-30.14-3.73-4.83-8.45-8.26-13.92-10.79-14.87-6.86-29.89-13.4-45.13-19.39-3.32-1.3-6.61-2.67-9.73-4.39-2.32-1.28-4.84-2.86-3.46-6.05,1.3-3.03,4.15-2.64,6.8-2.09,1.63.33,3.2.9,4.78,1.39,45.26,14.2,91.89,21.57,138.76,27.71,5.38.7,7.32-1.24,7.36-6.5.04-4.9-1.13-10,1.51-14.65.17,0,.32,0,.48,0,0-.07,0-.15,0-.23-10.92,1.87-21.65,4.2-30.46,11.61-.74.62-1.62.95-2.37-.09t0,0c-18.77-15.03-26.18-42.83-16.99-63.26,2.06-4.58,4.94-7.47,9.94-9.15,30.71-10.31,61.3-20.98,91.94-31.5,2.16-.74,4.42-1.21,6.14-2.87,0-.04,0-.08,0-.12-24.54,1.56-48.77,4.87-72.3,12.39-10.26,3.28-19.89,7.54-27.33,15.69-.72.79-1.61,1.96-2.79.43-10.14-8.81-10.46-20.63-9.59-32.58.37-5.12,1.55-10.32,3.23-15.19,3.87-11.26,9.24-20.92,22.74-23.61,8.49-1.69,16.54-5.57,24.84-8.27,2.72-.88,4.74-1.8,4.61-5.18-.38-9.67.91-19.37-.44-29.03h0s0,0,0,0c-4.61.52-9.22,1.04-13.83,1.56,0,0,0,0,0,0-1.66,2.04-1.69,5.85-5.75,5.26-8.16,1.68-16.42,1.35-25.15.08l22.17-7.38h0c2.51-1.22,2.72-4.93,5.89-5.43h0c7.47-3.5,15.34-5.83,24.16-8.47v43.97c9.88-1.67,18.82-6.3,28.36-9.06,1.73-.5,3.84-2.28,5.16-.97,1.59,1.58.61,3.98-.61,5.86,0,0,0,0,0,0,0,0,0,0,0,0-2.31,22.13,3.14,41.85,18.26,58.55,0,0,0,0,0,0,0,0,0,0,0,0,1.85,4.56.52,8.9-.54,13.26-.04.76-.34,1.6-.53,2.36-1.69,21.81,4.63,41.75,14.22,60.93.2.12.37.26.55.39.37-.1.69-.29.96-.56-.07-.37-.12-.75-.16-1.12-4.82-15.86-2.93-30.9,5.49-45.16,2.6-4.4,5.86-7.45,11.05-9.21,37.5-12.65,74.89-25.65,112.31-38.55,1.29-.44,2.54-1.01,3.7-2.76h-8.68s0,0,0,0h0c-25.17,2.18-50.24,4.89-74.12,13.95-12.97,4.92-24.55,11.98-34.18,22.08-2.1,2.79-3.16.42-4.06-.98-10.09-15.75-16.59-32.54-13.01-51.62,2.12-11.31,7.84-19.71,19.74-23.65,29.64-9.81,59.06-20.27,88.57-30.47,1.79-.62,3.87-.83,5.3-1.91,1.34-1.01-.65-1-1.08-1.5,0,0,0,0,0,0,0,0,0,0,0,0-25.61,1.31-50.76,5.11-74.77,14.56-8.64,3.4-16.67,7.9-22.45,15.54-4.02.97-5.61.43-8.2-4.34-6.17-11.37-7.01-23.36-3.39-35.72,1.68-5.73,4.49-10.91,7.46-16.05,2.26-3.91,5.33-6.26,9.66-7.68,11.92-3.89,23.68-8.24,35.59-12.17,3.41-1.12,4.99-2.69,4.81-6.49-.32-6.62-.12-13.26-.14-19.89,0,0,0,0,0,0-4.7.5-9.41,1-14.11,1.51,0,0,0,0,0,0h0c-1.47,4-3.85,6.51-8.55,5.23-7.21.48-14.42.95-21.63,1.43-.17-.64-.34-1.28-.51-1.92,7.84-2.6,15.68-5.19,23.52-7.79h0c1.42-2.34,2.65-4.88,5.75-5.44h0c7.3-2.47,14.6-4.94,22.69-7.68v36c13.34-2.68,25.51-8.98,39.13-12.64.17,2.68-.16,4.96-1.77,7.01h0c-5,20.15.17,37.95,12.5,54.09,0,0,0,0,0,0h0c2.14,1.49,1.94,3.53,1.34,5.66-3.07,26.02,6.25,48.14,21.52,68.39,0,0,0,0,0,0h0c1.52,4.49.51,8.77-.62,13.04.03.8-.36,1.73-.67,2.56-5.03,39.2,11,71.56,33.53,103.92.23-.06.46-.15.66-.31,0-3.17-.01-4.97,0-6.77.56-62.15,1.03-124.3,1.81-186.44.08-6.46-.52-10.11-8.14-7.55-1.96.66-4.23.41-6.36.58h0c-2.82,8.21-9.67,6.61-15.89,6.53-4.83.24-9.66.48-14.49.72l-.41-1.72c7.32-2.45,14.64-4.9,21.96-7.35,2.34-1.37,2.81-4.79,5.89-5.35h0c6.04-2.08,12.21-3.87,18.1-6.33,4.96-2.08,5.94-.6,5.93,4.31-.03,26.1.21,52.19.36,78.29,21.17-5.92,41.56-14.15,62.42-21.01,6.93-2.28,13.81-4.76,21.37-7.37.14,4.37.75,8.15-1.31,11.76-.94,12.52-2.87,24.93-3.12,37.53-.53,27.09,6.48,52.04,20.58,74.99,2.86,4.65,2.03,5.9-2.88,7.56-28.66,9.7-57.14,19.97-85.84,29.54-6.94,2.32-11.54,5.15-10.49,12.57.06-.01.13-.02.19-.04,26.69-2.26,53.13-6.33,79.53-10.74,9.95-1.66,12.51,1.43,8.79,10.72-3.83,9.57-9.64,17.86-16.97,25.16-11,10.95-11.66,15.31-5.04,29.55.78,1.67,1.65,3.3,1.12,5.22,1.65,1.3,3.6.76,5.41.76,52.49.03,104.99.03,157.48,0,.86-.2,1.71-.54,2.51-1.11,2.76-2.82,1.48-6.66,2.48-9.92Zm-551.26-181.84s0,0,0,0c-7.93,17.5-14.35,35.44-17.62,54.5-2.97,17.28-2.36,34.49-.28,51.69.56,4.66-.64,5.51-4.66,4.61-4.39-.98-8.79-1.9-13.19-2.84-18.34-1.9-36.57-5.11-55.16-4.03-5.57.32-2.33-3.43-1.53-5.16,7.87-17.09,17.85-32.92,29.65-47.55,17.35-21.52,36.84-40.83,59.91-56.28,2.31-1.55,4.75-2.91,8.18-3.5-1.76,2.86-3.53,5.72-5.29,8.58Z"/>
  <path class="cls-1" d="m737.36,811.27c-.2,6.04,1.53,8.99,8.15,9.46,15.09,1.07,30.19,1.8,45.29,2.28,20.32.64,40.68-.25,61,.38.78.07,1.56.22,2.32.42-2.35-5.32-.82-11.05-.92-16.55-.09-5.16-1.81-6.27-6.4-4.52-6.25,2.38-12.09,5.36-17,10.01-1.66,1.57-2.99,3.87-5.9,3.13-.16-.32-.3-.64-.45-.96-4.62-2.76-7.68-7.15-10.72-11.33-2.02-2.77-4.32-4.68-7.18-5.92-.81.51-1.92.88-3.38,1.07-17.27-.59-34.41-3.31-51.77-2.67-5.03.18-10.3,2.9-15.21-.64,0,.09,0,.18,0,.27.23.05.48.11.75.21,2.54,4.92,1.58,10.24,1.41,15.35Z"/>
  <path class="cls-1" d="m956.1,803.57c-21.4-4-42.9-6.76-64.66-7.49-5.46-.18-10.84.58-16.23,1.26-7.7.98-8.02,1.26-8.17,9.27-.07,3.78.02,7.56-.05,11.34-.04,2.03-.1,4.06-1,5.86.44-.1.89-.19,1.34-.25,4.73-.51,9.48-.54,14.18-.28,15.07.85,29.72-.6,43.73-6.68,5.76-2.5,12.1-2.21,18.16-2.78,8.69-.82,17.42-1.26,26.13-1.88.03,0,.07,0,.1,0-2.39-5.65-7.49-7.23-13.55-8.36Z"/>
</svg>