<?xml version="1.0" encoding="UTF-8"?>
<svg id="Capa_1" data-name="Capa 1" xmlns="http://www.w3.org/2000/svg" viewBox="0 0 1713 1713">
  <defs>
    <style>
      .cls-1 {
        fill: #170f1c;
        stroke-width: 0px;
      }
    </style>
  </defs>
  <path class="cls-1" d="m1525.45,271.35c-7.14-6.09-13.65-12.93-20.36-19.52-76.87-75.5-153.76-150.97-230.47-226.62-3.94-3.89-6.67-4.02-11.42-1.8-30.03,14.07-59.52,29.34-91.62,38.66-88,25.56-178.39,33.21-269.35,35.83-72.2,2.08-144.3-.43-216.2-8.33-81.71-8.97-161.18-25.49-234.22-65.35-2.38-1.3-4.97-2.19-7.54-3.31-2.37.04-3.46,2.07-4.88,3.47-84.24,82.72-168.43,165.5-252.75,248.13-3.9,3.82-4.33,6.55-1.85,11.48,10.97,21.85,22.2,43.62,31.89,66.05,54.51,126.25,78.54,259.42,87.32,395.71,4.33,67.16,9.06,134.16,19.95,200.65,15,91.54,38.31,180.73,73.03,266.83,54.26,134.55,131.9,252.94,241.99,348.71,63.33,55.09,133.49,99.06,212.26,128.76,3.05,1.15,5.68,2.05,9.39.59,33.2-13.05,65.68-27.53,96.51-45.6,149.69-87.74,256.33-214.17,331.06-369.04,73.1-151.5,106.97-312.87,117.91-479.6,4.42-67.46,8.91-134.79,20.28-201.53,11.75-68.97,28.56-136.53,52.56-202.3,13.6-37.26,31.01-72.75,48.95-108.01,2.98-5.85,2.64-9.56-2.42-13.88Zm-37.62,19.2c-40.25,78.19-66.01,161.32-84.04,247.04-12.04,57.26-20.26,115.09-24.88,173.43-4.67,58.9-6.53,118.02-14.18,176.7-21.94,168.26-68.82,328.05-161.04,472.19-71.18,111.24-162.83,201.31-279.43,264.79-19.64,10.69-40.04,19.82-60.79,28.23-4.63,1.87-8.17.81-12.07-.75-64.08-25.54-121.75-61.73-174.68-105.67-120.03-99.65-201-226.32-255.59-371-32.45-86.01-53.5-174.95-66.26-265.95-7.33-52.29-11.15-104.83-14.36-157.5-8.75-143.7-33.49-284.04-90.87-417.18-6.56-15.23-14.1-30.05-21.51-44.9-2.18-4.37-2.24-7.09,1.62-10.86,72.71-71.08,145.27-142.3,217.7-213.66,3.79-3.73,6.54-3.91,10.94-1.63,64.07,33.2,133.43,47.2,204.16,56.6,86.85,11.54,174.13,13.07,261.44,10.28,86.99-2.79,173.42-11.33,257.47-35.97,26.15-7.67,51.25-17.94,75.45-30.45,4.55-2.35,7.98-3.07,12.57,1.46,71.65,70.85,143.57,141.43,215.39,212.12,2.08,2.04,4.94,3.58,5.61,7.06-.86,1.83-1.68,3.77-2.64,5.63Z"/>
  <path class="cls-1" d="m1484.87,277.86c-71.81-70.69-143.74-141.27-215.39-212.12-4.58-4.53-8.01-3.81-12.57-1.46-24.19,12.51-49.3,22.79-75.45,30.45-84.05,24.64-170.48,33.19-257.47,35.97-87.31,2.8-174.59,1.26-261.44-10.28-70.73-9.39-140.09-23.4-204.16-56.6-4.4-2.28-7.15-2.1-10.94,1.63-72.43,71.36-144.99,142.58-217.7,213.66-3.86,3.77-3.79,6.49-1.62,10.86,7.4,14.85,14.94,29.67,21.51,44.9,57.38,133.14,82.11,273.47,90.87,417.18,3.21,52.66,7.02,105.21,14.36,157.5,12.76,91.01,33.8,179.94,66.26,265.95,54.59,144.67,135.56,271.35,255.59,371,52.93,43.94,110.6,80.13,174.68,105.67,3.9,1.55,7.44,2.62,12.07.75,20.75-8.4,41.15-17.53,60.79-28.23,116.61-63.48,208.26-153.54,279.43-264.79,92.22-144.14,139.09-303.93,161.04-472.19,7.65-58.69,9.52-117.8,14.18-176.7,4.62-58.34,12.85-116.17,24.88-173.43,18.02-85.73,43.79-168.86,84.04-247.04.96-1.87,1.79-3.8,2.64-5.63-.66-3.47-3.53-5.01-5.61-7.06Zm-869.21,213.07c51.15-49.98,113.58-79.19,183.98-91.53,6.83-1.2,9.2.34,8.65,7.55-.64,8.45-.15,16.99-.15,25.49,0,8.5-.35,17.02.13,25.49.3,5.34-1.61,7.43-6.7,8.46-117.37,23.81-205.53,113.52-227.35,231.18-27.47,148.11,72.34,296.99,220.2,328.47,2.66.57,5.3,1.46,7.99,1.64,4.81.31,5.84,2.88,5.8,7.24-.18,18.21-.25,36.43.04,54.63.09,5.43-2.16,5.9-6.58,5.16-48.88-8.28-94.54-24.95-135.98-52.38-79.54-52.65-132.27-124.91-152.05-218.35-27.33-129.11,7.73-240.89,102.02-333.03Zm124.65,285.06c-18.8.55-37.65.58-56.45,0-8.13-.25-8.45,2.14-6.84,9.2,5.81,25.42,16.31,48.56,31.52,69.66,1.53,2.12,3.83,3.76,3.82,6.94-.08,29.31-.05,58.61-.05,89.35-24.65-17.44-44.6-37.45-60.94-60.96-100.87-145.17-25.02-345.06,146.77-386.99q9.98-2.44,10,8.22c0,156.94,0,313.87,0,470.81,0,10.99-.02,11.04-10.71,8.24-13.74-3.59-27.07-8.34-40.25-13.64-6.16-2.48-8.43-5.67-8.39-12.55.31-59.8.05-119.6.35-179.4.04-7.06-1.65-9.09-8.83-8.88Zm171.87,419.62c-63.69,109.8-127.45,219.55-190.98,329.44-3.67,6.35-5.95,6.39-11.52,1.93-94.22-75.58-164.87-169.61-217.55-277.64-40.7-83.46-68.37-171.33-87.19-262.1-.77-3.7-.76-6.98,1.27-10.44,23.13-39.46,46.15-79,69.21-118.5.26-.45.83-.72,1.61-1.36,31.13,100.2,90.66,178.37,181.4,231.26,90.47,52.73,187.52,65.62,291.01,42.87-12.89,22.34-25.03,43.47-37.26,64.55Zm103.55-134.74c-13.41,6.25-26.97,12.07-40.68,17.61-5.79,2.34-8.05,1.01-10.48-4.7-18.85-44.12-38.08-88.08-57.22-132.07-1.48-3.41-3.14-6.73-4.72-10.1-.52.13-1.03.25-1.55.37v9.69c0,48.58-.15,97.16.17,145.74.05,7.12-1.95,9.08-9.04,9.69-14.54,1.27-29.06,1.42-43.62,1.66-5,.08-7.51-1.13-6.71-6.52.22-1.49.03-3.03.03-4.55,0-227.42.05-454.84-.2-682.26,0-8.33,2.13-10.31,10.31-10.34,37.53-.15,74.45,3.77,109.8,16.76,28.62,10.52,41.26,29.96,41.28,60.56.05,114.77-.54,229.55.36,344.32.29,36.35-13.96,63.08-43.86,82.14-6.27,4-6.45,6.93-3.44,13.37,21.41,45.61,42.18,91.52,63.46,137.19,2.75,5.89,2.56,8.44-3.88,11.44Zm164.75-204.28c-19.09,32.31-45.1,57.54-78.46,74.89-4.18,2.17-5.4,4.56-5.34,9.04.25,18.81.12,37.63.09,56.45,0,3.25.4,6.32-2.62,9.09-16.96,15.53-35.26,29.2-55.62,41.71V446.25c20.85,12.35,39.51,26.53,56.72,42.62,61.72,57.71,98.97,128.44,110.25,212.12,7.3,54.08,3.66,107.05-25.03,155.61Zm256.9-566.06c-66.57,114.4-132.96,228.9-199.4,343.38-.29.5-.79.88-2.05,2.25-31.39-100.15-90.9-177.98-181.33-230.62-90.41-52.63-187.44-65.61-290.72-42.79,13.28-22.93,25.82-44.65,38.43-66.33,23.45-40.32,47-80.59,70.32-120.98,2.96-5.12,6.01-7.66,12.54-7.71,57.04-.5,113.94-3.75,170.54-11.11,67.16-8.73,133.39-21.41,195.65-49.54,4.38-1.98,6.83-1.51,10.18,1.79,38.88,38.36,77.93,76.55,116.92,114.81,19.06,18.7,38,37.53,57.2,56.09,3.63,3.51,4.47,6.05,1.73,10.76Z"/>
  <path class="cls-1" d="m942.71,475.33c-6.88-7.4-20.74-6.37-31.46-9.32-8.94-2.47-10.37.02-10.35,8.52.25,123.28.17,246.56.17,369.85v9.93c14.12-5.68,25.3-13.65,35.73-23.01,5.57-5,7.91-10.31,7.89-18.07-.29-102.63-.14-205.27-.27-307.9-.01-10.25,4.38-23.44-1.71-30Z"/>
  <path class="cls-1" d="m748.97,600.25c-1.17-.3-1.56-.53-1.7-.42-37.89,28.41-60.96,66.16-70.96,112.24-1.31,6.03,2.12,5.53,5.97,5.51,19.99-.06,39.99-.28,59.97.13,5.99.12,6.85-2.09,6.83-7.32-.2-36.65-.1-73.3-.1-110.14Z"/>
  <path class="cls-1" d="m1097.18,592.01v261.4c15.75-9.17,25.33-22.34,32.42-37.57,11.8-25.36,13.93-52.28,13.01-79.82-1.73-51.46-17.14-98.51-45.43-144.01Z"/>
</svg>