<?xml version="1.0" encoding="UTF-8"?>
<svg id="Capa_1" data-name="Capa 1" xmlns="http://www.w3.org/2000/svg" viewBox="0 0 1713 1713">
  <defs>
    <style>
      .cls-1 {
        fill: #010101;
      }

      .cls-1, .cls-2, .cls-3 {
        stroke-width: 0px;
      }

      .cls-2 {
        fill: #fff;
      }

      .cls-3 {
        fill: #db231f;
      }
    </style>
  </defs>
  <path class="cls-1" d="m443.81,20.02c2.57,1.12,5.17,2.01,7.55,3.31,73.11,39.91,152.67,56.44,234.47,65.42,71.98,7.9,144.15,10.42,216.43,8.34,91.06-2.62,181.55-10.28,269.65-35.87,32.14-9.34,61.66-24.62,91.72-38.71,4.76-2.23,7.49-2.09,11.44,1.8,76.79,75.74,153.77,151.29,230.72,226.87,6.72,6.6,13.24,13.44,20.38,19.54,5.06,4.32,5.41,8.03,2.42,13.89-17.96,35.29-35.39,70.82-49.01,108.13-24.03,65.84-40.86,133.48-52.62,202.52-11.38,66.82-15.87,134.22-20.3,201.75-10.94,166.92-44.86,328.46-118.04,480.13-74.8,155.04-181.57,281.6-331.42,369.44-30.86,18.09-63.38,32.59-96.61,45.65-3.72,1.46-6.34.56-9.4-.59-78.86-29.74-149.1-73.75-212.49-128.9-110.22-95.87-187.94-214.4-242.26-349.09-34.76-86.19-58.09-175.48-73.11-267.12-10.91-66.56-15.64-133.64-19.98-200.87-8.79-136.44-32.84-269.75-87.42-396.14-9.69-22.45-20.94-44.25-31.92-66.12-2.48-4.94-2.05-7.67,1.85-11.49,84.42-82.72,168.7-165.59,253.03-248.4,1.43-1.4,2.51-3.43,4.89-3.47Z"/>
  <path class="cls-2" d="m1491.17,284.3c-.86,1.84-1.69,3.77-2.65,5.64-40.29,78.27-66.09,161.49-84.13,247.31-12.05,57.32-20.28,115.22-24.91,173.62-4.67,58.97-6.54,118.14-14.2,176.9-21.97,168.44-68.89,328.41-161.21,472.7-71.25,111.36-163,201.53-279.74,265.08-19.67,10.71-40.09,19.84-60.86,28.26-4.63,1.88-8.18.81-12.08-.75-64.15-25.57-121.88-61.8-174.87-105.79-120.16-99.75-201.22-226.57-255.87-371.4-32.49-86.11-53.56-175.14-66.33-266.24-7.34-52.35-11.16-104.95-14.37-157.67-8.76-143.86-33.53-284.35-90.97-417.63-6.57-15.24-14.12-30.08-21.53-44.94-2.18-4.37-2.24-7.1,1.62-10.87,72.79-71.15,145.43-142.45,217.94-213.89,3.79-3.74,6.55-3.91,10.95-1.63,64.14,33.24,133.58,47.26,204.39,56.66,86.95,11.55,174.32,13.09,261.73,10.29,87.09-2.79,173.61-11.34,257.75-36.01,26.18-7.67,51.31-17.96,75.53-30.49,4.56-2.36,7.99-3.08,12.58,1.46,71.73,70.93,143.73,141.58,215.62,212.35,2.08,2.05,4.95,3.59,5.61,7.06Z"/>
  <path class="cls-3" d="m1236.35,635.93c-31.42-100.26-91-178.17-181.53-230.87-90.51-52.69-187.64-65.68-291.03-42.84,13.3-22.96,25.85-44.7,38.47-66.4,23.47-40.37,47.05-80.67,70.4-121.11,2.96-5.13,6.02-7.66,12.55-7.72,57.1-.5,114.07-3.76,170.72-11.12,67.24-8.74,133.54-21.43,195.86-49.59,4.38-1.98,6.83-1.51,10.19,1.79,38.92,38.4,78.01,76.64,117.04,114.93,19.08,18.72,38.04,37.57,57.26,56.15,3.63,3.51,4.47,6.06,1.73,10.77-66.64,114.53-133.11,229.15-199.62,343.75-.29.5-.79.88-2.05,2.25Z"/>
  <path class="cls-3" d="m476.62,856.93c31.17,100.31,90.76,178.57,181.6,231.51,90.57,52.78,187.73,65.7,291.33,42.91-12.91,22.36-25.06,43.52-37.3,64.62-63.76,109.92-127.59,219.79-191.19,329.8-3.67,6.35-5.96,6.4-11.53,1.93-94.32-75.66-165.05-169.79-217.79-277.94-40.75-83.55-68.44-171.51-87.28-262.39-.77-3.7-.76-6.98,1.27-10.45,23.16-39.51,46.2-79.09,69.29-118.63.26-.45.84-.72,1.61-1.37Z"/>
  <path class="cls-1" d="m901.12,932.07c0,3.23,0,6.47,0,9.7,0,48.63-.15,97.27.17,145.9.05,7.12-1.95,9.09-9.05,9.7-14.56,1.27-29.1,1.42-43.67,1.66-5.01.08-7.52-1.13-6.72-6.52.22-1.49.03-3.03.03-4.55,0-227.67.05-455.33-.2-683,0-8.34,2.13-10.32,10.32-10.35,37.57-.15,74.53,3.77,109.92,16.78,28.65,10.53,41.31,30,41.32,60.62.05,114.9-.54,229.8.36,344.69.29,36.39-13.97,63.15-43.9,82.23-6.28,4-6.46,6.94-3.44,13.38,21.43,45.66,42.22,91.62,63.53,137.34,2.75,5.9,2.56,8.45-3.88,11.45-13.43,6.26-27,12.08-40.73,17.63-5.8,2.34-8.06,1.01-10.5-4.7-18.87-44.17-38.13-88.17-57.29-132.22-1.48-3.41-3.15-6.74-4.73-10.11-.52.12-1.03.25-1.55.37Z"/>
  <path class="cls-1" d="m712.17,951.24c-24.68-17.46-44.65-37.49-61.01-61.02-100.98-145.33-25.04-345.44,146.93-387.41q10-2.44,10.01,8.23c0,157.11,0,314.22,0,471.32,0,11-.02,11.05-10.73,8.25-13.75-3.59-27.09-8.35-40.29-13.66-6.17-2.48-8.43-5.68-8.4-12.56.31-59.86.05-119.73.35-179.59.04-7.07-1.65-9.1-8.84-8.89-18.82.55-37.69.59-56.51,0-8.14-.25-8.46,2.14-6.85,9.21,5.82,25.45,16.32,48.61,31.56,69.73,1.53,2.12,3.84,3.77,3.83,6.95-.08,29.34-.05,58.68-.05,89.44Z"/>
  <path class="cls-1" d="m808.1,431.98c0,8.51-.35,17.04.13,25.52.3,5.34-1.62,7.43-6.71,8.47-117.5,23.84-205.76,113.65-227.6,231.43-27.5,148.27,72.42,297.31,220.44,328.83,2.67.57,5.31,1.46,8,1.64,4.81.31,5.85,2.89,5.81,7.25-.18,18.23-.25,36.47.04,54.69.09,5.43-2.17,5.91-6.58,5.16-48.93-8.29-94.64-24.97-136.13-52.44-79.63-52.71-132.42-125.05-152.22-218.59-27.36-129.25,7.74-241.16,102.13-333.4,51.2-50.04,113.7-79.27,184.18-91.63,6.84-1.2,9.21.34,8.66,7.55-.64,8.46-.15,17-.15,25.51Z"/>
  <path class="cls-1" d="m1038.74,1047.99V445.8c20.87,12.36,39.55,26.56,56.78,42.66,61.79,57.77,99.07,128.58,110.37,212.35,7.3,54.14,3.66,107.17-25.06,155.78-19.11,32.34-45.14,57.61-78.55,74.97-4.18,2.17-5.41,4.56-5.35,9.05.25,18.84.12,37.68.09,56.51,0,3.25.4,6.33-2.62,9.1-16.98,15.55-35.29,29.23-55.68,41.76Z"/>
  <path class="cls-2" d="m901.12,854.3v-9.94c0-123.42.08-246.83-.17-370.25-.02-8.51,1.41-11,10.36-8.53,10.73,2.96,24.6,1.92,31.49,9.33,6.1,6.56,1.7,19.77,1.71,30.03.13,102.75-.02,205.49.27,308.24.02,7.76-2.31,13.08-7.89,18.09-10.45,9.37-21.64,17.34-35.77,23.03Z"/>
  <path class="cls-2" d="m748.86,599.97c0,36.89-.09,73.57.1,110.26.03,5.23-.83,7.45-6.83,7.32-20-.41-40.02-.19-60.04-.13-3.86.01-7.29.52-5.98-5.52,10.01-46.13,33.11-83.92,71.04-112.36.14-.11.53.12,1.7.42Z"/>
  <path class="cls-2" d="m1097.44,591.73c28.32,45.55,43.75,92.66,45.47,144.17.92,27.57-1.21,54.52-13.02,79.91-7.1,15.25-16.69,28.44-32.45,37.61v-261.69Z"/>
</svg>