<?xml version="1.0" encoding="UTF-8"?>
<svg id="Capa_1" data-name="Capa 1" xmlns="http://www.w3.org/2000/svg" viewBox="0 0 1713 1713">
  <defs>
    <style>
      .cls-1 {
        fill: #fff;
        stroke-width: 0px;
      }
    </style>
  </defs>
  <g>
    <path class="cls-1" d="m856.5,1313.05c-235.68,0-427.43-191.75-427.43-427.43v-420.46c0-235.68,191.75-427.43,427.43-427.43s427.43,191.75,427.43,427.43v420.46c0,235.68-191.75,427.43-427.43,427.43Zm0-1227.75c-209.46,0-379.86,170.41-379.86,379.86v420.46c0,209.45,170.4,379.86,379.86,379.86s379.86-170.41,379.86-379.86v-420.46c0-209.45-170.4-379.86-379.86-379.86Z"/>
    <g>
      <animateTransform
        attributeName="transform"
        begin="0s"
        dur="1.5s"
        type="translate"
        from="0 0"
        to="0 300"
        repeatCount="indefinite"
      />
    <circle class="cls-1" cx="856.5" cy="395.67" r="77.62"/>
    </g>
  </g>
  <polygon class="cls-1" points="856.5 1675.28 735.74 1555.82 757.58 1533.75 856.5 1631.61 955.42 1533.75 977.26 1555.82 856.5 1675.28"/>
</svg>