<?xml version="1.0" encoding="UTF-8"?>
<svg id="Capa_1" data-name="Capa 1" xmlns="http://www.w3.org/2000/svg" viewBox="0 0 1713 1713">
  <defs>
    <style>
      .cls-1 {
        fill: #bbbabc;
        fill-rule: evenodd;
        stroke-width: 0px;
      }

      .cls-2 {
        opacity: .22;
      }
    </style>
  </defs>
  <g class="cls-2">
    <g>
      <path class="cls-1" d="m719.04,107.28c70.51-35.77,201.86-96.04,316.98-89.25-19.57,16.78-124.53,100-160.9,134.43,51.84,20.01,158.17,60.18,190.76,85.88-64.2,2.82-189.19,9.43-264.09,10.53-25.66,38.59-70.25,146.64-80.12,209.46-42.13-29.87-83.82-105.54-118.83-162.28-53.48,8.14-144.86,47.27-193.54,61.47,46.09-64.32,84.69-104.87,146.69-154.14-18.93-34.39-41.19-92.06-48.2-130.35,124.97,1.32,179.56,29.18,211.25,34.25h0Z"/>
      <path class="cls-1" d="m468.34,809.96c56.23-41.22,155.83-87.86,217.49-99.23-4.06-112.34,14.29-175.16,25.17-260.38,52.57,75.22,88.2,138.88,138.05,199.16,90.64-24.91,192.14-56.62,274.64-74.76-71.13,100.11-112.4,152.73-165.88,227.06,58.46,78.22,119.6,143.09,180.75,207.86.49.51.97,1.04,1.45,1.53-88.83-9.09-192.59-38.53-273.28-62.54-50.31,65.73-88.41,143.67-134.63,216.19-23.55-71.65-43.03-173.17-47.57-270.61-70.71-26.75-141.42-53.48-216.19-84.29h0Z"/>
      <path class="cls-1" d="m1437.54,364.88c103.7,54.09,162.09,125.08,207.66,187.28-48.2-6.33-99.77-13.33-154.72-14.93,11.28,64.51,15.12,152.01,11.52,228.02-47.38-78.5-105.19-155.31-145.23-225.3-86.04,4.76-178.65,24.4-232.73,35.27,35.53-44.59,94.73-118.94,126.89-168.28-37.21-34.24-112.25-116.48-190.68-170.99,112.52.04,185.85,29.19,246.32,52.92,21.25-24.49,36.42-87.51,52.95-128.24,43.59,66.52,68.24,137.74,78.03,204.26h0Z"/>
      <path class="cls-1" d="m1135.3,1009.19c109.66,5.52,171,5.64,248.06,6.78,47.79-82.72,92.89-191.13,119.04-264.38,14.7,60.1,26.68,153.33,26.5,228.98,56.86-14.75,119.13-39.64,166.52-62.5-22.58,76.36-70.86,153.39-153.61,228.4,9.04,70.86,14.01,114.67,10.87,171.34-43.52-14.1-87.73-38.32-135.3-64.57-58.99,34.39-138.28,66.76-212.82,76.82,35.57-53.5,76.55-131.33,94.53-161.83-55.72-41.07-116.86-97.01-163.79-159.04h0Z"/>
      <path class="cls-1" d="m868.08,1492.54c69.09,5.86,135.47,10.38,197.13,9.49,57.28-60.26,103.74-123.9,142.09-174.69,5.11,54.73,7.27,85.21,4.12,169.95,74.77-4.11,159.68-27.16,222.3-31.96-46.63,51.13-208.87,197.59-478.61,228.43-33.54,3.38-77.23,1.35-101.29-2.03,47.76-29.93,98.91-66.62,119.64-97.22-35.12-30.4-74.3-61.46-105.36-101.98h0Z"/>
      <path class="cls-1" d="m360.26,1150.62c61.17,55.23,133.84,107.08,193.67,151.5,63-45.52,131.4-101.86,180.2-139.95-9.07,74.32-22.87,155.42-31.93,229.75,54.38,31.72,116.2,70.21,170.6,101.94-51.24,4.32-110.6,5.94-177.38,9.57-2.23,69.75,4.99,119.9,9.54,181.54-14.17-4.09-28.33-4.97-46.48-23.39-44.27-44.91-102.83-120.98-127.6-171.73-71.95,2.12-189.18-18.07-277.35-65.3,75.84-17.5,145.58-42.43,193.7-72.77-21.57-63.9-60.69-138.62-86.98-201.16h0Z"/>
      <path class="cls-1" d="m246.7,662.48c8.15,50.31,16.98,126.32,21.74,163.12,71.37-14.68,138-19.89,204.64-19.69-45.46,37.99-115.57,90.68-170.62,175.38,26.76,71.93,47.92,134.49,61.85,177.39-44.2-22.67-94.49-56.17-140.72-84.93-17.53,31.04-65.03,92.64-101.27,167.22-14.5-8.87-19.52-26.53-29.28-45.52-7.45-47.05,6.78-150.21,21.76-211.44-32.63-24.28-77.44-49.91-97.23-83.64,41.06-29.17,93.6-40.75,140.05-50.98,20.23-73.35,56.01-146.7,89.08-186.91h0Z"/>
      <path class="cls-1" d="m44.35,691.26c-.21-156.11,155.53-431.52,289.07-498.77-21.46,49.57-39.56,103.87-47.5,166.94,42.53-.45,81.33-1.23,123.87-1.68-60.76,41.17-99.02,74.97-151.05,125.86-7.67,37.86-12.6,124.42-11.5,185.94-29.18-32.58-54.96-63.13-82.1-103.17-35.54,26.08-81.87,74.46-120.78,124.88h0Z"/>
    </g>
  </g>
</svg>