<?xml version="1.0" encoding="UTF-8"?>
<svg id="Capa_1" data-name="Capa 1" xmlns="http://www.w3.org/2000/svg" viewBox="0 0 1713 1713">
  <defs>
    <style>
      .cls-1 {
        fill: #bbbabc;
      }

      .cls-1, .cls-2 {
        stroke-width: 0px;
      }

      .cls-3 {
        opacity: .22;
      }

      .cls-2 {
        fill: #fff;
      }
    </style>
  </defs>
  <g class="cls-3">
    <g>
      <path class="cls-1" d="m1091.4,1207.96c-31.97-5.01-63.94-9.98-95.9-15.03-91.59-14.49-183.17-29-274.75-43.54-39.17-6.22-78.22-13.32-117.55-18.31-12.71-1.61-16.23-7.13-17.92-18.09-8.84-57.28-18.16-114.48-27.22-171.72-10.58-66.87-21.08-133.75-31.59-200.64-5.68-36.13-10.77-72.36-17.24-108.34-2.23-12.37.99-18.23,12.29-23.9,99.49-49.97,198.64-100.6,297.86-151.09,45.72-23.26,91.55-46.31,136.92-70.22,9.42-4.97,14.62-3.79,21.9,3.51,115.39,115.75,231.02,231.26,346.81,346.61,7.69,7.66,8.98,13.71,3.79,23.84-73.52,143.53-146.5,287.35-219.91,430.94-3.54,6.92-5.59,17.24-17.49,15.99Z"/>
      <path class="cls-1" d="m1417.25,1314.14c29.57-32.86,53.97-69.53,78.33-106.22,51.24-60.47,93.93-127.29,141.6-190.41,4.36-5.77,8.62-11.61,15.27-20.57,5.83,36.66,11.58,69.94,16.31,103.37,5.56,39.24,15.07,77.92,16.82,117.7-71.86,36.32-143.6,72.91-215.66,108.84-28.79,14.36-56.06,31.97-90.66,44.31,13.58-21.65,32.15-35.3,37.98-57.01Z"/>
      <path class="cls-1" d="m182.03,650.17c0,153.59,0,303.9-.02,454.22-4.61,2.96-6.58-1.2-8.92-3.54-46.3-46.22-92.5-92.54-138.81-138.74-5.33-5.31-9.55-9.15-4.81-18.36,49.19-95.52,97.76-191.36,146.56-287.08.77-1.51,2.36-2.6,6-6.49Z"/>
      <path class="cls-1" d="m1575.43,526.72c-90.74-124.9-179.08-246.5-270-371.63,23.88,3.32,43.55,5.78,63.14,8.84,47.62,7.42,95.18,15.26,142.81,22.6,8.91,1.37,13.88,5.01,15.34,14.4,16.3,104.9,32.85,209.76,49.27,314.64.33,2.13-.18,4.4-.55,11.16Z"/>
      <path class="cls-1" d="m839.31,80.71c-148.89,48.36-293.61,95.36-442.55,143.73,14.54-29.02,27.11-54.39,39.94-79.62,17.98-35.37,36.47-70.49,54.06-106.06,4.48-9.06,9.5-12.52,19.73-10.86,107.83,17.52,215.71,34.7,328.82,52.81Z"/>
      <path class="cls-1" d="m547.48,402.58c-67.49,92.85-134.99,185.7-204.77,281.7-8.56-54.87-16.47-105.8-24.49-156.71-1-6.38-1.38-11.49,5.97-15.2,74-37.41,147.83-75.14,221.71-112.77.53,1,1.05,1.99,1.58,2.99Z"/>
      <path class="cls-1" d="m857.7,240.65c48.97-24.85,94.13-47.78,139.31-70.66,5.65-2.86,10.16-7.08,17.24.07,58.03,58.69,116.6,116.85,173.56,177.82-108.71-35.32-217.43-70.63-330.11-107.24Z"/>
      <path class="cls-1" d="m1441.35,597.09c38.54,38.69,74.16,74.57,110,110.24,4.27,4.25,4.33,7.95,1.82,12.87-36.55,71.52-73.02,143.08-111.81,219.14v-342.26Z"/>
      <path class="cls-1" d="m531.46,1211.48c22.07,31.16,44.13,62.32,68.58,96.85-25.64-3.72-47.99-6.78-70.28-10.25-26.45-4.12-52.76-9.38-79.32-12.57-11.01-1.32-13.85-6.05-15.26-15.84-2.5-17.32-2.9-35.1-9.42-51.71-4.73-54.85-17.08-108.57-24.12-163.08-.78-6.01-1.65-12.01.1-19.35,43.24,58.65,86.47,117.3,129.71,175.94Z"/>
      <path class="cls-1" d="m891.88,1622.2c-39.67,19.96-79.57,39.49-118.85,60.19-10.13,5.34-15.62,3.73-22.97-4.13-13.23-14.17-27.74-27.15-41.71-40.62-57.25-57.78-114.42-115.65-171.91-173.2-5.11-5.11-12.27-8.18-18.48-12.2,1.7-2.1,3.4-4.2,5.11-6.3,143.85,46.65,287.7,93.3,435.78,141.33-24.46,12.76-45.72,23.85-66.98,34.94Z"/>
      <path class="cls-1" d="m1117.42,1311.01c52.06-13.4,102.31-32.46,153.35-49.05,5.54.06,6.2,4.08,4.42,7.43-7.89,14.8-10.16,32.62-23.61,44.45-11.95,21.83-24.53,43.35-35.71,65.57-15.09,29.98-14.92,28.46-47.14,22.39-30.55-5.76-61.17-11.76-92.36-14.81-30.99-3.03-61.78-9.36-92.16-16.39-8.41-1.95-18.7,2.72-25.72-5.7,53.13-18.01,106.04-35.95,158.94-53.89Z"/>
      <path class="cls-2" d="m708.94,762.41c-11.08-31.31-1.1-49.24,30.37-63.28,56.62-25.26,110.95-55.66,166.2-83.97,4.25-2.18,8.33-4.69,12.46-7.11,9.09-5.34,15.54-6.2,24.76,3.18,53.1,54.02,107.12,107.15,161.51,159.88,8.76,8.49,10.1,15.61,5.03,25.62-27.85,54.99-55.59,110.04-83.4,165.05-6.22,12.31-12.61,24.54-18.92,36.8-5.63,11.87-13.6,18.05-26.97,11.04-45.86-4.61-91.04-13.73-136.54-20.58-28.78-4.34-57.67-8.27-86.43-12.89-6.32-1.01-13.53.77-15.02-9.21-8.68-58.19-17.75-116.31-26.68-174.46-3.53-9.72-3.76-20.15-6.37-30.06Z"/>
      <path class="cls-1" d="m979.98,1009.63c10.98,1.18,20.24-1.83,26.96-11.04-5.46,19.4-11.44,21.84-26.96,11.04Z"/>
    </g>
  </g>
</svg>