<?xml version="1.0" encoding="UTF-8"?>
<svg id="Capa_1" data-name="Capa 1" xmlns="http://www.w3.org/2000/svg" viewBox="0 0 1713 1713">
  <defs>
    <style>
      .cls-1 {
        opacity: .22;
      }

      .cls-2 {
        fill: #c0bfc1;
        stroke-width: 0px;
      }
    </style>
  </defs>
  <g class="cls-1">
    <path class="cls-2" d="m453.69,205.4c-13.97,11.28-32.98,31.37-49.01,46.23-4.34,3.48-8.69,6.95-13.03,10.43,314.24,510.45,107.46,1238.96-157.99,1380.72h.02l17.05,14.95h129.2c169.04-160.64,370.69-882.35,73.76-1452.34Z"/>
    <path class="cls-2" d="m1321.35,260.72c-4.34-3.48-8.69-6.95-13.03-10.43-16.02-14.87-35.04-34.96-49.01-46.24-296.92,569.99-95.27,1291.7,73.76,1452.34h129.2l17.05-14.95h.02c-265.45-141.76-472.23-870.27-157.99-1380.72Z"/>
    <path class="cls-2" d="m613.75,82.36l-76.48,52.24-18.63,11.01c257.48,626.96,97.84,1230.74-27.04,1498.52l17.38,14.32c39.33-.02,78.66-.04,117.98-.05,141.17-452.61,154.4-1059.89-13.22-1576.02Z"/>
    <path class="cls-2" d="m1195.97,144.27l-18.63-11.01c-25.49-17.41-50.99-34.82-76.48-52.23-167.62,516.13-154.39,1123.41-13.22,1576.02,39.33.02,78.66.03,117.98.05l17.07-14.32h.31c-124.87-267.77-284.51-871.56-27.03-1498.52Z"/>
    <path class="cls-2" d="m928.08,29.5h-147.3c7.65,558.93,19.31,1208.62-69.52,1618.86,22.82-.11,45.64-.22,68.46-.33l5.59-24.19,45.3-28.58,12.53-78.59,8.07-4.87c.55-.33-3.84-15.18-4.44-17.93l-.12-1.84c-24.94-5.13-44.5-25.99-48.92-52.33l-.16-.22c-2.36.29-2.51.87-3.67,2.42l-3.3-.19-1.1,2.48-3.53.1-.94,3.19h-4.61s-.53-34.2-.53-34.2l5.23.11.73,2.95,3.52.17,1.72,2.78c6.47.78,1.63,2.45,6.04,2.29,3.13-31.53,27.77-56.34,58.26-57.99l.05-.21c-2.36-1.77-4.78-.85-7.9-1.21.87-3.61,6.04-4.54,8.85-6.63-.28-5.1-2.2-9.57-2.46-15.71l8.24-9.09c0-3.33.88-7.7-1.23-10.21-2.9-.99-7.83,1.5-12.51-.83-2.55-1.27-9.93-3.34-9.61-4.97.66-2.99,6.88,2.23,11.51,2.69,4.44-1.43,11.01-2.76,15.03-4.17,1.45-5-3.74-4.34,1.11-11.07,1.36-1.32,3.45-.91,4.32.19,3.69,5.09.17,7.33.4,12.01,2.43,1.92,3.28,1.83,5.23,4.45,2.69,3.61,9.96,15.18,10.91,18.17.23,1.31-.11,2.41-1.09,2.09-3.09-1-3.29-10.71-12.11-15.95-2.95,4.01-3.74,4.76-2.45,9.9l3.8,9.91,8.55,15.6c1.89,3.44-.13,2.93-1.25,2.17l-8.71-10.12c-3.7-4.14-4.97-8.25-7.76-12.03-8.9,1.69-9.1,12.49-5.41,17.48,2.89-.55,7.3-2.56,8.47-.39.76,4.11-4.68,1.83-7.29,6.65l.95,1.36c23.96,1.79,44.14,17.9,52.82,40.22,2.9,6.01,4.75,12.13,5.18,17.77,5.84.35.27-1.57,7.14-2.31l1.72-2.88,3.27-.22,1.13-2.89,4.55-.05-.08,34.46-4.37.02c-2.52-4.98-1.57-2.06-4.94-4.1-1.37-.83.47-.54-2.12-1.63l-3.04-1.43c-1.69-1.25.64-.71-2.74-1.18-.46.42-1.68,2.2-2.81,3.97-5.26,23.25-24.26,41.54-46.21,47.59l-5.16,21.06,8.1,4.41,9.14,78.08,44.9,29.3,8.1,23.42c23.37-.11,46.75-.23,70.12-.34-113.45-508.24-60.83-1074.41-79.66-1617.41Z"/>
  </g>
</svg>