<?xml version="1.0" encoding="UTF-8"?>
<svg id="Capa_1" data-name="Capa 1" xmlns="http://www.w3.org/2000/svg" viewBox="0 0 1713 1713">
  <defs>
    <style>
      .cls-1 {
        fill: #bbbabc;
        stroke-width: 0px;
      }

      .cls-2 {
        opacity: .22;
      }
    </style>
  </defs>
  <g class="cls-2">
    <path class="cls-1" d="m875.45,675.6v314.37h1.02c3.3,30.32,20.02,62.89,58.99,62.89h169.33v-83.56h-141.91v-61.64h134.26v-88.2h-134.26v-55.69h144.72v-88.19h-232.15v.02Z"/>
    <path class="cls-1" d="m1178.94,1003.83c6.76,30.54,22.44,49.11,52.47,48.61h37.9v-148.72h121.45v-81.54h-121.45v-65.15h136.06v-82.53h-229.36l2.92,329.34Z"/>
    <path class="cls-1" d="m1472.43,675.33v294.49c0,40.24,4.1,80.76,54.8,80.76h150.22v-80.76h-118.63v-294.49h-86.39Z"/>
    <path class="cls-1" d="m155.66,713.08c0,24.34-19.08,44.16-42.66,44.16s-42.67-19.82-42.67-44.16,19.11-44.13,42.67-44.13c23.58.02,42.66,19.76,42.66,44.13"/>
    <path class="cls-1" d="m270.91,710.4c0,28.61-22.41,51.81-50.02,51.81s-50.03-23.22-50.03-51.81,22.38-51.65,50.03-51.65c27.61.02,50.02,23.12,50.02,51.65"/>
    <path class="cls-1" d="m371.24,768.13c0,30.33-23.74,54.85-53.01,54.85s-53.02-24.52-53.02-54.85,23.74-54.83,53.02-54.83,53.01,24.56,53.01,54.83"/>
    <path class="cls-1" d="m224.87,809.85c0,27.13-21.26,49.18-47.48,49.18s-47.5-22.05-47.5-49.18,21.26-49.1,47.5-49.1c26.23-.02,47.48,22,47.48,49.1"/>
    <path class="cls-1" d="m119.96,799.29c0,22-17.5,39.89-39.07,39.89s-39.11-17.9-39.11-39.89,17.5-39.79,39.11-39.79,39.07,17.84,39.07,39.79"/>
    <path class="cls-1" d="m313.61,867.07c0,26.5-21.14,48.01-47.16,48.01s-47.21-21.51-47.21-48.01,21.17-47.99,47.21-47.99,47.16,21.46,47.16,47.99"/>
    <path class="cls-1" d="m110.13,887.41c0,21.33-16.67,38.57-37.29,38.57s-37.28-17.24-37.28-38.57,16.69-38.55,37.28-38.55,37.29,17.24,37.29,38.55"/>
    <path class="cls-1" d="m198.17,907.26c0,21.98-17.21,39.82-38.48,39.82s-38.48-17.85-38.48-39.82,17.21-39.75,38.48-39.75,38.48,17.76,38.48,39.75"/>
    <path class="cls-1" d="m273.87,955.73c0,21.97-17.23,39.74-38.48,39.74s-38.45-17.79-38.45-39.74,17.23-39.87,38.45-39.87,38.48,17.82,38.48,39.87"/>
    <path class="cls-1" d="m268.93,1037.75c0,18.47-14.72,33.4-32.91,33.4s-32.87-14.93-32.87-33.4,14.72-33.37,32.87-33.37c18.17,0,32.91,14.96,32.91,33.37"/>
    <path class="cls-1" d="m193.02,990.85c0,18.62-14.72,33.71-32.87,33.71s-32.89-15.09-32.89-33.71,14.74-33.58,32.89-33.58,32.87,15.04,32.87,33.58"/>
    <path class="cls-1" d="m116.3,965.41c0,18.6-14.71,33.7-32.87,33.7s-32.92-15.11-32.92-33.7,14.77-33.61,32.92-33.61c18.17-.02,32.87,15.01,32.87,33.61"/>
    <path class="cls-1" d="m129.6,1026.07c0,14.01-11.16,25.36-24.93,25.36s-24.9-11.34-24.9-25.36,11.12-25.33,24.9-25.33c13.76.02,24.93,11.37,24.93,25.33"/>
    <path class="cls-1" d="m199.16,1056.1c0,13.94-11.16,25.33-24.93,25.33s-24.93-11.37-24.93-25.33,11.13-25.3,24.93-25.3,24.93,11.29,24.93,25.3"/>
    <path class="cls-1" d="m148.72,1073.47c0,11.44-9.13,20.7-20.35,20.7s-20.38-9.26-20.38-20.7,9.13-20.63,20.38-20.63c11.21.02,20.35,9.21,20.35,20.63"/>
    <path class="cls-1" d="m177.39,1110.39c0,10.66-8.48,19.35-19.01,19.35s-19.03-8.69-19.03-19.35,8.53-19.33,19.03-19.33c10.53-.02,19.01,8.61,19.01,19.33"/>
    <path class="cls-1" d="m223.85,1106.25c0,10.66-8.43,19.24-18.88,19.24s-18.92-8.56-18.92-19.24,8.48-19.24,18.92-19.24,18.88,8.63,18.88,19.24"/>
    <path class="cls-1" d="m281.7,1101.22c0,13.99-11.16,25.33-24.93,25.33s-24.93-11.33-24.93-25.33,11.16-25.36,24.93-25.36c13.76.02,24.93,11.39,24.93,25.36"/>
    <path class="cls-1" d="m255.73,1156.45c0,10.61-8.47,19.24-18.92,19.24s-18.9-8.61-18.9-19.24,8.47-19.22,18.9-19.22,18.92,8.53,18.92,19.22"/>
    <path class="cls-1" d="m304.58,1152.02c0,11.29-8.97,20.49-20.09,20.49s-20.12-9.18-20.12-20.49,8.99-20.41,20.12-20.41,20.09,9.16,20.09,20.41"/>
    <path class="cls-1" d="m211.92,1146.36c0,8.01-6.39,14.54-14.24,14.54s-14.3-6.51-14.3-14.54,6.4-14.48,14.3-14.48c7.85.02,14.24,6.51,14.24,14.48"/>
    <path class="cls-1" d="m279.93,1186.44c0,7.41-5.91,13.47-13.21,13.47s-13.23-6.06-13.23-13.47,5.9-13.4,13.23-13.4,13.21,6.03,13.21,13.4"/>
    <path class="cls-1" d="m327.41,1190.47c0,9.81-7.8,17.74-17.44,17.74s-17.47-7.91-17.47-17.74,7.83-17.66,17.47-17.66,17.44,7.93,17.44,17.66"/>
    <path class="cls-1" d="m359.02,1208.59c0,6.94-5.48,12.53-12.27,12.53s-12.3-5.59-12.3-12.53,5.53-12.48,12.3-12.48,12.27,5.62,12.27,12.48"/>
    <path class="cls-1" d="m667.46,718.01c-22.41-9.59-33.1-34.9-23.84-56.59,9.26-21.67,34.94-31.42,57.36-21.85,22.41,9.59,33.1,34.93,23.81,56.6-9.23,21.62-34.95,31.44-57.33,21.84"/>
    <path class="cls-1" d="m609.72,815.42c-26.29-11.24-38.79-40.93-27.93-66.3,10.84-25.43,40.95-36.9,67.24-25.65,26.28,11.18,38.79,40.89,27.92,66.29-10.85,25.43-40.93,36.93-67.23,25.67"/>
    <path class="cls-1" d="m511.93,875.44c-27.9-11.86-41.15-43.39-29.64-70.3,11.52-26.94,43.42-39.09,71.27-27.18,27.87,11.91,41.15,43.36,29.62,70.3-11.52,26.92-43.44,39.07-71.26,27.18"/>
    <path class="cls-1" d="m542.76,726.62c-24.96-10.67-36.82-38.93-26.54-62.99,10.3-24.06,38.89-34.96,63.86-24.34,24.9,10.64,36.79,38.81,26.49,62.97-10.3,24.08-38.89,35.01-63.81,24.35"/>
    <path class="cls-1" d="m606.41,643.87c-20.23-8.68-29.74-31.73-21.22-51.62,8.45-19.84,31.74-28.95,51.95-20.29,20.23,8.64,29.74,31.78,21.26,51.6-8.5,19.87-31.77,28.93-51.98,20.31"/>
    <path class="cls-1" d="m453.12,773.99c-24.42-10.43-35.88-38.24-25.64-62.19,10.25-24,38.32-34.88,62.69-24.52,24.39,10.46,35.9,38.28,25.64,62.21-10.24,23.98-38.32,34.91-62.69,24.5"/>
    <path class="cls-1" d="m536.65,591.67c-19.57-8.35-28.89-30.48-20.78-49.34,8.09-18.99,30.52-27.57,50.1-19.19,19.58,8.4,28.91,30.51,20.82,49.44-8.06,18.91-30.52,27.44-50.13,19.09"/>
    <path class="cls-1" d="m473.21,654.24c-20.23-8.66-29.85-31.53-21.5-51.01,8.35-19.59,31.51-28.43,51.72-19.76,20.22,8.61,29.87,31.47,21.5,51.01-8.39,19.54-31.51,28.35-51.72,19.76"/>
    <path class="cls-1" d="m390.43,694.19c-20.2-8.64-29.85-31.49-21.48-51.06,8.35-19.48,31.51-28.4,51.72-19.71,20.23,8.64,29.85,31.47,21.48,51.06-8.35,19.48-31.48,28.37-51.72,19.71"/>
    <path class="cls-1" d="m324.29,652.06c-16.97-7.26-24.93-26.63-17.78-43.38,7.13-16.68,26.68-24.37,43.63-17.14,16.97,7.28,24.93,26.66,17.78,43.38-7.15,16.68-26.7,24.38-43.63,17.14"/>
    <path class="cls-1" d="m401.5,609.19c-17.1-7.28-25.17-26.74-18.02-43.46,7.15-16.65,26.76-24.29,43.88-17.03,17.05,7.28,25.16,26.81,18.02,43.46-7.15,16.7-26.78,24.29-43.88,17.03"/>
    <path class="cls-1" d="m462.48,557.16c-17.1-7.31-25.16-26.74-17.99-43.48,7.13-16.62,26.76-24.29,43.86-17.03,17.1,7.33,25.16,26.79,18.01,43.48-7.12,16.75-26.75,24.32-43.88,17.03"/>
    <path class="cls-1" d="m403.61,535.99c-12.89-5.54-18.9-20.21-13.52-32.85,5.4-12.69,20.25-18.51,33.1-13,12.87,5.51,18.9,20.2,13.5,32.88-5.43,12.62-20.25,18.42-33.09,12.96"/>
    <path class="cls-1" d="m341.24,584.91c-12.85-5.44-18.95-20.16-13.47-32.85,5.38-12.61,20.2-18.44,33.09-12.96,12.84,5.51,18.88,20.21,13.47,32.87-5.4,12.67-20.22,18.44-33.09,12.95"/>
    <path class="cls-1" d="m350.39,531.7c-10.5-4.47-15.47-16.49-11.03-26.77,4.42-10.36,16.49-15.12,26.99-10.64,10.53,4.48,15.45,16.54,11.02,26.86-4.37,10.38-16.48,15.06-26.98,10.56"/>
    <path class="cls-1" d="m301.98,537.23c-9.8-4.16-14.45-15.37-10.32-25.07,4.14-9.68,15.47-14.09,25.3-9.93,9.82,4.22,14.45,15.47,10.29,25.12-4.11,9.7-15.44,14.12-25.27,9.88"/>
    <path class="cls-1" d="m282.2,576.27c-9.78-4.14-14.33-15.29-10.22-24.87,4.08-9.65,15.34-14.05,25.06-9.86,9.78,4.19,14.38,15.37,10.27,24.96-4.11,9.59-15.36,13.96-25.11,9.78"/>
    <path class="cls-1" d="m257.71,629.32c-12.82-5.54-18.88-20.24-13.49-32.85,5.43-12.69,20.25-18.51,33.1-12.98,12.87,5.48,18.92,20.18,13.5,32.88-5.4,12.62-20.22,18.42-33.12,12.95"/>
    <path class="cls-1" d="m222.48,580.56c-9.73-4.21-14.35-15.35-10.25-24.95,4.11-9.57,15.34-13.96,25.12-9.83,9.73,4.18,14.35,15.31,10.22,24.91-4.06,9.6-15.32,14.05-25.09,9.88"/>
    <path class="cls-1" d="m204.09,622.93c-10.34-4.42-15.24-16.31-10.85-26.5,4.34-10.22,16.3-14.93,26.67-10.5,10.38,4.44,15.24,16.36,10.92,26.53-4.4,10.19-16.32,14.88-26.73,10.46"/>
    <path class="cls-1" d="m252.11,546.36c-7.39-3.17-10.81-11.54-7.72-18.78,3.09-7.29,11.55-10.62,18.93-7.44,7.38,3.09,10.79,11.55,7.7,18.81-3.1,7.26-11.59,10.58-18.92,7.41"/>
    <path class="cls-1" d="m184.26,585.69c-6.83-2.94-10.01-10.72-7.13-17.41,2.86-6.71,10.71-9.83,17.53-6.92,6.83,2.97,10.04,10.76,7.17,17.45-2.88,6.71-10.71,9.8-17.57,6.89"/>
    <path class="cls-1" d="m155.57,623.48c-9.04-3.82-13.24-14.12-9.49-22.97,3.82-8.9,14.19-12.92,23.16-9.08,9.04,3.83,13.26,14.18,9.49,22.99-3.82,8.84-14.17,12.93-23.16,9.07"/>
    <path class="cls-1" d="m124.32,642.28c-6.32-2.71-9.31-10.01-6.65-16.25,2.65-6.22,9.96-9.05,16.33-6.39,6.34,2.71,9.31,9.98,6.63,16.2-2.65,6.24-9.94,9.12-16.32,6.43"/>
    <path class="cls-1" d="m400.23,1147.35c19.66-14.48,46.93-10.71,60.86,8.24,13.96,18.98,9.33,46.11-10.3,60.52-19.68,14.46-46.9,10.74-60.86-8.22-13.99-19.04-9.33-46.14,10.3-60.53"/>
    <path class="cls-1" d="m345.69,1048.09c23.03-16.88,54.97-12.59,71.32,9.72,16.36,22.27,10.94,54-12.11,70.95-23.03,16.88-54.97,12.53-71.31-9.65-16.35-22.32-10.94-54.07,12.09-71.01"/>
    <path class="cls-1" d="m343.73,933.39c24.42-17.9,58.27-13.34,75.64,10.25,17.34,23.61,11.55,57.29-12.87,75.2-24.38,17.94-58.24,13.31-75.58-10.25-17.31-23.59-11.57-57.3,12.81-75.21"/>
    <path class="cls-1" d="m456.24,1035.59c21.89-16,52.2-11.96,67.7,9.2,15.52,21.15,10.38,51.23-11.47,67.29-21.86,16.12-52.18,12.02-67.7-9.15-15.52-21.1-10.37-51.28,11.47-67.34"/>
    <path class="cls-1" d="m495.14,1132.47c17.71-13.03,42.48-9.44,55.22,7.95,12.79,17.37,8.81,42.09-8.92,55.08-17.73,13.03-42.46,9.46-55.22-7.91-12.81-17.47-8.79-42.06,8.92-55.11"/>
    <path class="cls-1" d="m461,934.31c21.34-15.68,51.22-11.37,66.63,9.6,15.42,20.99,10.59,50.77-10.79,66.46-21.39,15.66-51.22,11.4-66.63-9.6-15.42-20.99-10.6-50.71,10.79-66.46"/>
    <path class="cls-1" d="m575.55,1098.94c17.16-12.57,40.95-9.34,53.12,7.2,12.22,16.6,8.17,40.27-9,52.88-17.18,12.64-40.95,9.37-53.14-7.15-12.2-16.59-8.17-40.29,9.02-52.93"/>
    <path class="cls-1" d="m553.97,1012.51c17.71-12.98,42.3-9.68,54.86,7.47,12.58,17.11,8.42,41.53-9.31,54.52-17.73,13.01-42.28,9.71-54.86-7.38-12.61-17.16-8.42-41.59,9.31-54.62"/>
    <path class="cls-1" d="m561.61,920.94c17.7-12.98,42.28-9.67,54.84,7.49,12.61,17.11,8.43,41.48-9.28,54.49-17.75,13.03-42.3,9.68-54.86-7.39-12.61-17.11-8.42-41.59,9.29-54.59"/>
    <path class="cls-1" d="m631.53,885.46c14.87-10.93,35.64-7.9,46.39,6.71,10.77,14.65,7.41,35.3-7.48,46.3-14.84,10.9-35.6,7.88-46.38-6.76-10.76-14.62-7.41-35.35,7.46-46.25"/>
    <path class="cls-1" d="m629.21,973.69c14.95-11,35.83-8.06,46.59,6.56,10.74,14.64,7.31,35.43-7.67,46.38-15,11.08-35.85,8.09-46.59-6.5-10.79-14.64-7.33-35.52,7.67-46.45"/>
    <path class="cls-1" d="m642.96,1052.64c14.98-10.95,35.86-8.03,46.62,6.6,10.74,14.64,7.31,35.47-7.67,46.4-14.95,11.05-35.85,8.06-46.61-6.56-10.76-14.64-7.33-35.35,7.65-46.43"/>
    <path class="cls-1" d="m691.2,1012.79c11.26-8.35,26.99-6.11,35.17,5.08,8.16,11.05,5.62,26.74-5.67,35.04-11.28,8.29-27.04,6-35.15-5.07-8.19-11.13-5.64-26.81,5.66-35.06"/>
    <path class="cls-1" d="m680.71,934.18c11.26-8.33,27.01-6.04,35.17,5.09,8.17,11.1,5.62,26.76-5.64,35.06-11.29,8.25-27.07,6.01-35.18-5.07-8.16-11.13-5.61-26.82,5.66-35.08"/>
    <path class="cls-1" d="m721.87,969.07c9.21-6.76,22.07-4.87,28.75,4.17,6.63,9.07,4.57,21.88-4.63,28.61-9.21,6.74-22.07,4.89-28.71-4.14-6.65-9.1-4.55-21.9,4.6-28.64"/>
    <path class="cls-1" d="m741.73,924.63c8.61-6.34,20.64-4.58,26.88,3.87,6.19,8.46,4.29,20.44-4.32,26.74-8.63,6.35-20.65,4.58-26.89-3.87-6.21-8.46-4.26-20.47,4.34-26.74"/>
    <path class="cls-1" d="m718.16,887.75c8.55-6.32,20.51-4.53,26.7,3.82,6.18,8.43,4.29,20.31-4.31,26.64-8.53,6.27-20.49,4.55-26.65-3.85-6.21-8.43-4.26-20.32,4.26-26.61"/>
    <path class="cls-1" d="m684.95,839.71c11.28-8.32,27.04-6,35.18,5.12,8.14,11.06,5.62,26.74-5.66,35.08-11.28,8.25-27.04,5.96-35.2-5.08-8.14-11.14-5.59-26.81,5.67-35.11"/>
    <path class="cls-1" d="m744.86,834.17c8.58-6.29,20.54-4.57,26.73,3.87,6.14,8.43,4.21,20.32-4.32,26.61-8.56,6.26-20.49,4.55-26.68-3.92-6.19-8.37-4.31-20.36,4.27-26.56"/>
    <path class="cls-1" d="m717.72,796.83c9.1-6.76,21.81-4.91,28.37,4.03,6.57,8.97,4.55,21.62-4.55,28.3-9.12,6.66-21.82,4.86-28.39-4.06-6.57-9.02-4.53-21.62,4.57-28.27"/>
    <path class="cls-1" d="m759.26,877.04c6.45-4.74,15.49-3.44,20.13,2.89,4.66,6.35,3.22,15.3-3.23,20.08-6.48,4.78-15.45,3.43-20.12-2.94-4.7-6.35-3.22-15.32,3.22-20.03"/>
    <path class="cls-1" d="m759.88,798.61c6-4.37,14.33-3.14,18.66,2.73,4.34,5.86,2.96,14.18-2.99,18.62-5.96,4.39-14.35,3.17-18.67-2.76-4.31-5.83-2.99-14.15,3.01-18.59"/>
    <path class="cls-1" d="m741.92,754.66c7.9-5.83,18.93-4.21,24.62,3.61,5.72,7.77,3.95,18.76-3.97,24.5-7.9,5.8-18.9,4.27-24.62-3.51-5.7-7.8-3.93-18.76,3.97-24.6"/>
    <path class="cls-1" d="m741.64,718.23c5.54-4.01,13.31-2.89,17.34,2.55,4.01,5.46,2.75,13.22-2.81,17.24-5.56,4.11-13.31,3.02-17.34-2.44-4.01-5.49-2.8-13.29,2.81-17.35"/>
  </g>
</svg>