<?xml version="1.0" encoding="UTF-8"?>
<svg id="Capa_1" data-name="Capa 1" xmlns="http://www.w3.org/2000/svg" viewBox="0 0 1713 1713">
  <defs>
    <style>
      .cls-1 {
        fill: #bbbabc;
        stroke-width: 0px;
      }

      .cls-2 {
        opacity: .22;
      }
    </style>
  </defs>
  <g class="cls-2">
    <g>
      <path class="cls-1" d="m1252.57,577.18c17.15,56.9-9.22,120.21-54.78,156.21-9.67,16.62-3.35,37.19-4.02,55.45,50.17-25.59,86.51-74.31,101.57-128.02,11.12-39.65,6.77-82.34-8.81-120.17v.19c-10.41,12.94-24.84,22.24-33.96,36.34Z"/>
      <path class="cls-1" d="m433.11,605.44c9.94,28.99,25.06,55.94,44.63,79.52.22,1.08.71,3.31.93,4.43l1.96,1.14c17.34,72.71,29.57,148.12,20.25,222.9,15.17-26.82,24.88-56.42,33.47-85.88,5.65-21.01,9.67-42.42,12.05-64.05,1.74-8.52.68-17.9,4.68-25.95.01,0,.03.02.04.02,9.37,5.31,19.82,8.44,30.57,9.15l7.7-1.64c.63-15.79-.23-31.61-2.57-47.23-33.18-8.76-61.93-29.53-80.67-58.28-32.61-49.18-45.51-108.85-36.11-167.11,1.04-8.55,4.57-16.81,4.57-25.48-8.81-18.67-17.55-37.38-25.85-56.27-11.95,18.21-20.46,38.45-25.11,59.73l-.07.07c-10.43,48.16-8.25,98.2,6.32,145.27.97,3.24,2.05,6.43,3.2,9.63Z"/>
      <path class="cls-1" d="m845.28,378.2c.07-.04.14-.08.22-.12,3.91-.08,7.85-.29,11.8-.29,20.87-2.99,42.06-2.99,62.93,0,10.71,1.82,21.94-.41,32.32,3.31,8.39.4,16.71,1.65,24.84,3.72.05-.04.1-.09.15-.13,29.4,3.7,57.66,13.53,85.95,22l2.19-.63c6.55-12.42,15.99-22.95,22.72-35.18,6.99-13.17,19.41-22.91,23.51-37.79-1.93-4.31-6.92-5.13-10.64-6.88-17.74-7.45-35.94-13.75-54.49-18.86v-.04s-.09.07-.14.11c-30.19-8.24-61.2-15.62-92.55-16.55-.02,0-.04.02-.06.03-32.86-5.34-66.42-3.82-99.58-3.26-67.65,4.84-135.42,19.3-196.49,49.47l-5.43,4.57c11.16,23.54,18.26,48.69,26.03,73.42,53.59-19.49,109.64-33.51,166.7-36.9Zm98.07-82.54c-19.27,8.81-38.24,18.97-54,32.9,15.76-14,34.73-24.15,54-32.9Z"/>
      <path class="cls-1" d="m770.15,911.24c-11.38,17.41-8.85,39.02-8.63,58.73,4.91,56.53,15.14,114.7,45.19,163.65,11.53-2.75,23.47-2.94,35.04-5.43,10.12-1.04,20.31-1.34,30.5-1.34.79-4.7,1.26-9.45,1.41-14.21v-186.82c.26-10.34-1.71-21.91-10.19-28.75-13.05-10.64-31.32-11.38-47.27-8.96l.04-.11c-17.22,2.53-35.85,8.03-46.08,23.25Z"/>
      <path class="cls-1" d="m1020.82,265.24c-2.49-14.23-10.77-26.78-22.87-34.66-24.88-17.33-55.49-25.07-85.54-27.04.31-7.68-.34-15.36-1.93-22.87,5.17-5.1,12.79-6.21,18.6-10.3,13.69-8.37,22.95-24.84,20.53-40.91-3.57-18.67-22.95-28.15-27.82-46.23-4.43-10.6-.89-21.87,1.41-32.47.82-10.34-9.82-14.77-15.62-21.31-5.37-6.3-13.6-9.4-21.79-8.22-11.12.67-17.59,10.75-25.55,17.15l-.3.19c-7.81,5.24-5.13,15.7-3.5,23.43,4.91,15.84-3.94,32.36-14.65,43.52-8.15,8.41-15.06,19.15-14.32,31.35.63,20.38,18.37,36.11,37.19,40.91.95,8.57.95,17.21,0,25.77-29.94,1.97-60.18,9.89-85.28,26.85-11.57,7.88-21.72,19.9-22.32,34.77,34.03-9.85,69.12-15.56,104.51-17,53.66-3,107.45,2.77,159.26,17.07Z"/>
      <path class="cls-1" d="m1088.66,371.17c-6.73,12.24-16.18,22.76-22.72,35.18l.22,2.01c19.76,7.9,38.5,18.17,55.79,30.57.01-.01.02-.03.04-.04,6.95,5.57,13.54,11.58,19.71,18.01-5.28,14.65-10.15,29.53-15.17,44.41-1.91,6.35-3.72,12.72-5.43,19.12-1.75,5.1-3.12,10.3-4.57,15.44-13.78,50.71-20.99,102.99-21.46,155.54-1.4,11.65-1.76,23.4-1.08,35.11,2.45,19.75-.15,39.8,3.12,59.51-.74-2.86-2.27-8.63-3.05-11.53-1.04,2.98-3.5,5.76-2.94,9.19,3.16,28.42,11.16,56.05,14.88,84.43.52,1.93,1.12,3.84,1.81,5.72-.73-1.92-1.37-3.88-1.92-5.87-3.72-28.38-11.6-56.01-14.88-84.43-.56-3.42,1.45-6.14,2.94-9.19,1.49-3.05-.37-6.47-.63-9.52-7.9-41.04-12.99-82.57-15.21-124.3-.72-55.52,4.56-110.97,15.73-165.36,3.01-6.55-5.77-8.29-9.26-11.68-9.74,8.96-8.81,23.06-14.88,33.99l.07.04c-9.41,16.55-10.04,36.04-13.98,54.23-8.07,32.1-6.73,65.57-10.93,98.23-3.38,22.06,2.19,44.37-.71,66.69-3.68,41.25,5.54,81.79,10.79,122.48,1.45,8.52,3.5,16.92,5.39,25.37,17.51,5.31,34.75,11.49,51.64,18.53.03.06.06.12.1.18,17.64,7.3,34.67,16.01,50.92,26.03,5.69,3.57,10.97,8.15,17.63,9.93-27.22-43.52-38.05-95.18-42.1-145.79-5.55-89.44,6.27-179.12,34.81-264.07,10.79-29.72,23.02-59.43,42.18-84.87-9.22-25.89-29.2-46.12-50.69-62.41-.02.02-.05.03-.07.05-16.25-12.27-34.84-20.58-51.89-31.48l-.93,2.79h.26c-4.09,14.69-16.51,24.62-23.51,37.79Z"/>
      <path class="cls-1" d="m554.62,560.37c6.75-8.44,12.96-17.3,18.6-26.52,8.07-12.68,20.2-21.98,29.16-33.92,7.92-10.34,13.61-22.17,21.65-32.43,6.51-8.67,14.62-16.74,17.44-27.52-6.21-27.52-16.92-53.89-26.67-80.34-19-10.41-40.07-16.5-61.7-17.81-29.35-.5-58.14,8.16-82.34,24.77h0c28.71,64.19,56.87,128.8,83.87,193.77Z"/>
      <path class="cls-1" d="m624.24,467.38c-8.03,10.12-13.72,22.09-21.65,32.43-8.96,11.94-21.09,21.24-29.16,33.92-5.64,9.22-11.85,18.08-18.6,26.52,16.14,43.33,29.68,87.92,34.74,133.89l-2.53,3.72c2.34,15.63,3.2,31.44,2.57,47.23l-7.7,1.64,8.48,3.46c-2.8,46.03-13.63,91.22-31.99,133.52-16.36,36.23-40.39,68.4-66.95,97.74-1.7,2.01-2.97,4.35-3.72,6.88,52.29-41.73,107.52-84.28,139.7-144.38,34.78-67.32,45.9-144.49,44.63-219.44-.67-63.56-13.2-126.27-29.75-187.34l-.86,2.79.22-.11c-2.83,10.79-10.93,18.86-17.44,27.52Z"/>
      <path class="cls-1" d="m1173.17,635.75c-4.05,32.17-8.41,64.31-7.44,96.7,0,21.72-.56,43.55,3.72,64.98,8.51-1.45,16.7-4.37,24.21-8.63.67-18.26-5.65-38.83,4.02-55.45l-2.72,2.19c4.95-56.64,23.39-112.69,57.5-158.59,9.11-14.02,23.54-23.39,33.96-36.34-13.98-28.45-35.89-53.71-64.75-67.65-26.03,50.77-38.49,107.19-48.35,162.98l-.15-.19Z"/>
      <path class="cls-1" d="m693.16,796.13l-1.3-.93c-9.95,35.05-26.87,67.73-49.76,96.07,23.08-10.12,46.97-18.3,71.41-24.44v-1.52c0-.05,0-.1-.01-.16,13.81-1.21,26.66-8.03,40.85-8.03.15-.63.48-1.9.48-2.53,1.41-6.3,1.74-12.67,1.51-19.05.25,6.39-.07,12.77-1.51,19.08,41.4-7.59,83.24-14.51,125.49-13.98-8.22-65.98-21.35-131.33-31.39-197.12-7.62-52.43-17.41-105.73-17.18-158.86-.22,53.1,9.56,106.36,17.18,158.75,10.04,65.72,23.17,131.07,31.39,197.12,21.91-.3,43.89-.3,65.61,3.42,1.04-1.3,3.2-3.91,4.24-5.24-4.31-17.44-3.42-35.56-6.66-53.15-4.54-27.04-2.12-54.6-5.47-81.82-1.56-13.17,0-26.15-.71-39.2-3.09-33.1.07-66.43-2.23-99.6-2.79-26,4.35-51.66,10-76.8,3.79-18.26,4.98-37.42,12.61-54.67l.04.04c-7.62,17.26-8.89,36.41-12.61,54.67-5.65,25.14-12.79,50.77-10,76.8,2.23,33.18-.86,66.5,2.23,99.6.71,13.17-.86,26.18.71,39.2,3.35,27.15.93,54.71,5.47,81.82,3.24,17.59,2.34,35.7,6.66,53.15-1.04,1.34-3.2,3.94-4.24,5.24,15.42-1.37,30.25,4.39,45.75,3.72.01.04.02.07.04.11.19.63.63,1.93.82,2.57,12.09.24,24.09,2.26,35.59,5.99,10.81,2.11,21.5,4.79,32.02,8.03-1.9-8.44-3.94-16.85-5.39-25.37-5.24-40.65-14.51-81.23-10.79-122.48,2.9-22.24-2.68-44.37.71-66.69,4.2-32.66,2.86-66.13,10.93-98.23,3.94-18.19,4.57-37.68,13.98-54.23,6.14-10.93,5.21-25.03,14.88-33.99-19.77-11-40.72-19.73-62.45-26.03-6.4-.82-13.54-6.73-19.6-3.31h-.03c0-.06.02-.1.03-.15l-1.3-3.72c-10.6.52-20.46-4.5-30.98-4.5-26.52-6.77-54.19-5.76-81.3-8.29-17.03,1.6-34.14,2.31-51.25,2.75h0s-.26,2.16-.26,2.16c0,.04-.01.08-.02.11-47.49,2.72-94.12,14.73-138.75,31.17l.07-.07c-2.34,1.67-8.11,1.56-7.03,5.76,14.5,47.27,19.79,96.89,22.32,146.13-.07,30.15,1.41,60.49-2.49,90.49h0s0,0,0,0c0,.01,0,.02,0,.03.06.08.11.16.17.24-3.87,33.65-10.06,66.98-18.54,99.77,4.06,2.03,7.29,5.35,9.21,9.42-1.93-4-5.13-7.27-9.13-9.27Z"/>
      <path class="cls-1" d="m1014.69,938.65c.41-18.09-9.62-34.8-25.77-42.96-19.65-8.9-41.62-11.33-62.74-6.96h-.11s.03.05.04.07c-11.51,4.45-23.47,13.69-23.25,27.23h.04c0,70.37.19,140.74,0,211.14,23.03-.78,45.65,4.63,68.45,6.41l.1.03s0-.01,0-.02c.07,0,.14.01.21.02l-.19-.06c22.78-41.68,34.79-88.37,41.59-135.03,1-19.94,2.46-39.91,1.64-59.88Z"/>
      <path class="cls-1" d="m778.87,1292.92c9.39.46,18.81-.25,28.02-2.13,35.69-4.16,71.65-5.62,107.56-4.39,14.64,2.13,29.42,3.19,44.22,3.2,21.23,2.19,42.34,6.3,63.64,7.43.01,0,.02,0,.03,0,12.72,3.01,25.74,4.76,38.46,8,0-.03.01-.05.02-.08,18.81,4.16,37.1,9.58,55.66,14.85-2.16-14.43,1.97-30.98-7.85-43.18-12.75-16.37-29.89-28.77-49.43-35.74h-.04v-1.45c-21.98-7.44-43.89-15.7-66.95-18.6h-.11s0,0,0,.01c-16.12-3.77-32.61-5.78-49.16-6,0-.01,0-.03,0-.04-20.08-4.65-41.49-2.87-62.12-2.86,0-.04,0-.07.01-.11-24.96.04-49.69,3.46-74.57,4.57h.04l2.45,1.08,6.29.45c.86,23.1,0,46.16,0,69.29,18.22-2.01,36.55-2.79,54.88-2.34,0,.04-.01.07-.02.11-18.33-.45-36.67.34-54.9,2.34h0l.07-.07s-.05,0-.07,0c0-23.11.89-46.15,0-69.22l-6.29-.45c-18.34.15-35.97,5.36-53.85,8.63h-.04c-.11.57-.26,1.13-.45,1.67.82,2.75,1.67,5.43,2.6,8.15-3,6.85-4.14,14.37-3.31,21.79,1.08,11.9-1.93,23.58-5.06,35l2.42,3.5c9.28,0,18.52-1.12,27.52-3.35.11-.02.21-.04.32-.07Zm162.14-22.1c.2-2.5.44-5,.71-7.51-.27,2.52-.51,5.03-.71,7.55-.38,2.46.47,4.51,1.75,6.37-1.32-1.87-2.2-3.92-1.75-6.41Zm6.6,12.32s.02.02.02.03c-3.06,1-6.08,2.03-9.1,3.1-.03,0-.06,0-.08,0,3.04-1.08,6.08-2.11,9.16-3.12Zm-43.42,1.88c-1.43,0-2.86,0-4.29.02-5.72.03-11.43.09-17.15.09,5.71,0,11.43-.06,17.15-.09,1.43,0,2.86-.01,4.29-.02Z"/>
      <path class="cls-1" d="m576.19,1590.79l-.26,1.26c-7.57,3.03-14.84,6.75-21.72,11.13v.26c-9.6,7.62-19.64,16.4-22.09,29.08-4.57,19.64-8,39.68-12.53,59.51,13.5-5.77,25.03-15.44,39.09-20.27l.26-1.14c12.82-4.18,25.54-8.65,38.16-13.4,3.61-.52,7.14-.97,10.86-1.3l.6-2.64c3.09-12.35,3.46-25.25,7.18-37.53,3.61-14.88,10.3-29.2,11.72-44.63-17.65,4.93-34.81,11.48-51.25,19.56v.11Z"/>
      <path class="cls-1" d="m1070.92,940.62c-6.51-4.05-7.22-12.16-8.81-18.93-4.95,3.05-11.46,4.91-14.21,10.49l-.11.04c-5.32,8.52-2.72,18.97-3.31,28.42-2.34,51.88-10.86,104.14-31.09,152.49-3.05,6.4-6.21,12.68-9.45,18.93-.78,2.94-5.43,7.25-1.93,9.82,11.23,3.67,22.25,7.98,32.99,12.91,27.77-20.26,51.19-45.88,68.88-75.35-4.39-17.18-9.33-34.4-12.05-52.07-2.49-19.49-11.57-37.42-13.2-57.05-.07-7.36-6.25-13.39-4.95-20.83-10.48-3.07,12.73-9.19.78-8.68,12.22-.56-11.18,5.54-.67,8.68-1.3,7.33,4.95,13.39,4.95,20.83,1.64,19.64,10.71,37.56,13.2,57.05,2.71,17.56,7.66,34.78,12.05,52.07,17.1-28.86,28.58-60.7,33.81-93.84,1.15-18.6-2.64-40.47-18.97-52.07-16.03-12.87-37.3-12.61-56.72-11.9l.11.07c1.6,6.77,2.31,14.73,8.81,18.93l-7.14,1.18c-.14.02-.27.03-.41.05l7.44-1.23Z"/>
      <path class="cls-1" d="m644.84,1014.41c8.96,29.23,20.27,58.58,39.72,82.6,5.28-12.53,1-26.04-.74-38.83-3.27-15.21.56-31.13-4.65-46.01-7.41-24.99-4.86-53-15.87-76.94,11.09,23.89,8.51,51.98,15.94,77.13,5.21,14.88,1.38,30.8,4.65,46.01,1.75,12.79,6.03,26.3.74,38.83-.41,2.75,3.01,4.57,4.17,6.96,15.62,18.93,32.54,37.68,53.56,50.84,9.89-5.34,20.36-9.54,31.21-12.5l1.71-3.72c-22.78-44.7-36.67-93.39-40.91-143.38-.93-19.27-3.98-38.38-3.72-57.72-2.53-12.83-17.33-17.44-28.9-16.18-14.19-.96-28.37,2.09-40.91,8.81l.03.1s-.02-.04-.03-.06c-8.57,5.96-15.13,14.38-18.82,24.14v-.11c-5.91,19.71-3.68,40.73,2.83,60.03Z"/>
      <path class="cls-1" d="m1359.13,1172.33s0,0,0,0c0-.02,0-.03,0-.05v.04Z"/>
      <path class="cls-1" d="m1312.86,1132.42c-12.72-60.92-44.82-115.67-82.01-164.76l-.89,3.31h0c37.45,65.42,48.5,145.98,27.26,218.54-13.65,50.4-42.92,95.03-78.4,132.78,21.98.67,43.96-.26,65.94.67,10.86,17.03,23.28,33.03,34.44,49.84,35.44-73.9,51.77-159.48,33.66-240.38Z"/>
      <path class="cls-1" d="m1365.19,1184.75c-1.5-4.37-3.54-8.54-6.06-12.41,6.9,53.43,2.12,107.73-13.99,159.14-17.81,55.51-47.51,106.47-87.03,149.33,20.6,1.08,41.17,3.72,61.81,3.72,11.01,17.74,21.16,36,33.1,53.11,24.58-55.01,46.23-113.44,45.38-174.58,1.49-61-14.39-120.76-33.21-178.3Z"/>
      <path class="cls-1" d="m1191.24,1116.84c16.69-18.72,26.6-42.51,28.15-67.54-2.42-19.56-7.62-40.35-23.77-53.04-7.22-6.55-20.53-13.31-27.97-3.72v-.07c-4.35,8.78-5.36,18.78-8.07,28.15-7.98,30.34-20.9,59.17-38.23,85.32,1.71,19.08,9.41,36.93,12.39,55.79,21.58-11.58,41.03-26.76,57.5-44.89Z"/>
      <path class="cls-1" d="m668.24,1174.34s0-.09.01-.13c3.3,2.59,7.04,4.59,11.03,5.89,8.74,2.34,16.66,8.41,26.03,7.44,3.27-5.76,6.73-11.42,9.67-17.33-17.7-13.26-33.51-28.86-47.01-46.38l-.11-.04s0,.05,0,.07c-24.52-31.37-42.27-67.49-52.14-106.07-1.96-7.37-2.6-15.29-6.68-21.89.05-.09.09-.19.13-.28l.86-2.42c-10.19-11.19-25.1-2.05-33.47,6.66l-.04-.04c-18.6,19.79-22.32,50.28-14.88,75.8,9.39,30.74,33.43,54.14,58.89,72.43-.02.08-.03.16-.05.25,15.36,9.6,30.61,20.23,47.76,26.04Z"/>
      <path class="cls-1" d="m428.76,1160.36v.15c-6,33.55-6.76,67.83-2.27,101.61,5.92,46.93,19.21,92.63,39.39,135.42h4.35c11.86-14.54,22.61-30.01,34.89-44.3,20.53.33,40.91-1.6,61.44-1.6-28.82-27.15-55.31-57.17-74.65-91.79-27.3-47.46-46.75-102.32-41.1-157.7-10.6,18.01-18.05,37.69-22.06,58.21Z"/>
      <path class="cls-1" d="m1155.87,1379.09c-25.42-12.54-52.12-22.32-79.63-29.16v.04c-2.64,17.44.15,35.11-2.05,52.52-3.5,14.77-9.3,29.05-10.93,44.3-8.66,17.72-13.42,37.16-19.81,55.74-33.58-4.34-67.42-5.86-101.11-8.69-10.92.18-21.83.22-32.75.22,10.87,0,21.74-.05,32.6-.22l.03-.07c33.72,2.83,67.75,4.35,101.21,8.7,6.4-18.6,11.08-37.97,19.82-55.79,1.64-15.25,7.22-29.42,10.93-44.3,2.05-17.41-.6-35.07,2.05-52.52-18.77-5.2-37.9-9-57.24-11.34l3.05-.78c-21.13-3.16-42.36-4.91-63.52-7.81-12.46-.82-25.07.52-37.38-1.97-28.31-1.75-56.59.23-84.89,1.62-1.68.03-3.36.07-5.04.13-8.37.33-16.7.82-25.03,1.08l-5.8,1.93h-.04c-7.46-.22-14.92.16-22.32,1.15l.15-.19c-15.06,3.57-30.91,3.72-45.78,8.29.04,19.94-5.99,39.2-6.92,59.06-.56,17.11-8.22,33.29-9.78,49.88-1.18,12.57-1.54,27.6-8.25,38.77,6.52-11.03,6.93-25.7,7.99-38.43,1.41-17,9.22-32.77,9.78-49.88.93-19.86,6.92-39.13,6.92-59.06-22.16,3.99-43.99,9.63-65.31,16.89h0s0,.03,0,.05c-18.38,7.41-39.15,12-54,25.8-.27,32.99-3.82,65.87-10.6,98.15-5.47,21.91-12.27,44.33-26.63,62.22l5.99-.67c16.25-9.35,33.64-16.56,51.73-21.46,0-.01,0-.02,0-.03,24.92-6.86,50.25-12.18,75.83-15.92-3.67-2.46-7.2-5.13-10.56-8,.12-.08.23-.17.35-.26,3.33,2.84,6.83,5.49,10.47,7.92,20.16-2.42,40.17-6.51,60.59-6.77l1.04-2.34s.06,0,.09,0l.05-.12c13.64-.93,27.13-2.11,40.66-2.85,4.93-13.39,9.63-26.85,14.11-40.38-4.49,13.57-9.2,27.07-14.14,40.5,21.72-.93,43.48-1.05,65.24-1.03-21.71-.02-43.41.1-65.09,1.03-13.73.74-27.28,1.93-40.83,2.86l-1.13,2.54c23.73-3.16,47.79-1.67,71.48-5.39,40.09.67,80.48-2.31,120.39,2.9,15.92,1.08,31.99,0,47.64,3.72,17.36-.19,34.16,5.4,51.62,4.62.04.01.08.02.12.03,39.2,6.62,78.89,13.87,115.63,29.75,7.92,3.24,14.69,8.96,23.25,10.67-31.02-47.42-34.22-105.92-37.94-160.75,0-3.57-3.87-5.24-6.32-6.88Zm-183.11,44.59c5.1-15.83,9.62-31.98,11.9-48.45-2.26,16.47-6.74,32.62-11.9,48.45Zm12.02-49.27c.02-.19.04-.37.07-.56-.02.19-.04.37-.07.56Zm1.24-13.1c0-.46,0-.92,0-1.38,0,.46,0,.92,0,1.38h0Zm31.35-22.79c-3.29,0-6.61-.21-9.93-.29,3.31.08,6.64.28,9.93.29Zm-11.58-.31c-2.21-.02-4.4.04-6.58.28,2.18-.23,4.37-.3,6.58-.28Zm-37.17,97.19c-3.96,8.59-10.29,16.06-13.75,24.69,3.28-8.89,9.74-16.17,13.75-24.69Zm-261.37,54.62c-.16.26-.31.52-.48.77.16-.25.32-.51.48-.77Zm63.8,7.86l.05-.12s.05,0,.07,0l-.13.13Z"/>
      <path class="cls-1" d="m1121.36,1106.02c-17.34,24.57-37.75,46.82-60.74,66.2v.07c4.31,5.02,8.11,10.45,12.01,15.77,21.46-5.1,41.77-15.58,61.11-26.26-2.98-18.93-10.67-36.78-12.38-55.79Z"/>
      <path class="cls-1" d="m713.84,1305.15c12.64-3.29,25.53-5.56,38.53-6.81l-1.34-2.01-2.42-3.5c3.12-11.42,6.14-23.1,5.06-35-.83-7.43.31-14.95,3.31-21.79-.93-2.71-1.79-5.39-2.6-8.15-13.5,2.21-26.51,6.74-38.46,13.39h0c-19.55,7-36.68,19.49-49.32,35.97h0c-9.26,12.35-4.91,28.56-9.89,42.47,19.3-3.94,37.82-10.86,57.13-14.58-4.17-21.2,2.08-42.51,2.08-63.86.19,21.35-6.25,42.66-2.08,63.86Z"/>
      <path class="cls-1" d="m408.9,1373.58h0c-10.48-31.35-18.6-63.43-24.29-95.99-1.04-11.49-1.9-22.98-3.5-34.44-4.72-75.13,14.95-152.49,60.81-212.74-2.93,1-5.62,2.58-7.92,4.65l.15.19c-52.85,53.85-93.35,120.8-108.64,195.19l-1.41,2.08c-6.58,30.54-7.96,61.74-9.6,92.8,2.38,14.88,1.3,29.75,2.64,44.63,3.65,33.59,10.24,66.79,19.71,99.23-.04.04-.07.08-.11.11,12.91,49.09,33.18,96.11,55.79,141.55,17.15-18.04,30.42-39.54,45.97-58.95,25.7-.89,51.25-3.68,77.03-3.09-47.31-50.28-82.46-111.21-106.22-175.81l-.41.59Z"/>
      <path class="cls-1" d="m1066.25,1551.3l-3.47-2.47c-24.96-3.61-49.91-7.1-75.05-8.48-17.48-4.35-35.56-.74-53.15-3.72-21.57-2.79-43.25-.86-64.9-1.67-21.13,0-42.03,4.24-63.23,3.12l-.04.11c-18.97,2.31-37.97,4.09-56.94,6.02-5.94.7-12.45-.26-17.52,3.56-.05,0-.1,0-.15,0-19.41,1.08-38.35,5.95-57.28,10h-.07c.74,7.7,2.71,15.92,0,23.36-6.33,16.3-11.17,33.15-14.47,50.32-1.26,3.91,2.53,6.58,4.39,9.52,16.44.04,32.54-5.02,49.02-5.73l.52-1.08s0,0,0,0c13.86-1.86,27.87-2.53,41.77-4.05l-9.74-.33s.03-.05.04-.07l9.71.33c13.87-.93,27.75-1.23,41.54-2.53,24.45-3.16,49.19-.82,73.72-3.16.09.02.17.04.26.07,33.33-.67,66.65,2.2,99.98,1.57.08.02.17.04.25.07,17.55,4.17,35.85,1.86,53.63,4.91,36.84,3.25,73.49,8.43,109.79,15.51,4.32-8.76,9.56-17.04,15.62-24.7,9.97-13.02,11.08-30.87,23.21-42.47-34.6-13.18-70.53-22.57-107.15-28.01-.09,0-.19-.02-.28-.02Zm-311.88,62.75c5.38-9.93,10.81-19.84,16.1-29.82-5.28,9.98-10.71,19.89-16.1,29.82Zm99.31,3.41c.3,2.7,1.75,4.18,3.76,5.02-2.11-.82-3.64-2.3-3.95-5.09,25.74-23.03,39.79-55.89,65.28-79.05.06,0,.12.01.18.02.02,0,.04,0,.06,0-25.52,23.16-39.58,56.06-65.33,79.11Zm123.54-32.32c5.14-5.39,9.94-11.18,15.75-15.75-5.77,4.56-10.57,10.35-15.75,15.75Zm17.01-16.72c-.13.09-.26.18-.38.27.13-.09.26-.18.38-.27Z"/>
    </g>
  </g>
</svg>