<?xml version="1.0" encoding="UTF-8"?>
<svg id="Capa_1" data-name="Capa 1" xmlns="http://www.w3.org/2000/svg" viewBox="0 0 1713 1713">
  <defs>
    <style>
      .cls-1 {
        fill: #bbbabc;
      }

      .cls-1, .cls-2 {
        stroke-width: 0px;
      }

      .cls-2 {
        fill: none;
      }

      .cls-3 {
        opacity: .22;
      }
    </style>
  </defs>
  <g class="cls-3">
    <path class="cls-2" d="m355.36,873.39l.35,418.98,249.02,142.51c136.96,78.38,250.27,142.51,251.79,142.52,1.53,0,114.83-64.12,251.78-142.5l249-142.51.35-418.99.35-418.99H355.01l.35,418.98Zm85.19,21.81v-348.35h84.15l.35,271.65.35,271.65,105.19-59.98,105.19-59.98v-339.18h-42.57l-28.91-36.34c-15.9-19.98-30.54-38.92-32.53-42.08l-3.62-5.74h349.06l.35,142.6.35,142.6,32.77-18.73,32.77-18.73v-247.74h229.01v84.16h-144.86v57.25c0,31.49.31,57.25.7,57.25s21.65-12.04,47.25-26.74c25.6-14.71,48.89-27.72,51.74-28.91l5.19-2.16-.36,54.04-.36,54.04-52.06,29.71-52.06,29.71-.36,232.26-.36,232.26-39.69,22.07c-22.68,12.61-40.57,21.73-41.73,21.29-1.79-.69-2.04-29.02-2.04-229.95,0-159.05-.44-229.02-1.44-228.69-.79.27-51.06,28.72-111.7,63.23l-110.26,62.75-.39,209.68c-.34,185.11-.63,209.72-2.46,210.02h0c-1.14.19-19.76-9.81-41.39-22.22l-39.32-22.56-.69-162.05-.69-162.05-143.48,81.16c-93.39,52.82-144.8,81.16-147.27,81.16h-3.79v-348.35Z"/>
    <path class="cls-2" d="m775.11,140.56l-3.9-8.43c-2.17-4.69-6.76-11.24-10.35-14.76-3.55-3.48-10.18-8.05-14.73-10.16-6.87-3.18-10.15-3.82-19.31-3.81-9.17,0-12.49.67-19.64,3.93-5.29,2.41-10.95,6.44-14.7,10.44-3.36,3.59-7.32,8.94-8.82,11.89-1.49,2.95-3.41,8.66-4.27,12.68-.97,4.57-1.53,23.94-1.5,51.73.04,34.22.47,45.18,1.88,47.72,1.01,1.81,3.31,4.12,5.12,5.12,1.81,1,4.35,1.85,5.65,1.88,1.29.03,3.98-.69,5.97-1.6,1.99-.91,4.5-3.36,5.58-5.45,1.45-2.81,1.97-9.39,1.97-25.25v-21.45h46.91v23.45c0,21.51.23,23.68,2.72,26.18,1.5,1.5,4.3,3.12,6.23,3.61,1.93.48,5.39.1,7.69-.85s5.11-3.53,6.25-5.73c1.75-3.38,2.01-11.52,1.66-52.58l-.41-48.57Zm-24.14,28.28h-46.91v-13.84c0-8.5.72-15.56,1.86-18.3,1.03-2.45,4.12-6.44,6.87-8.85,2.75-2.42,7.19-4.8,9.86-5.31,2.67-.5,7.04-.5,9.72,0,2.67.5,7.11,2.89,9.86,5.31,2.75,2.42,5.84,6.4,6.87,8.85,1.15,2.74,1.86,9.8,1.86,18.3v13.84Z"/>
    <path class="cls-2" d="m905.28,105.96c-2.84-1.47-9.58-1.97-26.69-1.97-19.51,0-24.22.43-31.89,2.91-4.95,1.6-11.59,4.89-14.76,7.3-3.17,2.42-7.51,6.99-9.63,10.16-2.15,3.2-4.75,9.92-5.85,15.11-1.49,7.05-1.98,20.39-1.96,54.19.02,34.6.44,45.59,1.85,48.13,1.01,1.81,3.31,4.12,5.12,5.12,1.81,1,4.41,1.85,5.78,1.88,1.37.03,4.19-.84,6.28-1.92,2.09-1.08,4.54-3.59,5.45-5.58,1.05-2.31,1.65-11.35,1.65-24.94v-21.32h24.08c15.73,0,25.33-.57,27.7-1.65,1.99-.91,4.5-3.36,5.58-5.45,1.08-2.09,1.97-4.73,1.97-5.88s-.74-3.7-1.65-5.69c-.91-1.99-3.36-4.5-5.45-5.58-2.87-1.48-9.76-1.97-28.01-1.97h-24.21v-12.07c0-9.54.57-13,2.7-16.49,1.48-2.43,4.55-5.38,6.82-6.55,3.26-1.68,9.13-2.14,27.73-2.14s24.54-.49,27.39-1.97c2.09-1.08,4.54-3.59,5.45-5.58.91-1.99,1.65-4.8,1.65-6.25s-.74-4.26-1.65-6.25c-.91-1.99-3.36-4.5-5.45-5.58Z"/>
    <polygon class="cls-2" points="297.08 137.11 297.08 177.12 297.08 217.12 468.84 217.12 640.6 217.12 640.6 177.12 640.6 137.11 468.84 137.11 297.08 137.11"/>
    <polygon class="cls-2" points="1072.41 137.11 1072.41 177.12 1072.41 217.12 1244.17 217.12 1415.93 217.12 1415.93 177.12 1415.93 137.11 1244.17 137.11 1072.41 137.11"/>
    <path class="cls-2" d="m1033.09,140.56l-3.9-8.43c-2.17-4.69-6.76-11.24-10.35-14.76-3.55-3.48-10.18-8.05-14.73-10.16-6.87-3.18-10.15-3.82-19.31-3.81-9.17,0-12.49.67-19.64,3.93-5.29,2.41-10.95,6.44-14.7,10.44-3.36,3.59-7.32,8.94-8.82,11.89-1.49,2.95-3.41,8.66-4.27,12.68-.97,4.57-1.53,23.94-1.5,51.73.04,34.22.47,45.18,1.88,47.72,1.01,1.81,3.31,4.12,5.12,5.12,1.81,1,4.35,1.85,5.65,1.88,1.29.03,3.98-.69,5.97-1.6,1.99-.91,4.5-3.36,5.58-5.45,1.45-2.81,1.97-9.39,1.97-25.25v-21.45h46.91v23.45c0,21.51.23,23.68,2.72,26.18,1.5,1.5,4.3,3.12,6.23,3.61,1.93.48,5.39.1,7.69-.85,2.3-.95,5.11-3.53,6.25-5.73,1.75-3.38,2.01-11.52,1.66-52.58l-.41-48.57Zm-24.14,28.28h-46.91v-13.84c0-8.5.72-15.56,1.86-18.3,1.03-2.45,4.12-6.44,6.87-8.85,2.75-2.42,7.19-4.8,9.86-5.31,2.67-.5,7.04-.5,9.72,0,2.67.5,7.11,2.89,9.86,5.31,2.75,2.42,5.84,6.4,6.87,8.85,1.14,2.74,1.86,9.8,1.86,18.3v13.84Z"/>
    <path class="cls-1" d="m266.72,366.12l.35,489.34.35,489.34,293.85,169.28c161.62,93.11,295.1,169.35,296.62,169.42h0c1.52.07,133.76-75.16,293.85-167.2l291.09-167.33.35-491.42.35-491.42H266.72Zm1091.27,88.29l-.35,418.99-.35,418.99-249,142.51c-136.95,78.38-250.25,142.5-251.78,142.5-1.53,0-114.83-64.14-251.79-142.52l-249.02-142.51-.35-418.98-.35-418.98h1002.98Z"/>
    <path class="cls-1" d="m742.23,127.84c-2.75-2.42-7.19-4.8-9.86-5.31-2.67-.5-7.04-.5-9.72,0-2.67.5-7.11,2.89-9.86,5.31-2.75,2.42-5.84,6.4-6.87,8.85-1.15,2.74-1.86,9.8-1.86,18.3v13.84h46.91v-13.84c0-8.5-.72-15.56-1.86-18.3-1.03-2.45-4.12-6.44-6.87-8.85Z"/>
    <path class="cls-1" d="m1000.21,127.84c-2.75-2.42-7.19-4.8-9.86-5.31-2.67-.5-7.04-.5-9.72,0-2.67.5-7.11,2.89-9.86,5.31-2.75,2.42-5.84,6.4-6.87,8.85-1.15,2.74-1.86,9.8-1.86,18.3v13.84h46.91v-13.84c0-8.5-.72-15.56-1.86-18.3-1.03-2.45-4.12-6.44-6.87-8.85Z"/>
    <path class="cls-1" d="m856.5,29.5H266.72v291.09h1179.55V29.5h-589.78Zm-215.91,147.62v40.01h-343.52v-80.02h343.52v40.01Zm133.26,64.59c-1.14,2.2-3.95,4.78-6.25,5.73s-5.76,1.33-7.69.85c-1.93-.48-4.74-2.11-6.23-3.61-2.5-2.5-2.72-4.66-2.72-26.18v-23.45h-46.91v21.45c0,15.87-.51,22.44-1.97,25.25-1.08,2.09-3.59,4.54-5.58,5.45-1.99.91-4.67,1.63-5.97,1.6-1.29-.03-3.83-.87-5.65-1.88-1.81-1.01-4.12-3.31-5.12-5.12-1.41-2.54-1.84-13.5-1.88-47.72-.03-27.8.53-47.16,1.5-51.73.85-4.02,2.77-9.73,4.27-12.68,1.49-2.95,5.46-8.3,8.82-11.89,3.75-4.01,9.42-8.03,14.7-10.44,7.15-3.26,10.46-3.92,19.64-3.93,9.17-.01,12.44.64,19.31,3.81,4.55,2.1,11.18,6.67,14.73,10.16,3.59,3.52,8.18,10.07,10.35,14.76l3.9,8.43.41,48.57c.35,41.05.09,49.19-1.66,52.58Zm136.87-117.66c-.91,1.99-3.36,4.5-5.45,5.58-2.86,1.48-9.67,1.97-27.39,1.97-18.6,0-24.46.45-27.73,2.14-2.27,1.17-5.34,4.12-6.82,6.55-2.13,3.49-2.7,6.95-2.7,16.49v12.07h24.21c18.26,0,25.15.48,28.01,1.97,2.09,1.08,4.54,3.59,5.45,5.58.91,1.99,1.65,4.55,1.65,5.69s-.88,3.78-1.97,5.88c-1.08,2.09-3.59,4.54-5.58,5.45-2.36,1.08-11.97,1.65-27.7,1.65h-24.08v21.32c0,13.59-.6,22.63-1.65,24.94-.91,1.99-3.36,4.5-5.45,5.58-2.09,1.08-4.92,1.94-6.28,1.92-1.37-.03-3.97-.87-5.78-1.88-1.81-1.01-4.12-3.31-5.12-5.12-1.41-2.54-1.83-13.53-1.85-48.13-.02-33.8.46-47.14,1.96-54.19,1.1-5.19,3.7-11.92,5.85-15.11,2.13-3.17,6.46-7.74,9.63-10.16,3.17-2.42,9.81-5.71,14.76-7.3,7.67-2.48,12.38-2.91,31.89-2.91,17.11,0,23.85.5,26.69,1.97,2.09,1.08,4.54,3.59,5.45,5.58.91,1.99,1.65,4.8,1.65,6.25s-.74,4.26-1.65,6.25Zm121.11,117.66c-1.14,2.2-3.95,4.78-6.25,5.73-2.3.95-5.76,1.33-7.69.85-1.93-.48-4.74-2.11-6.23-3.61-2.5-2.5-2.72-4.66-2.72-26.18v-23.45h-46.91v21.45c0,15.87-.51,22.44-1.97,25.25-1.08,2.09-3.59,4.54-5.58,5.45-1.99.91-4.67,1.63-5.97,1.6h0,0,0c-1.29-.03-3.83-.87-5.65-1.88-1.81-1.01-4.12-3.31-5.12-5.12-1.41-2.54-1.84-13.5-1.88-47.72-.03-27.8.53-47.16,1.5-51.73.85-4.02,2.77-9.73,4.27-12.68,1.49-2.95,5.46-8.3,8.82-11.89,3.75-4.01,9.42-8.03,14.7-10.44,7.15-3.26,10.46-3.92,19.64-3.93,9.17-.01,12.44.64,19.31,3.81,4.55,2.1,11.18,6.67,14.73,10.16,3.59,3.52,8.18,10.07,10.35,14.76l3.9,8.43.41,48.57c.35,41.05.09,49.19-1.66,52.58Zm384.09-64.59v40.01h-343.52v-80.02h343.52v40.01Z"/>
    <path class="cls-1" d="m591.62,1162.39l143.48-81.16.69,162.05.69,162.05,39.32,22.56c21.62,12.41,40.25,22.41,41.39,22.22h0c1.83-.31,2.12-24.92,2.46-210.03l.39-209.68,110.26-62.75c60.64-34.51,110.91-62.97,111.7-63.23,1-.33,1.44,69.64,1.44,228.69,0,200.93.25,229.27,2.04,229.95,1.17.45,19.05-8.68,41.73-21.29l39.69-22.07.36-232.26.36-232.26,52.06-29.71,52.06-29.71.36-54.04.36-54.04-5.19,2.16c-2.85,1.19-26.14,14.2-51.74,28.91-25.6,14.71-46.87,26.74-47.25,26.74s-.7-25.76-.7-57.25v-57.25h144.86v-84.16h-229.01v247.74l-32.77,18.73-32.77,18.73-.35-142.6-.35-142.6h-349.06l3.62,5.74c1.99,3.16,16.63,22.09,32.53,42.08l28.91,36.34h42.57v339.18l-105.19,59.98-105.19,59.98-.35-271.65-.35-271.65h-84.15v696.7h3.79c2.47,0,53.89-28.33,147.27-81.16Zm228.32-386.5v-146.27h74.5l-.03,125.2-.03,125.2-29.98,16.92c-16.49,9.31-33.23,18.79-37.22,21.07l-7.24,4.14v-146.27Z"/>
  </g>
</svg>