<?xml version="1.0" encoding="UTF-8"?>
<svg id="Capa_1" data-name="Capa 1" xmlns="http://www.w3.org/2000/svg" viewBox="0 0 1713 1713">
  <defs>
    <style>
      .cls-1 {
        fill: #bbbabc;
        opacity: .22;
        stroke-width: 0px;
      }
    </style>
  </defs>
  <path class="cls-1" d="m462.87,163.73c72.9,34.31,121.15,76.12,129.72,82.55-3.22-19.3-18.23-110.43-27.87-166.17,41.81,28.95,142.59,98.63,174.75,121.15,12.87-40.74,60.04-174.75,60.04-174.75,0,0,83.62,134.01,96.49,156.53,18.23-17.15,116.86-128.65,142.59-156.53,5.36,63.25,9.65,155.45,11.79,168.32,5.36-6.43,43.96-60.04,107.21-110.43-27.87,54.68-40.74,129.72-47.17,190.83-63.25-18.23-129.72-27.87-197.27-27.87-130.8,0-255.16,34.31-362.37,95.42-18.23-58.97-47.17-131.87-87.91-179.04Zm1005.62,1151.43l-57.89-64.33c-16.08,172.61-101.85,320.56-257.3,423.48l-24.66-93.27c-132.94,95.42-359.15,156.53-554.27,47.17,24.66-123.29,45.03-248.73,0-398.82-108.28,166.17-203.7,232.64-203.7,232.64-72.9-123.29-66.47-368.8-45.03-441.7l-121.15,37.52c0-82.55,60.04-257.3,145.8-355.94l-73.97-11.79c51.46-105.07,127.58-195.12,223-264.81-28.95,47.17-28.95,156.53,53.6,198.34-35.38-61.11-38.6-137.23-3.22-177.97,37.52-40.74,98.63-25.73,137.23,5.36-11.79-34.31-47.17-77.19-96.49-80.41,96.49-50.39,209.06-77.19,324.84-77.19,22.51,0,43.96,2.14,64.33,3.22,34.31,12.87,83.62,61.11,107.21,92.2,0,0,2.14-35.38-18.23-77.19,126.51,31.09,187.62,82.55,212.27,107.21,5.36,54.68,21.44,86.84,43.96,139.37-40.74-45.03-143.66-120.07-194.05-137.23,0,0-5.36,47.17-21.44,69.69-98.63-70.76-145.8-88.98-145.8-88.98-109.35,10.72-176.9,53.6-215.49,85.77l32.16,27.87c-64.33,19.3-107.21,76.12-107.21,76.12,0,2.14,57.89,9.65,57.89,9.65,0,0-6.43,67.54,79.33,110.43,72.9,35.38,175.82-8.58,274.46,31.09-64.33-73.97-108.28-108.28-108.28-108.28,0,0-25.73-5.36-43.96-5.36-22.51,0-56.82,5.36-92.2-9.65-18.23-6.43-38.6-19.3-53.6-28.95,0,0,45.03-47.17,111.5-56.82,0,0,60.04,16.08,107.21,51.46,31.09-31.09,64.33-28.95,64.33-28.95,0,0-32.16,31.09-22.51,66.47,47.17,41.81,98.63,101.85,98.63,101.85,51.46-28.95,165.1-22.51,188.69,5.36-28.95-38.6-72.9-69.69-105.07-96.49-3.22-15.01-40.74-64.33-45.03-69.69,0,0,34.31,11.79,64.33,37.52,8.58-12.87,25.73-25.73,47.17-31.09,22.51,19.3,27.87,48.24,25.73,53.6-9.65,12.87-21.44,18.23-21.44,18.23l54.68,60.04,5.36-43.96c127.58,181.18,197.27,392.39,108.28,657.19Zm-240.15-391.31v-93.27s-41.81-12.87-86.84-48.24c-90.06,12.87-198.34,103.99-198.34,103.99,0,0,37.52,69.69,77.19,145.8,70.76,7.5,175.82-80.41,207.99-108.28Zm90.06,169.39s-6.43-38.6-38.6-73.97l-69.69,2.14s-95.42,80.41-152.24,82.55c0,0,32.16,60.04,48.24,90.06,32.16-6.43,86.84-32.16,110.43-57.89,0,0,15.01,48.24,11.79,105.07,32.16-20.37,76.12-69.69,90.06-147.95Zm28.95-308.76c-35.38,28.95-64.33,47.17-64.33,47.17v93.27c25.73,27.87,50.39,51.46,69.69,93.27,35.38-62.18,26.8-155.45-5.36-233.72Z"/>
</svg>