<?xml version="1.0" encoding="UTF-8"?>
<svg id="Capa_1" data-name="Capa 1" xmlns="http://www.w3.org/2000/svg" viewBox="0 0 1713 1713">
  <defs>
    <style>
      .cls-1 {
        opacity: .22;
      }

      .cls-2 {
        fill: #c0bfc1;
        stroke-width: 0px;
      }
    </style>
  </defs>
  <g class="cls-1">
    <path class="cls-2" d="m307.84,955.31c11.06,17.03,22.47,33.85,35.68,50.98.24-2.57.43-3.85.46-5.14,1.18-39.98,6.77-79.43,14.39-118.61,18.04-92.71,44.57-183.14,73.84-272.82,7.9-24.2,16.22-48.27,24.35-72.4,1.56-1.48,1.15-3.38,1.03-5.17-.86-12.78-1.76-25.55-2.64-38.32-.04-4.66-.09-9.32-.13-13.99h0c.02-14.37.03-28.74.05-43.12.1-5.45.21-10.89.31-16.34,1.96-8.75,1.14-17.65,1.39-26.49,1.95-6.39,1.17-12.97,1.4-19.48.12-.93.22-1.75.3-2.52-.03.77-.11,1.59-.3,2.52,1.79-10.24,2.47-20.57,2.89-30.94,0,0,0,0,0,0,1.94-10.62,3.09-21.34,3.83-32.1,2.07-10.55,3.77-21.15,4.4-31.89,2.11-8.65,3.59-17.39,4.22-26.28,2.01-7.77,3.7-15.59,4.19-23.63,2.68-9.18,4.36-18.56,5.55-28.04,2.17-6.33,3.41-12.85,4.13-19.48,3.39-9.56,4.57-19.64,6.89-29.46,3.74-13.71,7.49-27.43,11.79-43.17-18.88,11.55-36.4,21.27-52.51,33.28,0,0,0,0,0,0-9.28,5.22-18.04,11.18-26.27,17.93,0,0,0,0,0,0-9.44,5.8-18.35,12.32-26.71,19.59,0,0,0,0,0,0-8.85,5.73-17.08,12.24-24.84,19.36,0,0,0,0,0,0-9.04,6.27-17.25,13.54-25.23,21.07h0c-9.28,7.38-18.34,14.99-26.37,23.77,0,0,0,0,0,0-9.65,8.38-19.19,16.86-27.5,26.62h0,0c-9.56,8.55-18.04,18.11-26.36,27.84h0,0c-5.54,5.73-11.26,11.29-15.75,17.95h0c-5.61,5.6-10.75,11.6-15.2,18.17-6.02,6.58-11.7,13.44-16.52,20.97-6.11,6.96-11.46,14.47-16.45,22.26h0c-5.81,7.52-11.37,15.21-15.95,23.57h0c-6.22,8.41-11.8,17.23-16.74,26.45,0,0,0,0,0,0-6.2,9.38-11.69,19.17-16.67,29.24-15.23,27.36-27.87,55.86-38,85.5-1.59,4.65-1.47,8.73-.02,13.36,44.41,141.81,108.19,274.44,189.08,398.94Z"/>
    <path class="cls-2" d="m1214.27,1180.7c1.38-1.01,3.5-2.05,1.94-3.93-.54-.65-2.57,1.03-3.46,2.32-.97.61-1.97,1.19-2.91,1.85-153.14,107.64-316.39,196.41-491.76,262.26-96.99,36.42-196.42,63.85-299.36,77.49-9.01,1.19-18.01,2.41-28.52,3.81,2.41,1.48,3.35,2.1,4.33,2.66,33.19,18.97,66.74,37.3,100.85,54.57,35.96,18.2,72.15,35.89,110.6,48.43,5.44,1.77,9.97,1.42,15.15-1.25,180.47-93.13,347.39-205.68,495.42-345.3,34.45-32.49,67.36-66.5,97.72-102.91Z"/>
    <path class="cls-2" d="m1128.32,304.4c23.99,37.74,49.23,74.72,69.64,114.63,1.37,2.67,3.38,3.31,5.97,3.96,65.9,16.3,131.08,35.1,195.29,57.15,65.77,22.59,130.52,47.63,191.36,81.8,5.21,2.93,10.36,5.96,17.19,9.9-.98-3.7-1.34-5.47-1.92-7.16-12.67-37.39-28.92-73.22-47.75-107.87-40.46-74.45-91.09-140.87-155.75-196.13-2.3-1.97-4.26-3.71-7.87-3.25-30.35,3.87-60.74,7.46-91.12,11.18-55.91,6.85-111.81,13.79-167.74,20.54-16.07,1.94-15.96,1.63-7.31,15.25Z"/>
    <path class="cls-2" d="m1093.06,747.15c21.81.26,43.63.13,65.45.1,14.32-.02,24.9-7.86,28.96-21.39,3.73-12.42,7.43-24.85,11.13-37.28q2.59-8.67-6.23-8.68c-51.99,0-103.98,0-155.97-.02-2.77,0-5.56-.12-8.32-.42-10.7-1.13-18.32,5.62-18.33,16.33,0,52.22,0,104.44,0,156.67,0,52.45.08,104.91-.12,157.36-.02,5.55,1.57,7.03,7.01,6.95,20.88-.3,41.78-.3,62.66,0,5.35.08,7.02-1.23,6.98-6.83-.27-34.58-.04-69.17-.24-103.75-.03-4.84,1.29-6.3,6.19-6.25,22.28.24,44.56,0,66.84.21,4.38.04,6.53-1,7.71-5.55,5.68-21.73,11.62-43.4,17.75-65.01,1.46-5.13.08-6.08-4.92-6.05-29.01.22-58.03-.03-87.04.23-5.23.05-6.64-1.36-6.57-6.59.3-21.12.36-42.24-.03-63.36-.11-5.79,1.88-6.76,7.06-6.7Z"/>
    <path class="cls-2" d="m564.46,858.56c10.09,6.56,20.85,12.09,31.12,18.38,13.26,8.11,24.52,18.27,31.6,32.47,9.79,19.63,2.82,38.86-17.37,47.62-10.85,4.71-22.18,4.45-33.52,2.7-16.05-2.47-31.78-6.49-47.21-11.47-5.09-1.64-6.67-.53-7.79,4.56-2.29,10.39-5.35,20.61-8.13,30.9q-4.72,17.48,12.49,22.88c21.93,6.9,44.56,8.41,68.88,8.72,30.69,2.59,58.43-8.42,81.73-29.8,21.65-19.88,32.97-44.93,28.3-74.82-6-38.39-26.92-66.24-62.03-83.45-19.33-9.47-37.26-21.09-49.28-39.62-8.83-13.62-8.94-28.21-1.27-42.27,7.44-13.64,19.51-19.88,35.18-19.1,15.65.78,29.89,6.26,43.49,13.37,4.8,2.51,7.1,1.25,9.5-2.56,7.23-11.46,11.7-24.11,16.23-36.77,1.19-3.31-.87-4.13-2.75-5.31-47.28-29.66-102.8-35.01-151.69,5.4-28.37,23.45-39.67,52.7-30.15,89.11,7.95,30.42,26.94,52.35,52.65,69.05Z"/>
    <path class="cls-2" d="m1366.55,1049.9c-10.58,9.41-20.92,18.61-31.25,27.81-11.98,9.68-23.64,19.74-34.83,30.33-7.25,5.69-15.39,10.79-20.44,18.46-6.95,10.56-12.41,22.11-18.51,33.23h0c-11.6,19.05-23.21,38.09-34.81,57.14t0,0h0c-13.04,19.85-26.08,39.69-39.12,59.54-14.45,20.31-28.9,40.62-43.35,60.93h0c-12.13,15.9-24.26,31.79-36.39,47.69-12.88,15.81-25.76,31.62-38.63,47.43h0c-13.43,15.4-26.87,30.79-40.3,46.19-13.46,14.39-26.92,28.78-40.38,43.17h0c-12.54,12.52-25.09,25.03-37.63,37.55h0c-10.27,9.58-20.55,19.16-30.82,28.74h0c-21.33,18.12-42.13,36.85-64.21,54.08-9.93,7.75-19.91,15.45-31.29,24.27,33.17.46,64.47-.6,95.66-4.2.94-.04,1.89-.07,2.83-.11,2.53.16,5.07.33,7.39-1,0,0,0,0,.01,0,7.71,0,15.33-.87,22.86-2.42.54.05,1.19-.07,1.98-.41,12.09-.87,24.09-2.4,35.91-5.12.51.01,1.11-.11,1.82-.41,12.62-1.27,25.03-3.62,37.27-6.94,14.24-2.23,28.26-5.38,41.99-9.77h0c13.29-2.71,26.33-6.31,39.02-11.13h0c12.73-3.38,25.3-7.25,37.34-12.69,13.96-4.29,27.39-9.89,40.52-16.24,0,0,0,0,0,0,13.75-6.18,27.79-11.77,40.63-19.83h0c12.6-5.98,24.67-12.89,36.08-20.92,13.45-7.98,26.5-16.54,38.47-26.65,11.59-8.19,22.52-17.16,32.51-27.26,4.67-2.45,6.96-6.28,7.56-11.56.81-7.12,2.28-14.17,3.23-21.28,9.06-67.58,13.61-135.54,16.62-203.61,3.07-69.49,3.79-139.03,3.46-208.59,0-1.92.63-4.04-1.18-6.39Z"/>
    <path class="cls-2" d="m492.67,1373.96c17.13,1.74,34.31,2.57,51.53,2.75,4.01.09,8.02.18,12.02.27,6.12,1.54,12.35,1.04,18.55.99,2.81.04,5.61.08,8.42.13,30.8,1.46,61.62,1.57,92.45,1.2,6.92-.08,13.89.59,20.76-.87,20.88.36,41.7-.41,62.56-2.42-5.64-2.98-11.39-5.35-17.05-7.9-25.52-11.49-51.01-23.04-76.51-34.56-11.36-7.68-25.01-10.69-36.59-17.91-13.64-8.46-28.1-15.38-42.42-22.58h0c-12.54-8.65-27.01-13.81-39.84-21.95-1.38-2.33-3.98-2.95-6.09-4.18-15.12-8.88-30.31-17.64-45.48-26.44-18.71-12.53-37.62-24.73-56.96-36.27-17.59-13.22-35.97-25.3-54.19-37.6-14.64-12.06-30.68-22.2-45.89-33.48-13.36-11.91-27.77-22.5-41.96-33.36-15.11-12.61-30.22-25.22-45.33-37.83h0c-1.98-1.91-3.88-3.91-5.94-5.73-13.07-11.52-26.18-23-39.28-34.49-.87-2.54-3.16-3.85-4.99-5.47-9.22-8.16-18.98-15.72-27.06-25.11-.35-2.04-2.16-2.92-3.43-4.18-31.91-31.46-62.6-64.05-91.22-98.55-8.96-10.8-17.63-21.85-27.21-33.75,0,3.24-.06,5.22,0,7.2,1.77,47.77,5.69,95.33,13.43,142.55,12.09,73.75,31.95,145.16,63.55,213.05,12.22,26.27,25.64,51.91,42.48,75.6h0c8.84,14.2,18.68,27.63,30.39,39.62h0c.99,2.76,3.65,2.6,5.76,3.04,14.36,3.01,28.75,5.87,43.14,8.78,13.87,2.85,27.73,5.71,41.83,7.17,14.24,3.21,28.71,4.98,43.18,6.78,14.76,2.67,29.67,4.09,44.57,5.62,18.51,2.47,37.06,4.58,55.71,5.61,18.98,2.1,37.99,3.89,57.1,4.28Z"/>
    <path class="cls-2" d="m1656.96,771.93c-1.54-16.05-5.44-28.34-22.01-33.46h0c-9.33-6.91-19.96-11.62-29.88-17.54-1.5-2.54-4.32-3.23-6.62-4.58-7.21-4.25-14.54-8.29-21.83-12.41-8.41-5.69-17.15-10.81-26.24-15.33-7.15-6.13-16.69-8.11-24.08-13.82-8.51-5.98-17.86-10.46-27.11-15.1-9.49-6.65-19.79-11.88-30.16-16.97-7.84-5.83-17.09-9.02-25.55-13.68-10.86-7.21-22.56-12.83-34.32-18.36-11.51-6.89-23.51-12.83-35.79-18.2h0c-13.18-7.37-26.74-13.97-40.76-19.61-26.7-13.01-54.03-24.27-83.84-31.61.84,2.35,1.19,3.44,1.62,4.51,23.11,57.66,43.26,116.34,60.67,175.96,6.55,22.42,12.41,45.04,18.58,67.57h0c.3,1.81.49,3.65.91,5.44,10.33,44.42,19.1,89.1,23.24,134.59,1.37,15.07,2.32,30.17,4,45.67,5.41-9.04,10.82-18.09,16.23-27.13h0c9.14-14.55,18.27-29.09,27.46-43.71,2.79,1.93,2.32,5.55,4.4,7.71,11.69,31.65,23.38,63.3,35.06,94.95,8.37,25.5,16.73,50.99,25.1,76.49h0c9.68,35.22,19.36,70.45,29.04,105.67,0,0,0,0,0,0,.27,1.83.41,3.69.83,5.49,7.08,30.47,13.24,61.11,16.59,92.25,1.25,11.63,2.26,23.29,3.47,35.84,4.68-5.19,8.95-9.56,11.38-15.35,7.97-10.29,15.94-20.58,22.13-32.1,10.46-16.07,19.99-32.67,28.06-50.09.8-1.86,1.43-3.82,2.44-5.56,10.33-17.71,18.02-36.61,25.29-55.71,2.75-7.52,5.29-15.12,8.29-22.54,9.51-23.44,16.68-47.59,22.45-72.18,2.31-9.08,4.9-18.1,6.89-27.25,19.42-89.17,22.77-179.13,14.06-269.84Z"/>
    <path class="cls-2" d="m651.68,374.14s0,0,.01,0c2.22-.1,4.44-.21,6.66-.31h0,0c17.22-.94,34.45-1.88,51.67-2.83h0c29.12-.34,58.23-.68,87.35-1.02,8.37,1.85,16.86.95,25.3,1.02,0,0,0,0,0,0,0,0,0,0,0,0,6.41.14,12.83.28,19.24.42,0,0,0,0,0,0,1.33.31,2.65.86,3.99.91,22.66.84,45.26,2.52,67.87,4.26,38.04,2.94,75.93,7.21,113.73,12.32,8.51,1.15,16.94,3.58,26.59,3.18-1.88-2.41-3.31-3.72-5.4-4.25,0,0,0,0,0,0-18.2-14.02-36.86-27.41-55.86-40.33,0,0,0,0,0,0-17.69-13.55-35.72-26.61-54.22-39.04,0,0,0,0,0,0-2.51-2.1-3.16-3.91-.15-6.47,6.97-5.91,13.86-11.86,22.15-15.91,0,0,0,0,0,0,16.71-7.85,33.42-15.7,50.14-23.55,0,0,0,0,0,0h0c18.56-7,37.12-14.01,55.67-21.01,0,0,0,0,0,0h0c19.51-6.48,39.03-12.96,58.54-19.44,18.57-5.6,37.14-11.21,55.7-16.81,16.27-4.64,32.54-9.27,48.81-13.91,0,0,0,0,0,0,18.11-5,36.21-10,54.32-15,2.7-.04,5.46.13,7.79-2.54-14.17-9.33-28.59-17.89-43.44-25.71-11.99-6.32-23.49-13.67-36.49-17.94-2.2-1.24-4.33-2.65-6.62-3.71-36.38-16.95-74-30.64-112.49-41.86-34.86-10.16-70.19-18.34-106.07-24.21-24.64-4.03-49.28-7.67-74.18-9.74-21.91-1.82-43.77-4.01-65.79-3.7,0,0,0,0,0,0h0c-6.49.37-13.49-2.36-19.32,2.07-5.07,3.85-10.37,7.57-14.39,12.66,0,0,0,0,0,0-8.96,6.4-16.19,14.62-23.64,22.61,0,0,0,0,0,0-7.32,6.2-13.5,13.47-19.57,20.84,0,0,0,0,0,0-8.08,7.77-15.32,16.28-22.18,25.12,0,0,0,0,0,0-8.35,8.88-16.26,18.14-23.55,27.91-7.93,8.9-15.58,18.03-22.53,27.73-8.42,9.85-16.55,19.92-23.94,30.58-7.36,8.46-14.14,17.36-20.47,26.61-6.14,6.99-11.66,14.46-16.73,22.27h0c-6.15,6.99-11.62,14.49-16.61,22.34-6.17,7.51-12.14,15.17-17.14,23.53-6.3,7.57-12,15.57-17.35,23.84-4.41,5.18-8.35,10.68-11.8,16.54-8.34,11.57-16.68,23.14-26.1,36.2,31.78-5.82,61.84-9.48,91.96-12.64,2.9.11,5.83.5,8.52-1.03Z"/>
    <path class="cls-2" d="m903.3,693.82c-2.81-10.59-8.45-15.23-17.34-14.61-22.02,1.54-44.07.74-66.09.54-16.34-.15-19.34,1.55-23.54,17.65-6.72,25.77-13.49,51.52-20.25,77.28-20.59,78.39-41.15,156.79-61.89,235.14-1.42,5.36-.85,7.08,5.22,6.98,21.81-.35,43.63-.29,65.44-.02,5.01.06,7.35-1.23,8.41-6.4,2.55-12.47,5.93-24.78,8.58-37.23.93-4.35,2.49-6.04,7.23-5.92,13.68.36,27.38.13,41.07.13s27.85.13,41.77-.08c3.87-.06,5.62.82,6.5,4.99,2.74,12.91,6.33,25.63,9.08,38.54.97,4.54,2.75,6,7.35,5.95,22.05-.22,44.1-.28,66.14.02,6.13.08,6.67-1.56,5.2-7.15-22.31-84.4-44.38-168.87-66.51-253.32-5.46-20.83-10.86-41.68-16.39-62.49Zm-28.6,206.4c-16.68-.41-33.38-.24-50.07-.07-4.04.04-5.39-1.03-4.41-5.18,9.59-40.76,19.07-81.54,28.59-122.32.21-.88.52-1.74.79-2.61.5-.06,1-.12,1.5-.18,2.89,12.28,5.81,24.55,8.67,36.83,6.7,28.84,13.24,57.73,20.17,86.51,1.28,5.34.9,7.17-5.24,7.02Z"/>
  </g>
</svg>